SplineFontDB: 3.2
FontName: CSLSans-ExtraLight
FullName: CSL Sans ExtraLight
FamilyName: CSL Sans ExtraLight
Weight: Extra-Light
Copyright: Copyright (c) 2019 IBM Corp. with Reserved Font Name "Plex"\n\nCopyright (c) 2019 The HMI Sans Project Authors (https://github.com/somegoodpixels/hmi-sans)\nCopyright (c) 2021 The CSL Sans Project Authors (https://github.com/cssobral2013/CSL-Sans)\nThis Font Software is licensed under the SIL Open Font License, Version 1.1.\nThis license is copied below, and is also available with a FAQ at: http://scripts.sil.org/OFL.
Version: 2.001;January 21, 2022;FontCreator 14.0.0.2808 64-bit
ItalicAngle: 0
UnderlinePosition: -114
UnderlineWidth: 26
Ascent: 800
Descent: 200
InvalidEm: 0
sfntRevision: 0x00020041
LayerCount: 2
Layer: 0 1 "Back" 1
Layer: 1 1 "Fore" 0
XUID: [1021 651 537639564 4105]
StyleMap: 0x0000
FSType: 0
OS2Version: 3
OS2_WeightWidthSlopeOnly: 0
OS2_UseTypoMetrics: 0
CreationTime: 1550580416
ModificationTime: 1642760298
PfmFamily: 81
TTFWeight: 200
TTFWidth: 5
LineGap: 0
VLineGap: 0
Panose: 0 0 3 0 0 0 0 0 0 0
OS2TypoAscent: 1000
OS2TypoAOffset: 0
OS2TypoDescent: -220
OS2TypoDOffset: 0
OS2TypoLinegap: 0
OS2WinAscent: 1000
OS2WinAOffset: 0
OS2WinDescent: 220
OS2WinDOffset: 0
HheadAscent: 1000
HheadAOffset: 0
HheadDescent: -220
HheadDOffset: 0
OS2SubXSize: 650
OS2SubYSize: 600
OS2SubXOff: 0
OS2SubYOff: 75
OS2SupXSize: 650
OS2SupYSize: 600
OS2SupXOff: 0
OS2SupYOff: 350
OS2StrikeYSize: 26
OS2StrikeYPos: 304
OS2CapHeight: 698
OS2XHeight: 508
OS2Vendor: 'UKWN'
OS2CodePages: 2000019f.00000000
OS2UnicodeRanges: a10002ff.5000a07b.00000000.00000000
Lookup: 258 0 0 "'kern' Kerning Horizontal lookup 0" { "'kern' Kerning Horizontal lookup 0 per glyph data 0"  "'kern' Kerning Horizontal lookup 0 kerning class 1"  "'kern' Kerning Horizontal lookup 0 kerning class 2"  "'kern' Kerning Horizontal lookup 0 kerning class 3"  } ['kern' ('DFLT' <'dflt' > 'cyrl' <'dflt' > 'grek' <'dflt' > 'latn' <'dflt' > ) ]
DEI: 91125

StartChar: .notdef
Encoding: 65536 -1 0
Width: 472
Flags: W
LayerCount: 2
Fore
SplineSet
440 0 m 1,0,-1
 440 780 l 1,1,-1
 32 780 l 1,2,-1
 32 0 l 1,3,-1
 440 0 l 1,0,-1
414 26 m 1,4,-1
 58 26 l 1,5,-1
 58 754 l 1,6,-1
 414 754 l 1,7,-1
 414 26 l 1,4,-1
EndSplineSet
EndChar

StartChar: exclam
Encoding: 33 33 2
Width: 260
GlyphClass: 1
Flags: W
LayerCount: 2
Fore
SplineSet
139 178 m 1,0,-1
 149 434 l 1,1,-1
 149 698 l 1,2,-1
 111 698 l 1,3,-1
 111 434 l 1,4,-1
 120 178 l 1,5,-1
 139 178 l 1,0,-1
130 -7 m 0,6,7
 165 -7 165 -7 165 26 c 2,8,-1
 165 35 l 2,9,10
 165 68 165 68 130 68 c 0,11,12
 96 68 96 68 95 35 c 2,13,-1
 95 26 l 2,14,15
 95 -4 95 -4 130 -7 c 0,6,7
EndSplineSet
EndChar

StartChar: quotedbl
Encoding: 34 34 3
Width: 384
GlyphClass: 7
Flags: W
LayerCount: 2
Fore
SplineSet
129 483 m 1,0,-1
 129 740 l 1,1,-1
 96 740 l 1,2,-1
 96 483 l 1,3,-1
 129 483 l 1,0,-1
287 483 m 1,4,-1
 287 740 l 1,5,-1
 254 740 l 1,6,-1
 254 483 l 1,7,-1
 287 483 l 1,4,-1
EndSplineSet
EndChar

StartChar: numbersign
Encoding: 35 35 4
Width: 711
GlyphClass: 5
Flags: W
LayerCount: 2
Fore
SplineSet
416 0 m 1,0,-1
 453 216 l 1,1,-1
 604 216 l 1,2,-1
 604 245 l 1,3,-1
 458 245 l 1,4,-1
 493 453 l 1,5,-1
 643 453 l 1,6,-1
 643 482 l 1,7,-1
 498 482 l 1,8,-1
 536 698 l 1,9,-1
 504 698 l 1,10,-1
 467 482 l 1,11,-1
 289 482 l 1,12,-1
 326 698 l 1,13,-1
 295 698 l 1,14,-1
 258 482 l 1,15,-1
 107 482 l 1,16,-1
 107 453 l 1,17,-1
 253 453 l 1,18,-1
 218 245 l 1,19,-1
 68 245 l 1,20,-1
 68 216 l 1,21,-1
 212 216 l 1,22,-1
 175 0 l 1,23,-1
 206 0 l 1,24,-1
 244 216 l 1,25,-1
 422 216 l 1,26,-1
 384 0 l 1,27,-1
 416 0 l 1,0,-1
427 245 m 1,28,-1
 248 245 l 1,29,-1
 284 453 l 1,30,-1
 462 453 l 1,31,-1
 427 245 l 1,28,-1
EndSplineSet
EndChar

StartChar: dollar
Encoding: 36 36 5
Width: 559
Flags: W
LayerCount: 2
Fore
SplineSet
298 -82 m 1,0,-1
 298 0 l 1,1,2
 393 5 393 5 447 52.5 c 128,-1,3
 501 100 501 100 501 189 c 0,4,5
 501 258 501 258 462 304 c 128,-1,6
 423 350 423 350 319 370 c 2,7,-1
 297 374 l 1,8,-1
 297 666 l 1,9,10
 411 657 411 657 463 578 c 1,11,-1
 491 599 l 1,12,13
 434 687 434 687 298 698 c 1,14,-1
 298 780 l 1,15,-1
 269 780 l 1,16,-1
 269 698 l 1,17,18
 175 696 175 696 118.5 653.5 c 128,-1,19
 62 611 62 611 62 527 c 0,20,21
 62 463 62 463 101.5 415.5 c 128,-1,22
 141 368 141 368 245 350 c 2,23,-1
 269 346 l 1,24,-1
 269 32 l 1,25,26
 200 36 200 36 153 64 c 128,-1,27
 106 92 106 92 72 138 c 1,28,-1
 44 115 l 1,29,30
 125 6 125 6 269 0 c 1,31,-1
 269 -82 l 1,32,-1
 298 -82 l 1,0,-1
297 32 m 1,33,-1
 297 341 l 1,34,-1
 312 338 l 2,35,36
 378 328 378 328 421 295 c 0,37,38
 465 259 465 259 465 187 c 0,39,40
 465 43 465 43 297 32 c 1,33,-1
269 379 m 1,41,-1
 250 383 l 2,42,43
 184 395 184 395 142 427 c 0,44,45
 97 462 97 462 97 529 c 256,46,47
 97 596 97 596 142 630 c 128,-1,48
 187 664 187 664 269 666 c 1,49,-1
 269 379 l 1,41,-1
EndSplineSet
EndChar

StartChar: percent
Encoding: 37 37 6
Width: 892
Flags: W
LayerCount: 2
Fore
SplineSet
222 0 m 1,0,-1
 706 698 l 1,1,-1
 670 698 l 1,2,-1
 186 0 l 1,3,-1
 222 0 l 1,0,-1
218 323 m 0,4,5
 280 323 280 323 321.5 369 c 128,-1,6
 363 415 363 415 363 517 c 0,7,8
 363 618 363 618 321.5 664 c 128,-1,9
 280 710 280 710 218 710 c 0,10,11
 157 710 157 710 115 664 c 128,-1,12
 73 618 73 618 73 517 c 0,13,14
 73 415 73 415 115 369 c 128,-1,15
 157 323 157 323 218 323 c 0,4,5
218 348 m 0,16,17
 172 348 172 348 139 383.5 c 128,-1,18
 106 419 106 419 106 497 c 2,19,-1
 106 536 l 2,20,21
 106 614 106 614 139 649.5 c 128,-1,22
 172 685 172 685 218 685 c 0,23,24
 265 685 265 685 297.5 649.5 c 128,-1,25
 330 614 330 614 330 536 c 2,26,-1
 330 497 l 2,27,28
 330 419 330 419 297.5 383.5 c 128,-1,29
 265 348 265 348 218 348 c 0,16,17
674 -12 m 0,30,31
 736 -12 736 -12 777.5 34 c 128,-1,32
 819 80 819 80 819 182 c 0,33,34
 819 283 819 283 777.5 329 c 128,-1,35
 736 375 736 375 674 375 c 0,36,37
 613 375 613 375 571 329 c 128,-1,38
 529 283 529 283 529 182 c 0,39,40
 529 80 529 80 571 34 c 128,-1,41
 613 -12 613 -12 674 -12 c 0,30,31
674 13 m 0,42,43
 628 13 628 13 595 48.5 c 128,-1,44
 562 84 562 84 562 162 c 2,45,-1
 562 201 l 2,46,47
 562 279 562 279 595 314.5 c 128,-1,48
 628 350 628 350 674 350 c 0,49,50
 721 350 721 350 753.5 314.5 c 128,-1,51
 786 279 786 279 786 201 c 2,52,-1
 786 162 l 2,53,54
 786 84 786 84 753.5 48.5 c 128,-1,55
 721 13 721 13 674 13 c 0,42,43
EndSplineSet
EndChar

StartChar: ampersand
Encoding: 38 38 7
Width: 681
GlyphClass: 3
Flags: W
LayerCount: 2
Fore
SplineSet
275 -12 m 0,0,1
 355 -12 355 -12 410 22.5 c 128,-1,2
 465 57 465 57 495 108 c 1,3,-1
 601 0 l 1,4,-1
 647 0 l 1,5,-1
 513 137 l 1,6,7
 548 218 548 218 553 323 c 1,8,-1
 638 323 l 1,9,-1
 638 355 l 1,10,-1
 523 355 l 1,11,12
 523 244 523 244 490 161 c 1,13,-1
 285 367 l 1,14,15
 370 406 370 406 421.5 454 c 128,-1,16
 473 502 473 502 473 568 c 0,17,18
 473 628 473 628 429 669 c 128,-1,19
 385 710 385 710 311 710 c 0,20,21
 233 710 233 710 186 666 c 128,-1,22
 139 622 139 622 139 551 c 0,23,24
 139 502 139 502 163.5 461 c 128,-1,25
 188 420 188 420 233 373 c 1,26,27
 166 343 166 343 119 296 c 0,28,29
 70 245 70 245 70 170 c 0,30,31
 70 91 70 91 125.5 39.5 c 128,-1,32
 181 -12 181 -12 275 -12 c 0,0,1
264 388 m 1,33,34
 226 429 226 429 200.5 466.5 c 128,-1,35
 175 504 175 504 175 544 c 2,36,-1
 175 560 l 2,37,38
 175 610 175 610 210.5 645 c 128,-1,39
 246 680 246 680 310 680 c 0,40,41
 360 680 360 680 398.5 651.5 c 128,-1,42
 437 623 437 623 437 570 c 2,43,-1
 437 557 l 2,44,45
 437 503 437 503 388 462.5 c 128,-1,46
 339 422 339 422 264 388 c 1,33,34
276 20 m 0,47,48
 203 20 203 20 156 59 c 0,49,50
 108 97 108 97 108 161 c 2,51,-1
 108 180 l 2,52,53
 108 248 108 248 150.5 286 c 128,-1,54
 193 324 193 324 254 352 c 1,55,-1
 474 129 l 1,56,57
 411 20 411 20 276 20 c 0,47,48
EndSplineSet
EndChar

StartChar: quotesingle
Encoding: 39 39 8
Width: 225
Flags: W
LayerCount: 2
Fore
SplineSet
129 483 m 1,0,-1
 129 740 l 1,1,-1
 96 740 l 1,2,-1
 96 483 l 1,3,-1
 129 483 l 1,0,-1
EndSplineSet
EndChar

StartChar: parenleft
Encoding: 40 40 9
Width: 333
Flags: W
LayerCount: 2
Fore
SplineSet
320 -138 m 1,0,1
 242 -69 242 -69 190 43 c 0,2,3
 134 158 134 158 134 288 c 2,4,-1
 134 334 l 2,5,6
 134 458 134 458 190 579 c 0,7,8
 242 691 242 691 320 760 c 1,9,-1
 283 760 l 1,10,11
 210 695 210 695 157 580 c 0,12,13
 100 453 100 453 100 311 c 256,14,15
 100 169 100 169 157 43 c 0,16,17
 210 -73 210 -73 283 -138 c 1,18,-1
 320 -138 l 1,0,1
EndSplineSet
EndChar

StartChar: parenright
Encoding: 41 41 10
Width: 333
GlyphClass: 3
Flags: W
LayerCount: 2
Fore
SplineSet
50 -138 m 1,0,1
 123 -73 123 -73 177 43 c 0,2,3
 233 167 233 167 233 311 c 0,4,5
 233 454 233 454 177 580 c 0,6,7
 123 695 123 695 50 760 c 1,8,-1
 13 760 l 1,9,10
 91 691 91 691 145 578 c 128,-1,11
 199 465 199 465 199 334 c 2,12,-1
 199 288 l 2,13,14
 199 158 199 158 144.5 44.5 c 128,-1,15
 90 -69 90 -69 13 -138 c 1,16,-1
 50 -138 l 1,0,1
EndSplineSet
EndChar

StartChar: asterisk
Encoding: 42 42 11
Width: 383
Flags: W
LayerCount: 2
Fore
SplineSet
282 425 m 1,0,-1
 307 443 l 1,1,-1
 212 568 l 1,2,-1
 361 612 l 1,3,-1
 352 643 l 1,4,-1
 204 592 l 1,5,-1
 206 747 l 1,6,-1
 176 747 l 1,7,-1
 178 592 l 1,8,-1
 31 643 l 1,9,-1
 22 612 l 1,10,-1
 170 568 l 1,11,-1
 76 443 l 1,12,-1
 101 425 l 1,13,-1
 191 552 l 1,14,-1
 282 425 l 1,0,-1
EndSplineSet
EndChar

StartChar: plus
Encoding: 43 43 12
Width: 600
Flags: W
LayerCount: 2
Fore
SplineSet
317 62 m 1,0,-1
 317 290 l 1,1,-1
 537 290 l 1,2,-1
 537 321 l 1,3,-1
 317 321 l 1,4,-1
 317 549 l 1,5,-1
 283 549 l 1,6,-1
 283 321 l 1,7,-1
 63 321 l 1,8,-1
 63 290 l 1,9,-1
 283 290 l 1,10,-1
 283 62 l 1,11,-1
 317 62 l 1,0,-1
EndSplineSet
EndChar

StartChar: comma
Encoding: 44 44 13
Width: 248
GlyphClass: 3
Flags: W
LayerCount: 2
Fore
SplineSet
78 -144 m 1,0,1
 114 -111 114 -111 136.5 -65.5 c 128,-1,2
 159 -20 159 -20 159 22 c 2,3,-1
 159 34 l 2,4,5
 159 68 159 68 124 68 c 0,6,7
 88 68 88 68 88 36 c 2,8,-1
 88 24 l 2,9,10
 88 -4 88 -4 122 -6 c 1,11,12
 110 -81 110 -81 48 -144 c 1,13,-1
 78 -144 l 1,0,1
EndSplineSet
EndChar

StartChar: hyphen
Encoding: 45 45 14
Width: 396
Flags: W
LayerCount: 2
Fore
SplineSet
316 287 m 1,0,-1
 316 323 l 1,1,-1
 80 323 l 1,2,-1
 80 287 l 1,3,-1
 316 287 l 1,0,-1
EndSplineSet
EndChar

StartChar: period
Encoding: 46 46 15
Width: 248
Flags: W
LayerCount: 2
Fore
SplineSet
124 -7 m 0,0,1
 159 -7 159 -7 159 26 c 2,2,-1
 159 35 l 2,3,4
 159 65 159 65 124 68 c 0,5,6
 90 68 90 68 89 35 c 2,7,-1
 89 26 l 2,8,9
 89 -4 89 -4 124 -7 c 0,0,1
EndSplineSet
EndChar

StartChar: slash
Encoding: 47 47 16
Width: 330
GlyphClass: 3
Flags: W
LayerCount: 2
Fore
SplineSet
44 -151 m 1,0,-1
 288 740 l 1,1,-1
 256 740 l 1,2,-1
 12 -151 l 1,3,-1
 44 -151 l 1,0,-1
EndSplineSet
EndChar

StartChar: zero
Encoding: 48 48 17
Width: 600
GlyphClass: 5
Flags: W
LayerCount: 2
Fore
SplineSet
300 -12 m 256,0,1
 413 -12 413 -12 472.5 75 c 128,-1,2
 532 162 532 162 532 349 c 256,3,4
 532 536 532 536 472.5 623 c 128,-1,5
 413 710 413 710 300 710 c 256,6,7
 187 710 187 710 127.5 623 c 128,-1,8
 68 536 68 536 68 349 c 256,9,10
 68 162 68 162 127.5 75 c 128,-1,11
 187 -12 187 -12 300 -12 c 256,0,1
300 21 m 0,12,13
 108 21 108 21 108 311 c 2,14,-1
 108 387 l 2,15,16
 108 529 108 529 156 603 c 128,-1,17
 204 677 204 677 300 677 c 0,18,19
 492 677 492 677 492 387 c 2,20,-1
 492 311 l 2,21,22
 492 169 492 169 444 95 c 128,-1,23
 396 21 396 21 300 21 c 0,12,13
EndSplineSet
EndChar

StartChar: one
Encoding: 49 49 18
Width: 600
Flags: W
LayerCount: 2
Fore
SplineSet
362 0 m 1,0,-1
 325 0 l 1,1,-1
 325 662 l 1,2,-1
 175 575 l 1,3,-1
 175 613 l 1,4,-1
 322 698 l 1,5,-1
 362 698 l 1,6,-1
 362 0 l 1,0,-1
EndSplineSet
EndChar

StartChar: two
Encoding: 50 50 19
Width: 600
Flags: W
LayerCount: 2
Fore
SplineSet
524 0 m 1,0,-1
 524 33 l 1,1,-1
 125 33 l 1,2,-1
 366 270 l 2,3,4
 426 327 426 327 458.5 385 c 128,-1,5
 491 443 491 443 491 514 c 0,6,7
 491 605 491 605 440.5 657.5 c 128,-1,8
 390 710 390 710 294 710 c 0,9,10
 204 710 204 710 152.5 665.5 c 128,-1,11
 101 621 101 621 83 553 c 1,12,-1
 116 543 l 1,13,14
 156 677 156 677 293 677 c 0,15,16
 371 677 371 677 411.5 634.5 c 128,-1,17
 452 592 452 592 452 526 c 2,18,-1
 452 500 l 2,19,20
 452 400 452 400 343 294 c 2,21,-1
 84 37 l 1,22,-1
 84 0 l 1,23,-1
 524 0 l 1,0,-1
EndSplineSet
EndChar

StartChar: three
Encoding: 51 51 20
Width: 600
Flags: W
LayerCount: 2
Fore
SplineSet
279 -12 m 0,0,1
 377 -12 377 -12 435.5 42.5 c 128,-1,2
 494 97 494 97 494 188 c 0,3,4
 494 266 494 266 451.5 311 c 128,-1,5
 409 356 409 356 340 365 c 1,6,-1
 340 369 l 1,7,8
 402 381 402 381 440.5 422 c 128,-1,9
 479 463 479 463 479 536 c 0,10,11
 479 616 479 616 426 664 c 0,12,13
 371 710 371 710 285 710 c 0,14,15
 208 710 208 710 160 678 c 128,-1,16
 112 646 112 646 90 598 c 1,17,-1
 118 581 l 1,18,19
 141 626 141 626 180 651.5 c 128,-1,20
 219 677 219 677 285 677 c 0,21,22
 354 677 354 677 397 640.5 c 128,-1,23
 440 604 440 604 440 541 c 2,24,-1
 440 521 l 2,25,26
 440 461 440 461 394.5 421.5 c 128,-1,27
 349 382 349 382 275 382 c 2,28,-1
 186 382 l 1,29,-1
 186 350 l 1,30,-1
 278 350 l 2,31,32
 361 350 361 350 407.5 308.5 c 128,-1,33
 454 267 454 267 454 198 c 2,34,-1
 454 175 l 2,35,36
 454 105 454 105 406.5 63 c 128,-1,37
 359 21 359 21 279 21 c 0,38,39
 212 21 212 21 167 45 c 128,-1,40
 122 69 122 69 92 118 c 1,41,-1
 63 98 l 1,42,43
 98 45 98 45 150 16.5 c 128,-1,44
 202 -12 202 -12 279 -12 c 0,0,1
EndSplineSet
EndChar

StartChar: four
Encoding: 52 52 21
Width: 600
GlyphClass: 2
Flags: W
LayerCount: 2
Fore
SplineSet
437 0 m 1,0,-1
 437 155 l 1,1,-1
 551 155 l 1,2,-1
 551 186 l 1,3,-1
 437 186 l 1,4,-1
 437 698 l 1,5,-1
 389 698 l 1,6,-1
 45 188 l 1,7,-1
 45 155 l 1,8,-1
 403 155 l 1,9,-1
 403 0 l 1,10,-1
 437 0 l 1,0,-1
403 186 m 1,11,-1
 80 186 l 1,12,-1
 401 661 l 1,13,-1
 403 661 l 1,14,-1
 403 186 l 1,11,-1
EndSplineSet
EndChar

StartChar: five
Encoding: 53 53 22
Width: 600
Flags: W
LayerCount: 2
Fore
SplineSet
297 -12 m 0,0,1
 395 -12 395 -12 453 47.5 c 128,-1,2
 511 107 511 107 511 207 c 256,3,4
 511 307 511 307 457 362.5 c 128,-1,5
 403 418 403 418 308 418 c 0,6,7
 196 418 196 418 147 347 c 1,8,-1
 143 347 l 1,9,-1
 166 665 l 1,10,-1
 485 665 l 1,11,-1
 485 698 l 1,12,-1
 136 698 l 1,13,-1
 110 323 l 1,14,-1
 145 318 l 1,15,16
 172 352 172 352 207 369 c 128,-1,17
 242 386 242 386 302 386 c 0,18,19
 385 386 385 386 428.5 339.5 c 128,-1,20
 472 293 472 293 472 216 c 2,21,-1
 472 193 l 2,22,23
 472 116 472 116 426.5 68.5 c 128,-1,24
 381 21 381 21 297 21 c 0,25,26
 230 21 230 21 185.5 45 c 128,-1,27
 141 69 141 69 111 118 c 1,28,-1
 82 98 l 1,29,30
 151 -12 151 -12 297 -12 c 0,0,1
EndSplineSet
EndChar

StartChar: six
Encoding: 54 54 23
Width: 600
GlyphClass: 2
Flags: W
LayerCount: 2
Fore
SplineSet
300 -12 m 0,0,1
 398 -12 398 -12 457 48 c 128,-1,2
 516 108 516 108 516 208 c 0,3,4
 516 306 516 306 459 363.5 c 128,-1,5
 402 421 402 421 306 421 c 0,6,7
 180 421 180 421 126 316 c 1,8,-1
 123 317 l 1,9,10
 146 440 146 440 213 531 c 128,-1,11
 280 622 280 622 400 698 c 1,12,-1
 350 698 l 1,13,14
 239 631 239 631 162 515 c 0,15,16
 82 391 82 391 82 233 c 0,17,18
 82 127 82 127 137 57.5 c 128,-1,19
 192 -12 192 -12 300 -12 c 0,0,1
299 21 m 0,20,21
 217 21 217 21 169 69.5 c 128,-1,22
 121 118 121 118 121 194 c 2,23,-1
 121 218 l 2,24,25
 121 292 121 292 168 340.5 c 128,-1,26
 215 389 215 389 299 389 c 256,27,28
 383 389 383 389 430 340.5 c 128,-1,29
 477 292 477 292 477 218 c 2,30,-1
 477 192 l 2,31,32
 477 116 477 116 430 68.5 c 128,-1,33
 383 21 383 21 299 21 c 0,20,21
EndSplineSet
EndChar

StartChar: seven
Encoding: 55 55 24
Width: 600
Flags: W
LayerCount: 2
Fore
SplineSet
224 0 m 1,0,-1
 184 0 l 1,1,-1
 478 666 l 1,2,-1
 75 666 l 1,3,-1
 75 698 l 1,4,-1
 516 698 l 1,5,-1
 516 665 l 1,6,-1
 224 0 l 1,0,-1
EndSplineSet
EndChar

StartChar: eight
Encoding: 56 56 25
Width: 600
Flags: W
LayerCount: 2
Fore
SplineSet
300 -12 m 256,0,1
 408 -12 408 -12 469.5 42.5 c 128,-1,2
 531 97 531 97 531 182 c 0,3,4
 531 256 531 256 490.5 302.5 c 128,-1,5
 450 349 450 349 380 364 c 1,6,-1
 380 369 l 1,7,8
 508 403 508 403 508 535 c 0,9,10
 508 616 508 616 452.5 663 c 128,-1,11
 397 710 397 710 300 710 c 256,12,13
 203 710 203 710 147.5 663 c 128,-1,14
 92 616 92 616 92 535 c 0,15,16
 92 403 92 403 220 369 c 1,17,-1
 220 364 l 1,18,19
 150 349 150 349 109.5 302.5 c 128,-1,20
 69 256 69 256 69 182 c 0,21,22
 69 97 69 97 130.5 42.5 c 128,-1,23
 192 -12 192 -12 300 -12 c 256,0,1
300 21 m 256,24,25
 211 21 211 21 159.5 62.5 c 128,-1,26
 108 104 108 104 108 173 c 2,27,-1
 108 198 l 2,28,29
 108 267 108 267 159.5 308.5 c 128,-1,30
 211 350 211 350 300 350 c 256,31,32
 389 350 389 350 440.5 308.5 c 128,-1,33
 492 267 492 267 492 198 c 2,34,-1
 492 173 l 2,35,36
 492 104 492 104 440.5 62.5 c 128,-1,37
 389 21 389 21 300 21 c 256,24,25
300 382 m 256,38,39
 222 382 222 382 176.5 419 c 128,-1,40
 131 456 131 456 131 519 c 2,41,-1
 131 541 l 2,42,43
 131 604 131 604 176.5 640.5 c 128,-1,44
 222 677 222 677 300 677 c 256,45,46
 378 677 378 677 423.5 640.5 c 128,-1,47
 469 604 469 604 469 541 c 2,48,-1
 469 519 l 2,49,50
 469 456 469 456 423.5 419 c 128,-1,51
 378 382 378 382 300 382 c 256,38,39
EndSplineSet
EndChar

StartChar: nine
Encoding: 57 57 26
Width: 600
GlyphClass: 1
Flags: W
LayerCount: 2
Fore
SplineSet
253 0 m 1,0,1
 364 68 364 68 441 183 c 0,2,3
 520 308 520 308 520 465 c 0,4,5
 520 572 520 572 467 641 c 0,6,7
 410 710 410 710 302 710 c 0,8,9
 202 710 202 710 144 649 c 128,-1,10
 86 588 86 588 86 490 c 0,11,12
 86 390 86 390 143.5 333.5 c 128,-1,13
 201 277 201 277 297 277 c 0,14,15
 423 277 423 277 476 382 c 1,16,-1
 480 381 l 1,17,18
 456 259 456 259 389 168 c 128,-1,19
 322 77 322 77 203 0 c 1,20,-1
 253 0 l 1,0,1
303 309 m 256,21,22
 219 309 219 309 172 358 c 128,-1,23
 125 407 125 407 125 480 c 2,24,-1
 125 506 l 2,25,26
 125 580 125 580 172 628.5 c 128,-1,27
 219 677 219 677 303 677 c 0,28,29
 386 677 386 677 433.5 629 c 128,-1,30
 481 581 481 581 481 504 c 2,31,-1
 481 480 l 2,32,33
 481 407 481 407 434 358 c 128,-1,34
 387 309 387 309 303 309 c 256,21,22
EndSplineSet
EndChar

StartChar: colon
Encoding: 58 58 27
Width: 268
Flags: W
LayerCount: 2
Fore
SplineSet
134 -7 m 0,0,1
 169 -7 169 -7 169 26 c 2,2,-1
 169 35 l 2,3,4
 169 65 169 65 134 68 c 0,5,6
 100 68 100 68 99 35 c 2,7,-1
 99 26 l 2,8,9
 99 -4 99 -4 134 -7 c 0,0,1
134 425 m 0,10,11
 169 425 169 425 169 458 c 2,12,-1
 169 467 l 2,13,14
 169 497 169 497 134 500 c 0,15,16
 100 500 100 500 99 467 c 2,17,-1
 99 458 l 2,18,19
 99 428 99 428 134 425 c 0,10,11
EndSplineSet
EndChar

StartChar: semicolon
Encoding: 59 59 28
Width: 268
GlyphClass: 2
Flags: W
LayerCount: 2
Fore
SplineSet
88 -144 m 1,0,1
 124 -111 124 -111 146.5 -65.5 c 128,-1,2
 169 -20 169 -20 169 22 c 2,3,-1
 169 34 l 2,4,5
 169 68 169 68 134 68 c 0,6,7
 98 68 98 68 98 36 c 2,8,-1
 98 24 l 2,9,10
 98 -4 98 -4 132 -6 c 1,11,12
 120 -81 120 -81 58 -144 c 1,13,-1
 88 -144 l 1,0,1
134 425 m 0,14,15
 169 425 169 425 169 458 c 2,16,-1
 169 467 l 2,17,18
 169 497 169 497 134 500 c 0,19,20
 100 500 100 500 99 467 c 2,21,-1
 99 458 l 2,22,23
 99 428 99 428 134 425 c 0,14,15
EndSplineSet
EndChar

StartChar: less
Encoding: 60 60 29
Width: 600
Flags: W
LayerCount: 2
Fore
SplineSet
514 26 m 1,0,-1
 514 64 l 1,1,-1
 122 297 l 1,2,-1
 122 300 l 1,3,-1
 514 533 l 1,4,-1
 514 571 l 1,5,-1
 86 315 l 1,6,-1
 86 282 l 1,7,-1
 514 26 l 1,0,-1
EndSplineSet
EndChar

StartChar: equal
Encoding: 61 61 30
Width: 600
GlyphClass: 2
Flags: W
LayerCount: 2
Fore
SplineSet
537 382 m 1,0,-1
 537 413 l 1,1,-1
 63 413 l 1,2,-1
 63 382 l 1,3,-1
 537 382 l 1,0,-1
537 198 m 1,4,-1
 537 229 l 1,5,-1
 63 229 l 1,6,-1
 63 198 l 1,7,-1
 537 198 l 1,4,-1
EndSplineSet
EndChar

StartChar: greater
Encoding: 62 62 31
Width: 600
GlyphClass: 5
Flags: W
LayerCount: 2
Fore
SplineSet
86 26 m 1,0,-1
 514 282 l 1,1,-1
 514 315 l 1,2,-1
 86 571 l 1,3,-1
 86 533 l 1,4,-1
 478 300 l 1,5,-1
 478 297 l 1,6,-1
 86 64 l 1,7,-1
 86 26 l 1,0,-1
EndSplineSet
EndChar

StartChar: question
Encoding: 63 63 32
Width: 462
GlyphClass: 3
Flags: W
LayerCount: 2
Fore
SplineSet
230 184 m 1,0,-1
 230 327 l 1,1,2
 321 337 321 337 374 388 c 128,-1,3
 427 439 427 439 427 529 c 0,4,5
 427 611 427 611 376.5 660.5 c 128,-1,6
 326 710 326 710 238 710 c 0,7,8
 78 710 78 710 35 556 c 1,9,-1
 67 546 l 1,10,11
 102 678 102 678 237 678 c 0,12,13
 309 678 309 678 349 639.5 c 128,-1,14
 389 601 389 601 389 538 c 2,15,-1
 389 515 l 2,16,17
 389 444 389 444 338.5 400.5 c 128,-1,18
 288 357 288 357 194 354 c 1,19,-1
 194 184 l 1,20,-1
 230 184 l 1,0,-1
212 -7 m 0,21,22
 247 -7 247 -7 247 26 c 2,23,-1
 247 35 l 2,24,25
 247 68 247 68 212 68 c 0,26,27
 178 68 178 68 177 35 c 2,28,-1
 177 26 l 2,29,30
 177 -4 177 -4 212 -7 c 0,21,22
EndSplineSet
EndChar

StartChar: at
Encoding: 64 64 33
Width: 883
Flags: W
LayerCount: 2
Fore
SplineSet
677 -121 m 1,0,-1
 677 -93 l 1,1,-1
 442 -93 l 2,2,3
 294 -93 294 -93 197.5 8 c 128,-1,4
 101 109 101 109 101 271 c 2,5,-1
 101 325 l 2,6,7
 101 402 101 402 127 467.5 c 128,-1,8
 153 533 153 533 199 581 c 0,9,10
 297 682 297 682 445 682 c 0,11,12
 589 682 589 682 685 592 c 0,13,14
 730 549 730 549 756 488 c 128,-1,15
 782 427 782 427 782 353 c 2,16,-1
 782 306 l 2,17,18
 782 207 782 207 751.5 152 c 128,-1,19
 721 97 721 97 667 97 c 0,20,21
 601 97 601 97 598 171 c 2,22,-1
 598 497 l 1,23,-1
 566 497 l 1,24,-1
 566 433 l 1,25,-1
 563 433 l 1,26,27
 549 463 549 463 517.5 485.5 c 128,-1,28
 486 508 486 508 433 508 c 0,29,30
 354 508 354 508 307 453.5 c 128,-1,31
 260 399 260 399 260 287 c 0,32,33
 260 178 260 178 307 123.5 c 128,-1,34
 354 69 354 69 433 69 c 0,35,36
 528 69 528 69 566 150 c 1,37,-1
 569 150 l 1,38,39
 574 113 574 113 598.5 91 c 128,-1,40
 623 69 623 69 664 69 c 0,41,42
 741 69 741 69 779 145 c 0,43,44
 814 220 814 220 814 328 c 0,45,46
 814 423 814 423 784.5 494.5 c 128,-1,47
 755 566 755 566 703.5 614 c 128,-1,48
 652 662 652 662 585.5 686 c 128,-1,49
 519 710 519 710 445 710 c 0,50,51
 283 710 283 710 176 599 c 128,-1,52
 69 488 69 488 69 297 c 0,53,54
 69 103 69 103 176 -11 c 0,55,56
 282 -121 282 -121 442 -121 c 2,57,-1
 677 -121 l 1,0,-1
436 98 m 0,58,59
 367 98 367 98 332 142.5 c 128,-1,60
 297 187 297 187 297 263 c 2,61,-1
 297 311 l 2,62,63
 297 389 297 389 332 434 c 128,-1,64
 367 479 367 479 436 479 c 0,65,66
 490 479 490 479 528 446.5 c 128,-1,67
 566 414 566 414 566 360 c 2,68,-1
 566 217 l 2,69,70
 566 163 566 163 528 130.5 c 128,-1,71
 490 98 490 98 436 98 c 0,58,59
EndSplineSet
EndChar

StartChar: A
Encoding: 65 65 34
Width: 610
GlyphClass: 5
Flags: W
LayerCount: 2
Fore
SplineSet
580 0 m 1,0,-1
 329 698 l 1,1,-1
 281 698 l 1,2,-1
 30 0 l 1,3,-1
 68 0 l 1,4,-1
 149 227 l 1,5,-1
 460 227 l 1,6,-1
 541 0 l 1,7,-1
 580 0 l 1,0,-1
450 259 m 1,8,-1
 159 259 l 1,9,-1
 302 662 l 1,10,-1
 306 662 l 1,11,-1
 450 259 l 1,8,-1
EndSplineSet
EndChar

StartChar: B
Encoding: 66 66 35
Width: 624
GlyphClass: 7
Flags: W
LayerCount: 2
Fore
SplineSet
384 0 m 2,0,1
 468 0 468 0 513.5 52.5 c 128,-1,2
 559 105 559 105 559 192 c 0,3,4
 559 270 559 270 523.5 313.5 c 128,-1,5
 488 357 488 357 428 367 c 1,6,-1
 428 370 l 1,7,8
 529 398 529 398 529 526 c 0,9,10
 529 693 529 693 365 698 c 1,11,-1
 104 698 l 1,12,-1
 104 0 l 1,13,-1
 384 0 l 2,0,1
378 33 m 2,14,-1
 141 33 l 1,15,-1
 141 350 l 1,16,-1
 378 350 l 2,17,18
 446 350 446 350 485 309 c 0,19,20
 520 267 520 267 520 211 c 2,21,-1
 520 171 l 2,22,23
 520 116 520 116 485 74 c 0,24,25
 446 33 446 33 378 33 c 2,14,-1
362 382 m 2,26,-1
 141 382 l 1,27,-1
 141 665 l 1,28,-1
 362 665 l 2,29,30
 427 665 427 665 458.5 629.5 c 128,-1,31
 490 594 490 594 490 544 c 2,32,-1
 490 504 l 2,33,34
 490 455 490 455 456.5 418.5 c 128,-1,35
 423 382 423 382 362 382 c 2,26,-1
EndSplineSet
EndChar

StartChar: C
Encoding: 67 67 36
Width: 613
Flags: W
LayerCount: 2
Fore
SplineSet
331 -12 m 0,0,1
 414 -12 414 -12 471.5 29.5 c 128,-1,2
 529 71 529 71 558 142 c 1,3,-1
 528 158 l 1,4,5
 503 94 503 94 453.5 57.5 c 128,-1,6
 404 21 404 21 331 21 c 0,7,8
 226 21 226 21 166.5 96 c 128,-1,9
 107 171 107 171 107 320 c 2,10,-1
 107 376 l 2,11,12
 107 525 107 525 166.5 601 c 128,-1,13
 226 677 226 677 331 677 c 0,14,15
 399 677 399 677 447.5 643 c 128,-1,16
 496 609 496 609 522 548 c 1,17,-1
 553 565 l 1,18,19
 524 632 524 632 467.5 671 c 128,-1,20
 411 710 411 710 331 710 c 0,21,22
 205 710 205 710 136 619 c 128,-1,23
 67 528 67 528 67 348 c 256,24,25
 67 168 67 168 136 78 c 128,-1,26
 205 -12 205 -12 331 -12 c 0,0,1
EndSplineSet
EndChar

StartChar: D
Encoding: 68 68 37
Width: 661
Flags: W
LayerCount: 2
Fore
SplineSet
316 0 m 2,0,1
 592 0 592 0 594 349 c 0,2,3
 594 697 594 697 316 698 c 2,4,-1
 104 698 l 1,5,-1
 104 0 l 1,6,-1
 316 0 l 2,0,1
316 33 m 2,7,-1
 141 33 l 1,8,-1
 141 665 l 1,9,-1
 316 665 l 2,10,11
 436 665 436 665 495 589 c 128,-1,12
 554 513 554 513 554 385 c 2,13,-1
 554 313 l 2,14,15
 554 186 554 186 495 109.5 c 128,-1,16
 436 33 436 33 316 33 c 2,7,-1
EndSplineSet
EndChar

StartChar: E
Encoding: 69 69 38
Width: 566
Flags: W
LayerCount: 2
Fore
SplineSet
496 0 m 1,0,-1
 496 33 l 1,1,-1
 141 33 l 1,2,-1
 141 338 l 1,3,-1
 482 338 l 1,4,-1
 482 371 l 1,5,-1
 141 371 l 1,6,-1
 141 665 l 1,7,-1
 496 665 l 1,8,-1
 496 698 l 1,9,-1
 104 698 l 1,10,-1
 104 0 l 1,11,-1
 496 0 l 1,0,-1
EndSplineSet
EndChar

StartChar: F
Encoding: 70 70 39
Width: 541
GlyphClass: 2
Flags: W
LayerCount: 2
Fore
SplineSet
141 0 m 1,0,-1
 141 338 l 1,1,-1
 470 338 l 1,2,-1
 470 371 l 1,3,-1
 141 371 l 1,4,-1
 141 665 l 1,5,-1
 488 665 l 1,6,-1
 488 698 l 1,7,-1
 104 698 l 1,8,-1
 104 0 l 1,9,-1
 141 0 l 1,0,-1
EndSplineSet
EndChar

StartChar: G
Encoding: 71 71 40
Width: 673
Flags: W
LayerCount: 2
Fore
SplineSet
342 -12 m 0,0,1
 425 -12 425 -12 478.5 20.5 c 128,-1,2
 532 53 532 53 557 111 c 1,3,-1
 560 111 l 1,4,-1
 560 0 l 1,5,-1
 595 0 l 1,6,-1
 595 338 l 1,7,-1
 388 338 l 1,8,-1
 388 305 l 1,9,-1
 559 305 l 1,10,-1
 559 208 l 2,11,12
 559 118 559 118 495 68 c 0,13,14
 437 21 437 21 345 21 c 0,15,16
 233 21 233 21 170 97.5 c 128,-1,17
 107 174 107 174 107 320 c 2,18,-1
 107 379 l 2,19,20
 107 525 107 525 170.5 601 c 128,-1,21
 234 677 234 677 344 677 c 0,22,23
 487 677 487 677 548 548 c 1,24,-1
 578 565 l 1,25,26
 548 632 548 632 488.5 671 c 128,-1,27
 429 710 429 710 344 710 c 0,28,29
 212 710 212 710 139.5 619.5 c 128,-1,30
 67 529 67 529 67 349 c 256,31,32
 67 169 67 169 139 78.5 c 128,-1,33
 211 -12 211 -12 342 -12 c 0,0,1
EndSplineSet
EndChar

StartChar: H
Encoding: 72 72 41
Width: 695
GlyphClass: 5
Flags: W
LayerCount: 2
Fore
SplineSet
591 0 m 1,0,-1
 591 698 l 1,1,-1
 554 698 l 1,2,-1
 554 371 l 1,3,-1
 141 371 l 1,4,-1
 141 698 l 1,5,-1
 104 698 l 1,6,-1
 104 0 l 1,7,-1
 141 0 l 1,8,-1
 141 338 l 1,9,-1
 554 338 l 1,10,-1
 554 0 l 1,11,-1
 591 0 l 1,0,-1
EndSplineSet
EndChar

StartChar: I
Encoding: 73 73 42
Width: 245
Flags: W
LayerCount: 2
Fore
SplineSet
141 0 m 1,0,-1
 141 698 l 1,1,-1
 104 698 l 1,2,-1
 104 0 l 1,3,-1
 141 0 l 1,0,-1
EndSplineSet
EndChar

StartChar: J
Encoding: 74 74 43
Width: 475
GlyphClass: 2
Flags: W
LayerCount: 2
Fore
SplineSet
199 -12 m 0,0,1
 133 -12 133 -12 85.5 25 c 128,-1,2
 38 62 38 62 23 121 c 1,3,-1
 56 130 l 1,4,5
 70 82 70 82 106.5 51.5 c 128,-1,6
 143 21 143 21 200 21 c 0,7,8
 340 21 340 21 341 186 c 2,9,-1
 341 698 l 1,10,-1
 378 698 l 1,11,-1
 378 183 l 2,12,13
 378 88 378 88 330 38 c 128,-1,14
 282 -12 282 -12 199 -12 c 0,0,1
EndSplineSet
EndChar

StartChar: K
Encoding: 75 75 44
Width: 587
GlyphClass: 5
Flags: W
LayerCount: 2
Fore
SplineSet
566 0 m 1,0,-1
 293 402 l 1,1,-1
 560 698 l 1,2,-1
 514 698 l 1,3,-1
 143 284 l 1,4,-1
 141 284 l 1,5,-1
 141 698 l 1,6,-1
 104 698 l 1,7,-1
 104 0 l 1,8,-1
 141 0 l 1,9,-1
 141 238 l 1,10,-1
 268 377 l 1,11,-1
 522 0 l 1,12,-1
 566 0 l 1,0,-1
EndSplineSet
EndChar

StartChar: L
Encoding: 76 76 45
Width: 481
GlyphClass: 3
Flags: W
LayerCount: 2
Fore
SplineSet
460 0 m 1,0,-1
 460 33 l 1,1,-1
 141 33 l 1,2,-1
 141 698 l 1,3,-1
 104 698 l 1,4,-1
 104 0 l 1,5,-1
 460 0 l 1,0,-1
EndSplineSet
EndChar

StartChar: M
Encoding: 77 77 46
Width: 800
GlyphClass: 5
Flags: W
LayerCount: 2
Fore
SplineSet
696 0 m 1,0,-1
 696 698 l 1,1,-1
 645 698 l 1,2,-1
 403 288 l 1,3,-1
 399 288 l 1,4,-1
 156 698 l 1,5,-1
 104 698 l 1,6,-1
 104 0 l 1,7,-1
 140 0 l 1,8,-1
 140 652 l 1,9,-1
 144 652 l 1,10,-1
 400 220 l 1,11,-1
 656 653 l 1,12,-1
 660 653 l 1,13,-1
 660 0 l 1,14,-1
 696 0 l 1,0,-1
EndSplineSet
EndChar

StartChar: N
Encoding: 78 78 47
Width: 696
GlyphClass: 5
Flags: W
LayerCount: 2
Fore
SplineSet
592 0 m 1,0,-1
 592 698 l 1,1,-1
 556 698 l 1,2,-1
 556 48 l 1,3,-1
 553 48 l 1,4,-1
 153 698 l 1,5,-1
 104 698 l 1,6,-1
 104 0 l 1,7,-1
 140 0 l 1,8,-1
 140 650 l 1,9,-1
 143 650 l 1,10,-1
 542 0 l 1,11,-1
 592 0 l 1,0,-1
EndSplineSet
EndChar

StartChar: O
Encoding: 79 79 48
Width: 686
GlyphClass: 5
Flags: W
LayerCount: 2
Fore
SplineSet
343 -12 m 256,0,1
 474 -12 474 -12 546.5 78.5 c 128,-1,2
 619 169 619 169 619 349 c 256,3,4
 619 529 619 529 546.5 619.5 c 128,-1,5
 474 710 474 710 343 710 c 256,6,7
 212 710 212 710 139.5 619.5 c 128,-1,8
 67 529 67 529 67 349 c 256,9,10
 67 169 67 169 139.5 78.5 c 128,-1,11
 212 -12 212 -12 343 -12 c 256,0,1
343 21 m 256,12,13
 234 21 234 21 170.5 97 c 128,-1,14
 107 173 107 173 107 319 c 2,15,-1
 107 379 l 2,16,17
 107 525 107 525 170.5 601 c 128,-1,18
 234 677 234 677 343 677 c 256,19,20
 452 677 452 677 515.5 601 c 128,-1,21
 579 525 579 525 579 379 c 2,22,-1
 579 319 l 2,23,24
 579 173 579 173 515.5 97 c 128,-1,25
 452 21 452 21 343 21 c 256,12,13
EndSplineSet
EndChar

StartChar: P
Encoding: 80 80 49
Width: 597
GlyphClass: 3
Flags: W
LayerCount: 2
Fore
SplineSet
141 0 m 1,0,-1
 141 316 l 1,1,-1
 375 316 l 2,2,3
 463 316 463 316 508.5 367.5 c 128,-1,4
 554 419 554 419 554 507 c 256,5,6
 554 595 554 595 508.5 646.5 c 128,-1,7
 463 698 463 698 375 698 c 2,8,-1
 104 698 l 1,9,-1
 104 0 l 1,10,-1
 141 0 l 1,0,-1
375 349 m 2,11,-1
 141 349 l 1,12,-1
 141 665 l 1,13,-1
 375 665 l 2,14,15
 441 665 441 665 480 625 c 1,16,17
 514 583 514 583 514 529 c 2,18,-1
 514 485 l 2,19,20
 514 431 514 431 480 390 c 0,21,22
 441 349 441 349 375 349 c 2,11,-1
EndSplineSet
EndChar

StartChar: Q
Encoding: 81 81 50
Width: 688
GlyphClass: 3
Flags: W
LayerCount: 2
Fore
SplineSet
343 21 m 256,0,1
 234 21 234 21 170.5 97 c 128,-1,2
 107 173 107 173 107 319 c 2,3,-1
 107 379 l 2,4,5
 107 525 107 525 170.5 601 c 128,-1,6
 234 677 234 677 343 677 c 256,7,8
 452 677 452 677 515.5 601 c 128,-1,9
 579 525 579 525 579 379 c 2,10,-1
 579 319 l 2,11,12
 579 173 579 173 515.5 97 c 128,-1,13
 452 21 452 21 343 21 c 256,0,1
547 79 m 0,14,15
 619 169 619 169 619 349 c 256,16,17
 619 529 619 529 546.5 619.5 c 128,-1,18
 474 710 474 710 343 710 c 256,19,20
 212 710 212 710 139.5 619.5 c 128,-1,21
 67 529 67 529 67 349 c 256,22,23
 67 169 67 169 139.5 78.5 c 128,-1,24
 212 -12 212 -12 343 -12 c 0,25,26
 399 -12 399 -12 445 5 c 1,27,-1
 644 -110 l 1,28,-1
 663 -77 l 1,29,-1
 486 25 l 1,30,31
 520 46 520 46 547 79 c 0,14,15
EndSplineSet
EndChar

StartChar: R
Encoding: 82 82 51
Width: 632
GlyphClass: 5
Flags: W
LayerCount: 2
Fore
SplineSet
571 0 m 1,0,-1
 386 319 l 1,1,2
 469 324 469 324 511.5 373.5 c 128,-1,3
 554 423 554 423 554 508 c 0,4,5
 554 596 554 596 508.5 647 c 128,-1,6
 463 698 463 698 375 698 c 2,7,-1
 104 698 l 1,8,-1
 104 0 l 1,9,-1
 141 0 l 1,10,-1
 141 317 l 1,11,-1
 347 317 l 1,12,-1
 529 0 l 1,13,-1
 571 0 l 1,0,-1
375 349 m 2,14,-1
 141 349 l 1,15,-1
 141 665 l 1,16,-1
 375 665 l 2,17,18
 441 665 441 665 480 625 c 1,19,20
 514 583 514 583 514 529 c 2,21,-1
 514 485 l 2,22,23
 514 431 514 431 480 390 c 0,24,25
 441 349 441 349 375 349 c 2,14,-1
EndSplineSet
EndChar

StartChar: S
Encoding: 83 83 52
Width: 555
GlyphClass: 7
Flags: W
LayerCount: 2
Fore
SplineSet
279 -12 m 0,0,1
 381 -12 381 -12 440.5 38 c 128,-1,2
 500 88 500 88 500 183 c 0,3,4
 500 254 500 254 462 298 c 0,5,6
 422 346 422 346 317 369 c 2,7,-1
 250 382 l 1,8,9
 96 407 96 407 96 531 c 0,10,11
 96 605 96 605 143 641 c 128,-1,12
 190 677 190 677 274 677 c 0,13,14
 399 677 399 677 460 590 c 1,15,-1
 488 610 l 1,16,17
 422 710 422 710 276 710 c 0,18,19
 179 710 179 710 119 665 c 128,-1,20
 59 620 59 620 59 530 c 0,21,22
 59 385 59 385 242 348 c 2,23,-1
 309 335 l 2,24,25
 375 324 375 324 418 291 c 0,26,27
 463 253 463 253 463 180 c 0,28,29
 463 24 463 24 280 21 c 0,30,31
 204 21 204 21 155 49 c 128,-1,32
 106 77 106 77 70 126 c 1,33,-1
 42 104 l 1,34,35
 80 52 80 52 136.5 20 c 128,-1,36
 193 -12 193 -12 279 -12 c 0,0,1
EndSplineSet
EndChar

StartChar: T
Encoding: 84 84 53
Width: 563
GlyphClass: 1
Flags: W
LayerCount: 2
Fore
SplineSet
300 0 m 1,0,-1
 300 665 l 1,1,-1
 545 665 l 1,2,-1
 545 698 l 1,3,-1
 18 698 l 1,4,-1
 18 665 l 1,5,-1
 263 665 l 1,6,-1
 263 0 l 1,7,-1
 300 0 l 1,0,-1
EndSplineSet
EndChar

StartChar: U
Encoding: 85 85 54
Width: 658
Flags: W
LayerCount: 2
Fore
SplineSet
328 -12 m 0,0,1
 459 -12 459 -12 510 54 c 128,-1,2
 561 120 561 120 561 274 c 2,3,-1
 561 698 l 1,4,-1
 524 698 l 1,5,-1
 524 268 l 2,6,7
 524 202 524 202 514.5 155 c 128,-1,8
 505 108 505 108 482 78 c 0,9,10
 439 21 439 21 329 21 c 0,11,12
 217 21 217 21 176 78 c 0,13,14
 153 108 153 108 143.5 155 c 128,-1,15
 134 202 134 202 134 268 c 2,16,-1
 134 698 l 1,17,-1
 97 698 l 1,18,-1
 97 274 l 2,19,20
 97 120 97 120 147.5 54 c 128,-1,21
 198 -12 198 -12 328 -12 c 0,0,1
EndSplineSet
EndChar

StartChar: V
Encoding: 86 86 55
Width: 580
Flags: W
LayerCount: 2
Fore
SplineSet
313 0 m 1,0,-1
 552 698 l 1,1,-1
 513 698 l 1,2,-1
 292 39 l 1,3,-1
 288 39 l 1,4,-1
 68 698 l 1,5,-1
 28 698 l 1,6,-1
 265 0 l 1,7,-1
 313 0 l 1,0,-1
EndSplineSet
EndChar

StartChar: W
Encoding: 87 87 56
Width: 877
Flags: W
LayerCount: 2
Fore
SplineSet
665 0 m 1,0,-1
 849 698 l 1,1,-1
 811 698 l 1,2,-1
 643 48 l 1,3,-1
 640 48 l 1,4,-1
 462 698 l 1,5,-1
 414 698 l 1,6,-1
 236 48 l 1,7,-1
 233 48 l 1,8,-1
 67 698 l 1,9,-1
 28 698 l 1,10,-1
 210 0 l 1,11,-1
 255 0 l 1,12,-1
 436 657 l 1,13,-1
 439 657 l 1,14,-1
 619 0 l 1,15,-1
 665 0 l 1,0,-1
EndSplineSet
EndChar

StartChar: X
Encoding: 88 88 57
Width: 571
Flags: W
LayerCount: 2
Fore
SplineSet
544 0 m 1,0,-1
 309 357 l 1,1,-1
 536 698 l 1,2,-1
 493 698 l 1,3,-1
 287 386 l 1,4,-1
 285 386 l 1,5,-1
 79 698 l 1,6,-1
 35 698 l 1,7,-1
 263 354 l 1,8,-1
 27 0 l 1,9,-1
 70 0 l 1,10,-1
 285 325 l 1,11,-1
 287 325 l 1,12,-1
 500 0 l 1,13,-1
 544 0 l 1,0,-1
EndSplineSet
EndChar

StartChar: Y
Encoding: 89 89 58
Width: 557
Flags: W
LayerCount: 2
Fore
SplineSet
297 0 m 1,0,-1
 297 290 l 1,1,-1
 538 698 l 1,2,-1
 497 698 l 1,3,-1
 280 330 l 1,4,-1
 277 330 l 1,5,-1
 61 698 l 1,6,-1
 19 698 l 1,7,-1
 260 290 l 1,8,-1
 260 0 l 1,9,-1
 297 0 l 1,0,-1
EndSplineSet
EndChar

StartChar: Z
Encoding: 90 90 59
Width: 561
Flags: W
LayerCount: 2
Fore
SplineSet
531 0 m 1,0,-1
 531 33 l 1,1,-1
 78 33 l 1,2,-1
 512 663 l 1,3,-1
 512 698 l 1,4,-1
 61 698 l 1,5,-1
 61 665 l 1,6,-1
 472 665 l 1,7,-1
 38 35 l 1,8,-1
 38 0 l 1,9,-1
 531 0 l 1,0,-1
EndSplineSet
EndChar

StartChar: bracketleft
Encoding: 91 91 60
Width: 305
Flags: W
LayerCount: 2
Fore
SplineSet
238 -138 m 1,0,-1
 238 -109 l 1,1,-1
 136 -109 l 1,2,-1
 136 731 l 1,3,-1
 238 731 l 1,4,-1
 238 760 l 1,5,-1
 104 760 l 1,6,-1
 104 -138 l 1,7,-1
 238 -138 l 1,0,-1
EndSplineSet
EndChar

StartChar: backslash
Encoding: 92 92 61
Width: 330
Flags: W
LayerCount: 2
Fore
SplineSet
312 -151 m 1,0,-1
 72 740 l 1,1,-1
 40 740 l 1,2,-1
 280 -151 l 1,3,-1
 312 -151 l 1,0,-1
EndSplineSet
EndChar

StartChar: bracketright
Encoding: 93 93 62
Width: 305
Flags: W
LayerCount: 2
Fore
SplineSet
201 -138 m 1,0,-1
 201 760 l 1,1,-1
 67 760 l 1,2,-1
 67 731 l 1,3,-1
 169 731 l 1,4,-1
 169 -109 l 1,5,-1
 67 -109 l 1,6,-1
 67 -138 l 1,7,-1
 201 -138 l 1,0,-1
EndSplineSet
EndChar

StartChar: asciicircum
Encoding: 94 94 63
Width: 600
Flags: W
LayerCount: 2
Fore
SplineSet
508 316 m 1,0,-1
 536 331 l 1,1,-1
 319 698 l 1,2,-1
 281 698 l 1,3,-1
 64 331 l 1,4,-1
 92 316 l 1,5,-1
 299 664 l 1,6,-1
 301 664 l 1,7,-1
 508 316 l 1,0,-1
EndSplineSet
EndChar

StartChar: underscore
Encoding: 95 95 64
Width: 568
Flags: W
LayerCount: 2
Fore
SplineSet
538 -147 m 1,0,-1
 538 -117 l 1,1,-1
 30 -117 l 1,2,-1
 30 -147 l 1,3,-1
 538 -147 l 1,0,-1
EndSplineSet
EndChar

StartChar: grave
Encoding: 96 96 65
Width: 600
Flags: W
LayerCount: 2
Fore
SplineSet
311 587 m 1,0,-1
 335 600 l 1,1,-1
 230 758 l 1,2,-1
 198 740 l 1,3,-1
 311 587 l 1,0,-1
EndSplineSet
EndChar

StartChar: a
Encoding: 97 97 66
Width: 514
Flags: W
LayerCount: 2
Fore
SplineSet
222 -12 m 0,0,1
 143 -12 143 -12 100 26 c 128,-1,2
 57 64 57 64 57 133 c 0,3,4
 57 203 57 203 101 240 c 0,5,6
 145 280 145 280 254 280 c 2,7,-1
 387 280 l 1,8,-1
 387 348 l 2,9,10
 387 489 387 489 254 489 c 2,11,-1
 248 489 l 2,12,13
 142 489 142 489 100 399 c 1,14,-1
 75 416 l 1,15,16
 118 520 118 520 249 520 c 0,17,18
 419 520 419 520 422 352 c 2,19,-1
 422 0 l 1,20,-1
 388 0 l 1,21,-1
 388 79 l 1,22,-1
 384 79 l 1,23,24
 343 -12 343 -12 222 -12 c 0,0,1
225 19 m 0,25,26
 291 19 291 19 339 52.5 c 128,-1,27
 387 86 387 86 387 148 c 2,28,-1
 387 252 l 1,29,-1
 254 252 l 2,30,31
 170 252 170 252 132 223.5 c 128,-1,32
 94 195 94 195 94 148 c 2,33,-1
 94 120 l 2,34,35
 94 70 94 70 130.5 44.5 c 128,-1,36
 167 19 167 19 225 19 c 0,25,26
EndSplineSet
EndChar

StartChar: b
Encoding: 98 98 67
Width: 567
Flags: W
LayerCount: 2
Fore
SplineSet
299 -12 m 0,0,1
 399 -12 399 -12 454.5 55.5 c 128,-1,2
 510 123 510 123 510 254 c 256,3,4
 510 385 510 385 454.5 452.5 c 128,-1,5
 399 520 399 520 299 520 c 0,6,7
 235 520 235 520 195 493.5 c 128,-1,8
 155 467 155 467 138 429 c 1,9,-1
 135 429 l 1,10,-1
 135 740 l 1,11,-1
 100 740 l 1,12,-1
 100 0 l 1,13,-1
 135 0 l 1,14,-1
 135 79 l 1,15,-1
 138 79 l 1,16,17
 155 42 155 42 195 15 c 128,-1,18
 235 -12 235 -12 299 -12 c 0,0,1
294 20 m 0,19,20
 230 20 230 20 182.5 56.5 c 128,-1,21
 135 93 135 93 135 148 c 2,22,-1
 135 362 l 2,23,24
 135 418 135 418 182.5 453.5 c 128,-1,25
 230 489 230 489 294 489 c 0,26,27
 379 489 379 489 425.5 433.5 c 128,-1,28
 472 378 472 378 472 283 c 2,29,-1
 472 225 l 2,30,31
 472 130 472 130 425.5 75 c 128,-1,32
 379 20 379 20 294 20 c 0,19,20
EndSplineSet
EndChar

StartChar: c
Encoding: 99 99 68
Width: 491
Flags: W
LayerCount: 2
Fore
SplineSet
272 -12 m 0,0,1
 398 -12 398 -12 451 90 c 1,2,-1
 425 108 l 1,3,4
 402 66 402 66 365.5 42.5 c 128,-1,5
 329 19 329 19 272 19 c 0,6,7
 186 19 186 19 140.5 75 c 128,-1,8
 95 131 95 131 95 225 c 2,9,-1
 95 283 l 2,10,11
 95 377 95 377 140.5 433 c 128,-1,12
 186 489 186 489 272 489 c 0,13,14
 325 489 325 489 359 466 c 128,-1,15
 393 443 393 443 414 400 c 1,16,-1
 443 415 l 1,17,18
 393 520 393 520 272 520 c 0,19,20
 170 520 170 520 113.5 452.5 c 128,-1,21
 57 385 57 385 57 254 c 0,22,23
 57 124 57 124 113.5 56 c 128,-1,24
 170 -12 170 -12 272 -12 c 0,0,1
EndSplineSet
EndChar

StartChar: d
Encoding: 100 100 69
Width: 567
Flags: W
LayerCount: 2
Fore
SplineSet
268 -12 m 0,0,1
 332 -12 332 -12 372 15 c 128,-1,2
 412 42 412 42 429 79 c 1,3,-1
 432 79 l 1,4,-1
 432 0 l 1,5,-1
 467 0 l 1,6,-1
 467 740 l 1,7,-1
 432 740 l 1,8,-1
 432 429 l 1,9,-1
 429 429 l 1,10,11
 412 467 412 467 372 493.5 c 128,-1,12
 332 520 332 520 268 520 c 0,13,14
 168 520 168 520 112.5 452.5 c 128,-1,15
 57 385 57 385 57 254 c 256,16,17
 57 123 57 123 112.5 55.5 c 128,-1,18
 168 -12 168 -12 268 -12 c 0,0,1
273 20 m 0,19,20
 188 20 188 20 141.5 75 c 128,-1,21
 95 130 95 130 95 225 c 2,22,-1
 95 283 l 2,23,24
 95 378 95 378 141.5 433.5 c 128,-1,25
 188 489 188 489 273 489 c 0,26,27
 338 489 338 489 385 453.5 c 128,-1,28
 432 418 432 418 432 362 c 2,29,-1
 432 148 l 2,30,31
 432 93 432 93 385 55 c 0,32,33
 338 20 338 20 273 20 c 0,19,20
EndSplineSet
EndChar

StartChar: e
Encoding: 101 101 70
Width: 537
Flags: W
LayerCount: 2
Fore
SplineSet
275 -12 m 0,0,1
 348 -12 348 -12 397 23.5 c 128,-1,2
 446 59 446 59 469 120 c 1,3,-1
 442 135 l 1,4,5
 397 19 397 19 275 19 c 0,6,7
 190 19 190 19 142 75 c 128,-1,8
 94 131 94 131 94 225 c 2,9,-1
 94 252 l 1,10,-1
 480 252 l 1,11,-1
 480 268 l 2,12,13
 480 382 480 382 423 451 c 128,-1,14
 366 520 366 520 271 520 c 0,15,16
 171 520 171 520 114 451.5 c 128,-1,17
 57 383 57 383 57 254 c 0,18,19
 57 124 57 124 115.5 56 c 128,-1,20
 174 -12 174 -12 275 -12 c 0,0,1
442 280 m 1,21,-1
 94 280 l 1,22,23
 94 376 94 376 140.5 432.5 c 128,-1,24
 187 489 187 489 271 489 c 0,25,26
 348 489 348 489 395 433.5 c 128,-1,27
 442 378 442 378 442 280 c 1,21,-1
EndSplineSet
EndChar

StartChar: f
Encoding: 102 102 71
Width: 294
Flags: W
LayerCount: 2
Fore
SplineSet
156 0 m 1,0,-1
 156 477 l 1,1,-1
 270 477 l 1,2,-1
 270 508 l 1,3,-1
 156 508 l 1,4,-1
 156 709 l 1,5,-1
 270 709 l 1,6,-1
 270 740 l 1,7,-1
 170 740 l 2,8,9
 121 740 121 740 121 689 c 2,10,-1
 121 508 l 1,11,-1
 30 508 l 1,12,-1
 30 477 l 1,13,-1
 121 477 l 1,14,-1
 121 0 l 1,15,-1
 156 0 l 1,0,-1
EndSplineSet
EndChar

StartChar: g
Encoding: 103 103 72
Width: 528
Flags: W
LayerCount: 2
Fore
SplineSet
264 -212 m 0,0,1
 150 -212 150 -212 99 -177 c 128,-1,2
 48 -142 48 -142 48 -83 c 0,3,4
 48 3 48 3 143 33 c 1,5,-1
 143 37 l 1,6,7
 92 54 92 54 92 106 c 0,8,9
 92 168 92 168 178 193 c 1,10,-1
 178 196 l 1,11,12
 85 238 85 238 85 349 c 0,13,14
 85 427 85 427 133 473.5 c 128,-1,15
 181 520 181 520 263 520 c 0,16,17
 304 520 304 520 337 508 c 1,18,-1
 502 508 l 1,19,-1
 502 479 l 1,20,-1
 383 479 l 1,21,22
 416 450 416 450 429.5 418 c 128,-1,23
 443 386 443 386 443 349 c 0,24,25
 443 273 443 273 393.5 225.5 c 128,-1,26
 344 178 344 178 264 178 c 0,27,28
 242 178 242 178 209 185 c 1,29,30
 124 162 124 162 124 111 c 0,31,32
 124 59 124 59 209 59 c 2,33,-1
 338 59 l 2,34,35
 506 59 506 59 506 -63 c 0,36,37
 506 -212 506 -212 264 -212 c 0,0,1
264 209 m 256,38,39
 330 209 330 209 367 243 c 128,-1,40
 404 277 404 277 404 331 c 2,41,-1
 404 367 l 2,42,43
 404 421 404 421 367 455 c 128,-1,44
 330 489 330 489 264 489 c 0,45,46
 197 489 197 489 160.5 455 c 128,-1,47
 124 421 124 421 124 367 c 2,48,-1
 124 331 l 2,49,50
 124 277 124 277 161 243 c 128,-1,51
 198 209 198 209 264 209 c 256,38,39
291 -181 m 2,52,53
 373 -181 373 -181 422 -152.5 c 128,-1,54
 471 -124 471 -124 471 -65 c 0,55,56
 471 -22 471 -22 441.5 2 c 128,-1,57
 412 26 412 26 336 26 c 2,58,-1
 177 26 l 1,59,60
 83 1 83 1 83 -79 c 0,61,62
 83 -124 83 -124 123 -152.5 c 128,-1,63
 163 -181 163 -181 236 -181 c 2,64,-1
 291 -181 l 2,52,53
EndSplineSet
EndChar

StartChar: h
Encoding: 104 104 73
Width: 559
Flags: W
LayerCount: 2
Fore
SplineSet
467 0 m 1,0,-1
 467 326 l 2,1,2
 467 517 467 517 294 520 c 0,3,4
 228 520 228 520 190.5 494 c 128,-1,5
 153 468 153 468 138 430 c 1,6,-1
 135 430 l 1,7,-1
 135 740 l 1,8,-1
 100 740 l 1,9,-1
 100 0 l 1,10,-1
 135 0 l 1,11,-1
 135 361 l 2,12,13
 135 426 135 426 181.5 457.5 c 128,-1,14
 228 489 228 489 286 489 c 0,15,16
 432 489 432 489 432 320 c 2,17,-1
 432 0 l 1,18,-1
 467 0 l 1,0,-1
EndSplineSet
EndChar

StartChar: i
Encoding: 105 105 74
Width: 235
Flags: W
LayerCount: 2
Fore
SplineSet
118 665 m 0,0,1
 147 665 147 665 147 691 c 2,2,-1
 147 700 l 2,3,4
 147 726 147 726 117 726 c 0,5,6
 88 726 88 726 88 700 c 2,7,-1
 88 691 l 2,8,9
 88 665 88 665 118 665 c 0,0,1
135 0 m 1,10,-1
 135 508 l 1,11,-1
 100 508 l 1,12,-1
 100 0 l 1,13,-1
 135 0 l 1,10,-1
EndSplineSet
EndChar

StartChar: j
Encoding: 106 106 75
Width: 235
Flags: W
LayerCount: 2
Fore
SplineSet
87 -200 m 2,0,1
 135 -200 135 -200 135 -149 c 2,2,-1
 135 508 l 1,3,-1
 100 508 l 1,4,-1
 100 -169 l 1,5,-1
 15 -169 l 1,6,-1
 15 -200 l 1,7,-1
 87 -200 l 2,0,1
118 665 m 0,8,9
 147 665 147 665 147 691 c 2,10,-1
 147 700 l 2,11,12
 147 726 147 726 117 726 c 0,13,14
 88 726 88 726 88 700 c 2,15,-1
 88 691 l 2,16,17
 88 665 88 665 118 665 c 0,8,9
EndSplineSet
EndChar

StartChar: k
Encoding: 107 107 76
Width: 499
Flags: W
LayerCount: 2
Fore
SplineSet
480 0 m 1,0,-1
 246 297 l 1,1,-1
 455 508 l 1,2,-1
 411 508 l 1,3,-1
 138 232 l 1,4,-1
 135 232 l 1,5,-1
 135 740 l 1,6,-1
 100 740 l 1,7,-1
 100 0 l 1,8,-1
 135 0 l 1,9,-1
 135 189 l 1,10,-1
 221 274 l 1,11,-1
 437 0 l 1,12,-1
 480 0 l 1,0,-1
EndSplineSet
EndChar

StartChar: l
Encoding: 108 108 77
Width: 255
Flags: W
LayerCount: 2
Fore
SplineSet
218 0 m 1,0,-1
 218 31 l 1,1,-1
 135 31 l 1,2,-1
 135 740 l 1,3,-1
 100 740 l 1,4,-1
 100 42 l 2,5,6
 100 0 100 0 143 0 c 2,7,-1
 218 0 l 1,0,-1
EndSplineSet
EndChar

StartChar: m
Encoding: 109 109 78
Width: 878
Flags: W
LayerCount: 2
Fore
SplineSet
786 0 m 1,0,-1
 786 326 l 2,1,2
 786 517 786 517 614 520 c 0,3,4
 545 520 545 520 504.5 489.5 c 128,-1,5
 464 459 464 459 450 410 c 1,6,-1
 447 410 l 1,7,8
 408 520 408 520 288 520 c 0,9,10
 228 520 228 520 190 493.5 c 128,-1,11
 152 467 152 467 138 430 c 1,12,-1
 135 430 l 1,13,-1
 135 508 l 1,14,-1
 100 508 l 1,15,-1
 100 0 l 1,16,-1
 135 0 l 1,17,-1
 135 361 l 2,18,19
 135 426 135 426 179.5 457.5 c 128,-1,20
 224 489 224 489 282 489 c 0,21,22
 426 489 426 489 426 321 c 2,23,-1
 426 0 l 1,24,-1
 461 0 l 1,25,-1
 461 360 l 2,26,27
 461 425 461 425 505 457 c 128,-1,28
 549 489 549 489 607 489 c 0,29,30
 751 489 751 489 751 321 c 2,31,-1
 751 0 l 1,32,-1
 786 0 l 1,0,-1
EndSplineSet
EndChar

StartChar: n
Encoding: 110 110 79
Width: 559
Flags: W
LayerCount: 2
Fore
SplineSet
467 0 m 1,0,-1
 467 326 l 2,1,2
 467 517 467 517 294 520 c 0,3,4
 228 520 228 520 190.5 494 c 128,-1,5
 153 468 153 468 138 430 c 1,6,-1
 135 430 l 1,7,-1
 135 508 l 1,8,-1
 100 508 l 1,9,-1
 100 0 l 1,10,-1
 135 0 l 1,11,-1
 135 361 l 2,12,13
 135 426 135 426 181.5 457.5 c 128,-1,14
 228 489 228 489 286 489 c 0,15,16
 432 489 432 489 432 320 c 2,17,-1
 432 0 l 1,18,-1
 467 0 l 1,0,-1
EndSplineSet
EndChar

StartChar: o
Encoding: 111 111 80
Width: 544
Flags: W
LayerCount: 2
Fore
SplineSet
272 -12 m 256,0,1
 372 -12 372 -12 429.5 56 c 128,-1,2
 487 124 487 124 487 254 c 0,3,4
 487 385 487 385 429.5 452.5 c 128,-1,5
 372 520 372 520 272 520 c 256,6,7
 172 520 172 520 114.5 452.5 c 128,-1,8
 57 385 57 385 57 254 c 0,9,10
 57 124 57 124 114.5 56 c 128,-1,11
 172 -12 172 -12 272 -12 c 256,0,1
272 19 m 256,12,13
 187 19 187 19 141 74.5 c 128,-1,14
 95 130 95 130 95 227 c 2,15,-1
 95 281 l 2,16,17
 95 379 95 379 141 434 c 128,-1,18
 187 489 187 489 272 489 c 256,19,20
 357 489 357 489 403 434 c 128,-1,21
 449 379 449 379 449 281 c 2,22,-1
 449 227 l 2,23,24
 449 130 449 130 403 74.5 c 128,-1,25
 357 19 357 19 272 19 c 256,12,13
EndSplineSet
EndChar

StartChar: p
Encoding: 112 112 81
Width: 567
Flags: W
LayerCount: 2
Fore
SplineSet
135 -200 m 1,0,-1
 135 79 l 1,1,-1
 138 79 l 1,2,3
 155 42 155 42 195 15 c 128,-1,4
 235 -12 235 -12 299 -12 c 0,5,6
 399 -12 399 -12 454.5 55.5 c 128,-1,7
 510 123 510 123 510 254 c 256,8,9
 510 385 510 385 454.5 452.5 c 128,-1,10
 399 520 399 520 299 520 c 0,11,12
 235 520 235 520 195 493.5 c 128,-1,13
 155 467 155 467 138 429 c 1,14,-1
 135 429 l 1,15,-1
 135 508 l 1,16,-1
 100 508 l 1,17,-1
 100 -200 l 1,18,-1
 135 -200 l 1,0,-1
294 20 m 0,19,20
 230 20 230 20 182.5 56.5 c 128,-1,21
 135 93 135 93 135 148 c 2,22,-1
 135 362 l 2,23,24
 135 418 135 418 182.5 453.5 c 128,-1,25
 230 489 230 489 294 489 c 0,26,27
 379 489 379 489 425.5 433.5 c 128,-1,28
 472 378 472 378 472 283 c 2,29,-1
 472 225 l 2,30,31
 472 130 472 130 425.5 75 c 128,-1,32
 379 20 379 20 294 20 c 0,19,20
EndSplineSet
EndChar

StartChar: q
Encoding: 113 113 82
Width: 567
Flags: W
LayerCount: 2
Fore
SplineSet
467 -200 m 1,0,-1
 467 508 l 1,1,-1
 432 508 l 1,2,-1
 432 429 l 1,3,-1
 429 429 l 1,4,5
 412 467 412 467 372 493.5 c 128,-1,6
 332 520 332 520 268 520 c 0,7,8
 168 520 168 520 112.5 452.5 c 128,-1,9
 57 385 57 385 57 254 c 256,10,11
 57 123 57 123 112.5 55.5 c 128,-1,12
 168 -12 168 -12 268 -12 c 0,13,14
 332 -12 332 -12 372 15 c 128,-1,15
 412 42 412 42 429 79 c 1,16,-1
 432 79 l 1,17,-1
 432 -200 l 1,18,-1
 467 -200 l 1,0,-1
273 20 m 0,19,20
 188 20 188 20 141.5 75 c 128,-1,21
 95 130 95 130 95 225 c 2,22,-1
 95 283 l 2,23,24
 95 378 95 378 141.5 433.5 c 128,-1,25
 188 489 188 489 273 489 c 0,26,27
 338 489 338 489 385 453.5 c 128,-1,28
 432 418 432 418 432 362 c 2,29,-1
 432 148 l 2,30,31
 432 93 432 93 385 55 c 0,32,33
 338 20 338 20 273 20 c 0,19,20
EndSplineSet
EndChar

StartChar: r
Encoding: 114 114 83
Width: 347
Flags: W
LayerCount: 2
Fore
SplineSet
135 0 m 1,0,-1
 135 349 l 2,1,2
 135 411 135 411 181.5 443 c 128,-1,3
 228 475 228 475 289 475 c 2,4,-1
 333 475 l 1,5,-1
 333 508 l 1,6,-1
 295 508 l 2,7,8
 175 508 175 508 139 419 c 1,9,-1
 135 419 l 1,10,-1
 135 508 l 1,11,-1
 100 508 l 1,12,-1
 100 0 l 1,13,-1
 135 0 l 1,0,-1
EndSplineSet
EndChar

StartChar: s
Encoding: 115 115 84
Width: 468
Flags: W
LayerCount: 2
Fore
SplineSet
237 -12 m 0,0,1
 318 -12 318 -12 364 25.5 c 128,-1,2
 410 63 410 63 410 131 c 0,3,4
 410 196 410 196 372 229 c 128,-1,5
 334 262 334 262 262 272 c 2,6,-1
 219 279 l 2,7,8
 158 288 158 288 128 312 c 128,-1,9
 98 336 98 336 98 387 c 0,10,11
 98 437 98 437 133.5 463 c 128,-1,12
 169 489 169 489 229 489 c 0,13,14
 288 489 288 489 321 469 c 128,-1,15
 354 449 354 449 375 422 c 1,16,-1
 400 445 l 1,17,18
 374 476 374 476 334 498 c 128,-1,19
 294 520 294 520 230 520 c 0,20,21
 160 520 160 520 112 486 c 128,-1,22
 64 452 64 452 64 386 c 0,23,24
 64 319 64 319 105 288 c 0,25,26
 145 256 145 256 213 246 c 2,27,-1
 256 239 l 2,28,29
 317 230 317 230 346.5 204.5 c 128,-1,30
 376 179 376 179 376 128 c 0,31,32
 376 22 376 22 238 19 c 0,33,34
 130 19 130 19 73 103 c 1,35,-1
 46 83 l 1,36,37
 111 -12 111 -12 237 -12 c 0,0,1
EndSplineSet
EndChar

StartChar: t
Encoding: 116 116 85
Width: 320
Flags: W
LayerCount: 2
Fore
SplineSet
268 0 m 1,0,-1
 268 31 l 1,1,-1
 157 31 l 1,2,-1
 157 477 l 1,3,-1
 276 477 l 1,4,-1
 276 508 l 1,5,-1
 157 508 l 1,6,-1
 157 652 l 1,7,-1
 124 652 l 1,8,-1
 124 539 l 2,9,10
 124 522 124 522 118.5 515 c 128,-1,11
 113 508 113 508 96 508 c 2,12,-1
 30 508 l 1,13,-1
 30 477 l 1,14,-1
 122 477 l 1,15,-1
 122 42 l 2,16,17
 122 0 122 0 165 0 c 2,18,-1
 268 0 l 1,0,-1
EndSplineSet
EndChar

StartChar: u
Encoding: 117 117 86
Width: 559
Flags: W
LayerCount: 2
Fore
SplineSet
265 -12 m 0,0,1
 333 -12 333 -12 369.5 15 c 128,-1,2
 406 42 406 42 420 78 c 1,3,-1
 424 78 l 1,4,-1
 424 0 l 1,5,-1
 459 0 l 1,6,-1
 459 508 l 1,7,-1
 424 508 l 1,8,-1
 424 148 l 2,9,10
 424 82 424 82 378 50.5 c 128,-1,11
 332 19 332 19 273 19 c 0,12,13
 126 19 126 19 126 188 c 2,14,-1
 126 508 l 1,15,-1
 91 508 l 1,16,-1
 91 182 l 2,17,18
 91 -8 91 -8 265 -12 c 0,0,1
EndSplineSet
EndChar

StartChar: v
Encoding: 118 118 87
Width: 461
Flags: W
LayerCount: 2
Fore
SplineSet
251 0 m 1,0,-1
 438 508 l 1,1,-1
 403 508 l 1,2,-1
 233 38 l 1,3,-1
 230 38 l 1,4,-1
 60 508 l 1,5,-1
 23 508 l 1,6,-1
 210 0 l 1,7,-1
 251 0 l 1,0,-1
EndSplineSet
EndChar

StartChar: w
Encoding: 119 119 88
Width: 735
Flags: W
LayerCount: 2
Fore
SplineSet
551 0 m 1,0,-1
 701 508 l 1,1,-1
 667 508 l 1,2,-1
 532 36 l 1,3,-1
 529 36 l 1,4,-1
 385 508 l 1,5,-1
 351 508 l 1,6,-1
 208 36 l 1,7,-1
 205 36 l 1,8,-1
 70 508 l 1,9,-1
 34 508 l 1,10,-1
 184 0 l 1,11,-1
 227 0 l 1,12,-1
 366 456 l 1,13,-1
 369 456 l 1,14,-1
 508 0 l 1,15,-1
 551 0 l 1,0,-1
EndSplineSet
EndChar

StartChar: x
Encoding: 120 120 89
Width: 479
Flags: W
LayerCount: 2
Fore
SplineSet
448 0 m 1,0,-1
 260 258 l 1,1,-1
 443 508 l 1,2,-1
 403 508 l 1,3,-1
 241 285 l 1,4,-1
 239 285 l 1,5,-1
 78 508 l 1,6,-1
 37 508 l 1,7,-1
 220 256 l 1,8,-1
 31 0 l 1,9,-1
 71 0 l 1,10,-1
 239 229 l 1,11,-1
 241 229 l 1,12,-1
 407 0 l 1,13,-1
 448 0 l 1,0,-1
EndSplineSet
EndChar

StartChar: y
Encoding: 121 121 90
Width: 462
Flags: W
LayerCount: 2
Fore
SplineSet
138 -200 m 2,0,1
 160 -200 160 -200 171 -192.5 c 128,-1,2
 182 -185 182 -185 190 -167 c 2,3,-1
 438 508 l 1,4,-1
 403 508 l 1,5,-1
 233 38 l 1,6,-1
 230 38 l 1,7,-1
 60 508 l 1,8,-1
 23 508 l 1,9,-1
 214 -10 l 1,10,-1
 154 -169 l 1,11,-1
 64 -169 l 1,12,-1
 64 -200 l 1,13,-1
 138 -200 l 2,0,1
EndSplineSet
EndChar

StartChar: z
Encoding: 122 122 91
Width: 428
Flags: W
LayerCount: 2
Fore
SplineSet
404 0 m 1,0,-1
 404 31 l 1,1,-1
 67 31 l 1,2,-1
 395 478 l 1,3,-1
 395 508 l 1,4,-1
 38 508 l 1,5,-1
 38 477 l 1,6,-1
 355 477 l 1,7,-1
 28 32 l 1,8,-1
 28 0 l 1,9,-1
 404 0 l 1,0,-1
EndSplineSet
EndChar

StartChar: braceleft
Encoding: 123 123 92
Width: 322
Flags: W
LayerCount: 2
Fore
SplineSet
256 -138 m 1,0,-1
 256 -109 l 1,1,-1
 153 -109 l 1,2,-1
 153 195 l 2,3,4
 153 242 153 242 127 271 c 128,-1,5
 101 300 101 300 55 303 c 1,6,-1
 55 319 l 1,7,8
 101 322 101 322 127 351 c 128,-1,9
 153 380 153 380 153 427 c 2,10,-1
 153 731 l 1,11,-1
 256 731 l 1,12,-1
 256 760 l 1,13,-1
 159 760 l 2,14,15
 122 760 122 760 121 721 c 2,16,-1
 121 425 l 2,17,18
 121 339 121 339 24 339 c 1,19,-1
 24 283 l 1,20,21
 121 283 121 283 121 197 c 2,22,-1
 121 -99 l 2,23,24
 121 -138 121 -138 159 -138 c 2,25,-1
 256 -138 l 1,0,-1
EndSplineSet
EndChar

StartChar: bar
Encoding: 124 124 93
Width: 255
Flags: W
LayerCount: 2
Fore
SplineSet
143 -138 m 1,0,-1
 143 760 l 1,1,-1
 112 760 l 1,2,-1
 112 -138 l 1,3,-1
 143 -138 l 1,0,-1
EndSplineSet
EndChar

StartChar: braceright
Encoding: 125 125 94
Width: 322
Flags: W
LayerCount: 2
Fore
SplineSet
163 -138 m 2,0,1
 201 -138 201 -138 201 -99 c 2,2,-1
 201 197 l 2,3,4
 201 283 201 283 298 283 c 1,5,-1
 298 339 l 1,6,7
 201 339 201 339 201 425 c 2,8,-1
 201 721 l 2,9,10
 201 760 201 760 163 760 c 2,11,-1
 66 760 l 1,12,-1
 66 731 l 1,13,-1
 169 731 l 1,14,-1
 169 427 l 2,15,16
 169 380 169 380 195.5 351 c 128,-1,17
 222 322 222 322 267 319 c 1,18,-1
 267 303 l 1,19,20
 222 300 222 300 195.5 271 c 128,-1,21
 169 242 169 242 169 195 c 2,22,-1
 169 -109 l 1,23,-1
 66 -109 l 1,24,-1
 66 -138 l 1,25,-1
 163 -138 l 2,0,1
EndSplineSet
EndChar

StartChar: asciitilde
Encoding: 126 126 95
Width: 600
Flags: W
LayerCount: 2
Fore
SplineSet
423 252 m 0,0,1
 459 252 459 252 485.5 264 c 128,-1,2
 512 276 512 276 536 301 c 1,3,-1
 518 323 l 1,4,5
 481 283 481 283 425 283 c 0,6,7
 387 283 387 283 343 303 c 2,8,-1
 307 319 l 2,9,10
 265 338 265 338 236 347.5 c 128,-1,11
 207 357 207 357 177 357 c 0,12,13
 141 357 141 357 114.5 345 c 128,-1,14
 88 333 88 333 64 308 c 1,15,-1
 82 286 l 1,16,17
 120 326 120 326 175 326 c 0,18,19
 204 326 204 326 229 317 c 0,20,21
 250 310 250 310 279 296 c 0,22,23
 337 270 337 270 365 261 c 128,-1,24
 393 252 393 252 423 252 c 0,0,1
EndSplineSet
EndChar

StartChar: exclamdown
Encoding: 161 161 97
Width: 260
Flags: W
LayerCount: 2
Fore
SplineSet
148 -190 m 1,0,-1
 148 74 l 1,1,-1
 139 330 l 1,2,-1
 120 330 l 1,3,-1
 111 74 l 1,4,-1
 111 -190 l 1,5,-1
 148 -190 l 1,0,-1
130 440 m 256,6,7
 165 440 165 440 165 473 c 2,8,-1
 165 482 l 2,9,10
 165 515 165 515 130 515 c 0,11,12
 96 515 96 515 95 482 c 2,13,-1
 95 473 l 2,14,15
 95 440 95 440 130 440 c 256,6,7
EndSplineSet
EndChar

StartChar: cent
Encoding: 162 162 98
Width: 492
Flags: W
LayerCount: 2
Fore
SplineSet
281 -114 m 1,0,-1
 281 -12 l 1,1,2
 406 -4 406 -4 452 90 c 1,3,-1
 426 108 l 1,4,5
 384 25 384 25 280 20 c 1,6,-1
 280 489 l 1,7,8
 374 485 374 485 414 401 c 1,9,-1
 443 416 l 1,10,11
 399 511 399 511 281 520 c 1,12,-1
 281 622 l 1,13,-1
 249 622 l 1,14,-1
 249 519 l 1,15,16
 57 500 57 500 57 254 c 0,17,18
 57 131 57 131 106.5 64 c 128,-1,19
 156 -3 156 -3 249 -11 c 1,20,-1
 249 -114 l 1,21,-1
 281 -114 l 1,0,-1
249 21 m 1,22,23
 174 29 174 29 134.5 83 c 128,-1,24
 95 137 95 137 95 225 c 2,25,-1
 95 283 l 2,26,27
 95 371 95 371 134.5 425.5 c 128,-1,28
 174 480 174 480 249 487 c 1,29,-1
 249 21 l 1,22,23
EndSplineSet
EndChar

StartChar: sterling
Encoding: 163 163 99
Width: 583
Flags: W
LayerCount: 2
Fore
SplineSet
516 0 m 1,0,-1
 516 33 l 1,1,-1
 120 33 l 1,2,-1
 120 36 l 1,3,4
 209 107 209 107 209 227 c 0,5,6
 209 269 209 269 198 306 c 1,7,-1
 407 306 l 1,8,-1
 407 337 l 1,9,-1
 189 337 l 1,10,-1
 161 418 l 2,11,12
 147 457 147 457 147 505 c 0,13,14
 147 588 147 588 195 632.5 c 128,-1,15
 243 677 243 677 322 677 c 0,16,17
 435 677 435 677 495 574 c 1,18,-1
 525 593 l 1,19,20
 456 710 456 710 322 710 c 0,21,22
 228 710 228 710 168.5 656 c 128,-1,23
 109 602 109 602 109 507 c 0,24,25
 109 458 109 458 124 418 c 2,26,-1
 152 337 l 1,27,-1
 68 337 l 1,28,-1
 68 306 l 1,29,-1
 161 306 l 1,30,31
 173 268 173 268 173 224 c 0,32,33
 173 164 173 164 149 118 c 128,-1,34
 125 72 125 72 83 43 c 1,35,-1
 83 0 l 1,36,-1
 516 0 l 1,0,-1
EndSplineSet
EndChar

StartChar: yen
Encoding: 165 165 100
Width: 586
Flags: W
LayerCount: 2
Fore
SplineSet
311 0 m 1,0,-1
 311 163 l 1,1,-1
 504 163 l 1,2,-1
 504 193 l 1,3,-1
 311 193 l 1,4,-1
 311 321 l 1,5,-1
 504 321 l 1,6,-1
 504 351 l 1,7,-1
 330 351 l 1,8,-1
 541 698 l 1,9,-1
 501 698 l 1,10,-1
 296 356 l 1,11,-1
 292 356 l 1,12,-1
 86 698 l 1,13,-1
 45 698 l 1,14,-1
 256 351 l 1,15,-1
 82 351 l 1,16,-1
 82 321 l 1,17,-1
 275 321 l 1,18,-1
 275 193 l 1,19,-1
 82 193 l 1,20,-1
 82 163 l 1,21,-1
 275 163 l 1,22,-1
 275 0 l 1,23,-1
 311 0 l 1,0,-1
EndSplineSet
EndChar

StartChar: brokenbar
Encoding: 166 166 101
Width: 255
Flags: W
LayerCount: 2
Fore
SplineSet
143 402 m 1,0,-1
 143 760 l 1,1,-1
 112 760 l 1,2,-1
 112 402 l 1,3,-1
 143 402 l 1,0,-1
143 -138 m 1,4,-1
 143 220 l 1,5,-1
 112 220 l 1,6,-1
 112 -138 l 1,7,-1
 143 -138 l 1,4,-1
EndSplineSet
EndChar

StartChar: section
Encoding: 167 167 102
Width: 570
Flags: W
LayerCount: 2
Fore
SplineSet
354 125 m 1,0,1
 333 134 333 134 329 135 c 0,2,3
 320 137 320 137 311 141 c 2,4,-1
 246 161 l 2,5,6
 182 180 182 180 150 210 c 128,-1,7
 118 240 118 240 118 296 c 0,8,9
 118 387 118 387 215 431 c 1,10,11
 237 421 237 421 258 415 c 2,12,-1
 323 395 l 2,13,14
 387 376 387 376 419 345.5 c 128,-1,15
 451 315 451 315 451 260 c 0,16,17
 451 169 451 169 354 125 c 1,0,1
271 -154 m 0,18,19
 348 -154 348 -154 399 -117.5 c 128,-1,20
 450 -81 450 -81 450 -9 c 0,21,22
 450 71 450 71 376 114 c 1,23,-1
 376 117 l 1,24,25
 486 160 486 160 486 266 c 0,26,27
 486 330 486 330 448.5 366 c 128,-1,28
 411 402 411 402 339 423 c 2,29,-1
 273 445 l 2,30,31
 223 458 223 458 188.5 487.5 c 128,-1,32
 154 517 154 517 154 565 c 0,33,34
 154 621 154 621 192 650 c 128,-1,35
 230 679 230 679 297 679 c 0,36,37
 382 679 382 679 434 629 c 1,38,-1
 455 654 l 1,39,40
 399 710 399 710 298 710 c 0,41,42
 222 710 222 710 170.5 673.5 c 128,-1,43
 119 637 119 637 119 565 c 0,44,45
 119 487 119 487 193 442 c 1,46,-1
 193 438 l 1,47,48
 84 395 84 395 84 290 c 0,49,50
 84 226 84 226 121.5 190 c 128,-1,51
 159 154 159 154 230 132 c 2,52,-1
 296 111 l 2,53,54
 346 96 346 96 380 69 c 0,55,56
 415 38 415 38 415 -9 c 0,57,58
 415 -65 415 -65 377 -94 c 128,-1,59
 339 -123 339 -123 272 -123 c 0,60,61
 187 -123 187 -123 135 -74 c 1,62,-1
 114 -98 l 1,63,64
 170 -154 170 -154 271 -154 c 0,18,19
EndSplineSet
EndChar

StartChar: dieresis
Encoding: 168 168 103
Width: 600
Flags: W
LayerCount: 2
Fore
SplineSet
209 636 m 0,0,1
 238 636 238 636 238 663 c 2,2,-1
 238 671 l 2,3,4
 238 698 238 698 209 698 c 0,5,6
 179 698 179 698 179 671 c 2,7,-1
 179 663 l 2,8,9
 179 636 179 636 209 636 c 0,0,1
391 636 m 0,10,11
 421 636 421 636 421 663 c 2,12,-1
 421 671 l 2,13,14
 421 698 421 698 391 698 c 0,15,16
 362 698 362 698 362 671 c 2,17,-1
 362 663 l 2,18,19
 362 636 362 636 391 636 c 0,10,11
EndSplineSet
EndChar

StartChar: copyright
Encoding: 169 169 104
Width: 724
Flags: W
LayerCount: 2
Fore
SplineSet
362 -12 m 0,0,1
 505 -12 505 -12 595.5 87 c 128,-1,2
 686 186 686 186 686 349 c 0,3,4
 686 513 686 513 595.5 611.5 c 128,-1,5
 505 710 505 710 362 710 c 0,6,7
 220 710 220 710 129 611.5 c 128,-1,8
 38 513 38 513 38 349 c 256,9,10
 38 185 38 185 129 86.5 c 128,-1,11
 220 -12 220 -12 362 -12 c 0,0,1
362 16 m 0,12,13
 232 16 232 16 151.5 104.5 c 128,-1,14
 71 193 71 193 71 325 c 2,15,-1
 71 373 l 2,16,17
 71 505 71 505 151.5 593.5 c 128,-1,18
 232 682 232 682 362 682 c 0,19,20
 490 682 490 682 573 594 c 0,21,22
 653 505 653 505 653 373 c 2,23,-1
 653 325 l 2,24,25
 653 193 653 193 573 104.5 c 128,-1,26
 493 16 493 16 362 16 c 0,12,13
362 150 m 0,27,28
 411 150 411 150 444.5 173 c 128,-1,29
 478 196 478 196 493 232 c 1,30,-1
 469 246 l 1,31,32
 440 178 440 178 362 178 c 0,33,34
 307 178 307 178 274.5 216 c 128,-1,35
 242 254 242 254 242 331 c 2,36,-1
 242 362 l 2,37,38
 242 437 242 437 274.5 476 c 128,-1,39
 307 515 307 515 363 515 c 0,40,41
 436 515 436 515 463 449 c 1,42,-1
 489 461 l 1,43,44
 475 497 475 497 444 520 c 128,-1,45
 413 543 413 543 363 543 c 0,46,47
 292 543 292 543 250.5 492.5 c 128,-1,48
 209 442 209 442 209 347 c 0,49,50
 209 251 209 251 250 200.5 c 128,-1,51
 291 150 291 150 362 150 c 0,27,28
EndSplineSet
EndChar

StartChar: ordfeminine
Encoding: 170 170 105
Width: 344
Flags: W
LayerCount: 2
Fore
SplineSet
149 363 m 0,0,1
 95 363 95 363 67.5 387.5 c 128,-1,2
 40 412 40 412 40 453 c 0,3,4
 40 549 40 549 172 549 c 2,5,-1
 262 549 l 1,6,-1
 262 598 l 2,7,8
 262 685 262 685 169 685 c 0,9,10
 98 685 98 685 72 628 c 1,11,-1
 50 642 l 1,12,13
 81 710 81 710 170 710 c 0,14,15
 227 710 227 710 259.5 681.5 c 128,-1,16
 292 653 292 653 292 601 c 2,17,-1
 292 370 l 1,18,-1
 263 370 l 1,19,-1
 263 419 l 1,20,-1
 261 419 l 1,21,22
 233 363 233 363 149 363 c 0,0,1
152 388 m 0,23,24
 196 388 196 388 229 407.5 c 128,-1,25
 262 427 262 427 262 467 c 2,26,-1
 262 525 l 1,27,-1
 171 525 l 2,28,29
 71 525 71 525 71 461 c 2,30,-1
 71 449 l 2,31,32
 71 389 71 389 152 388 c 0,23,24
EndSplineSet
EndChar

StartChar: guillemotleft
Encoding: 171 171 106
Width: 482
Flags: W
LayerCount: 2
Fore
SplineSet
231 100 m 1,0,-1
 244 124 l 1,1,-1
 71 292 l 1,2,-1
 244 459 l 1,3,-1
 231 483 l 1,4,-1
 34 308 l 1,5,-1
 34 275 l 1,6,-1
 231 100 l 1,0,-1
417 100 m 1,7,-1
 430 124 l 1,8,-1
 257 292 l 1,9,-1
 430 459 l 1,10,-1
 417 483 l 1,11,-1
 220 308 l 1,12,-1
 220 275 l 1,13,-1
 417 100 l 1,7,-1
EndSplineSet
EndChar

StartChar: logicalnot
Encoding: 172 172 107
Width: 600
Flags: W
LayerCount: 2
Fore
SplineSet
525 98 m 1,0,-1
 525 321 l 1,1,-1
 63 321 l 1,2,-1
 63 290 l 1,3,-1
 492 290 l 1,4,-1
 492 98 l 1,5,-1
 525 98 l 1,0,-1
EndSplineSet
EndChar

StartChar: sfthyphen
Encoding: 173 173 108
Width: 396
Flags: W
LayerCount: 2
Fore
SplineSet
316 287 m 1,0,-1
 316 323 l 1,1,-1
 80 323 l 1,2,-1
 80 287 l 1,3,-1
 316 287 l 1,0,-1
EndSplineSet
EndChar

StartChar: registered
Encoding: 174 174 109
Width: 468
Flags: W
LayerCount: 2
Fore
SplineSet
234 298 m 0,0,1
 320 298 320 298 376 356 c 128,-1,2
 432 414 432 414 432 504 c 256,3,4
 432 594 432 594 376 652 c 128,-1,5
 320 710 320 710 234 710 c 0,6,7
 150 710 150 710 93 652 c 128,-1,8
 36 594 36 594 36 504 c 256,9,10
 36 414 36 414 93 356 c 128,-1,11
 150 298 150 298 234 298 c 0,0,1
234 320 m 0,12,13
 158 320 158 320 109.5 370.5 c 128,-1,14
 61 421 61 421 61 494 c 2,15,-1
 61 514 l 2,16,17
 61 588 61 588 109.5 638 c 128,-1,18
 158 688 158 688 234 688 c 0,19,20
 308 688 308 688 357.5 638 c 128,-1,21
 407 588 407 588 407 514 c 2,22,-1
 407 494 l 2,23,24
 407 421 407 421 357.5 370.5 c 128,-1,25
 308 320 308 320 234 320 c 0,12,13
320 397 m 1,26,-1
 267 487 l 1,27,28
 313 494 313 494 313 546 c 0,29,30
 313 608 313 608 250 608 c 2,31,-1
 167 608 l 1,32,-1
 167 397 l 1,33,-1
 189 397 l 1,34,-1
 189 485 l 1,35,-1
 245 485 l 1,36,-1
 295 397 l 1,37,-1
 320 397 l 1,26,-1
249 504 m 2,38,-1
 189 504 l 1,39,-1
 189 589 l 1,40,-1
 249 589 l 2,41,42
 289 589 289 589 289 554 c 2,43,-1
 289 541 l 2,44,45
 289 504 289 504 249 504 c 2,38,-1
EndSplineSet
EndChar

StartChar: macron
Encoding: 175 175 110
Width: 600
Flags: W
LayerCount: 2
Fore
SplineSet
432 653 m 1,0,-1
 432 683 l 1,1,-1
 168 683 l 1,2,-1
 168 653 l 1,3,-1
 432 653 l 1,0,-1
EndSplineSet
EndChar

StartChar: degree
Encoding: 176 176 111
Width: 466
Flags: W
LayerCount: 2
Fore
SplineSet
233 372 m 0,0,1
 304 372 304 372 350 420.5 c 128,-1,2
 396 469 396 469 396 541 c 256,3,4
 396 613 396 613 350 661.5 c 128,-1,5
 304 710 304 710 233 710 c 0,6,7
 163 710 163 710 116.5 661.5 c 128,-1,8
 70 613 70 613 70 541 c 256,9,10
 70 469 70 469 116.5 420.5 c 128,-1,11
 163 372 163 372 233 372 c 0,0,1
233 402 m 256,12,13
 173 402 173 402 137.5 442.5 c 128,-1,14
 102 483 102 483 102 541 c 0,15,16
 102 600 102 600 137.5 640 c 128,-1,17
 173 680 173 680 233 680 c 0,18,19
 290 680 290 680 329 640 c 0,20,21
 364 600 364 600 364 541 c 0,22,23
 364 483 364 483 328.5 442.5 c 128,-1,24
 293 402 293 402 233 402 c 256,12,13
EndSplineSet
EndChar

StartChar: plusminus
Encoding: 177 177 112
Width: 600
Flags: W
LayerCount: 2
Fore
SplineSet
317 124 m 1,0,-1
 317 349 l 1,1,-1
 537 349 l 1,2,-1
 537 380 l 1,3,-1
 317 380 l 1,4,-1
 317 606 l 1,5,-1
 283 606 l 1,6,-1
 283 380 l 1,7,-1
 63 380 l 1,8,-1
 63 349 l 1,9,-1
 283 349 l 1,10,-1
 283 124 l 1,11,-1
 317 124 l 1,0,-1
537 0 m 1,12,-1
 537 31 l 1,13,-1
 63 31 l 1,14,-1
 63 0 l 1,15,-1
 537 0 l 1,12,-1
EndSplineSet
EndChar

StartChar: twosuperior
Encoding: 178 178 113
Width: 345
Flags: W
LayerCount: 2
Fore
SplineSet
303 329 m 1,0,-1
 303 354 l 1,1,-1
 74 354 l 1,2,-1
 196 452 l 2,3,4
 242 490 242 490 266 524.5 c 128,-1,5
 290 559 290 559 290 598 c 0,6,7
 290 643 290 643 260 673.5 c 128,-1,8
 230 704 230 704 172 704 c 0,9,10
 115 704 115 704 83 678 c 128,-1,11
 51 652 51 652 39 614 c 1,12,-1
 65 605 l 1,13,14
 90 679 90 679 171 679 c 0,15,16
 215 679 215 679 236.5 657 c 128,-1,17
 258 635 258 635 258 600 c 2,18,-1
 258 591 l 2,19,20
 258 536 258 536 180 470 c 2,21,-1
 43 358 l 1,22,-1
 43 329 l 1,23,-1
 303 329 l 1,0,-1
EndSplineSet
EndChar

StartChar: threesuperior
Encoding: 179 179 114
Width: 347
Flags: W
LayerCount: 2
Fore
SplineSet
162 323 m 0,0,1
 223 323 223 323 257 352 c 128,-1,2
 291 381 291 381 291 431 c 0,3,4
 291 508 291 508 212 520 c 1,5,-1
 212 523 l 1,6,7
 284 541 284 541 284 609 c 0,8,9
 284 653 284 653 253 678.5 c 128,-1,10
 222 704 222 704 168 704 c 0,11,12
 85 704 85 704 50 649 c 1,13,-1
 71 633 l 1,14,15
 86 655 86 655 108 667 c 128,-1,16
 130 679 130 679 167 679 c 0,17,18
 251 679 251 679 252 611 c 2,19,-1
 252 606 l 2,20,21
 252 533 252 533 158 533 c 2,22,-1
 113 533 l 1,23,-1
 113 508 l 1,24,-1
 165 508 l 2,25,26
 216 508 216 508 237.5 489 c 128,-1,27
 259 470 259 470 259 435 c 2,28,-1
 259 429 l 2,29,30
 259 391 259 391 234.5 369.5 c 128,-1,31
 210 348 210 348 162 348 c 0,32,33
 122 348 122 348 99.5 361.5 c 128,-1,34
 77 375 77 375 60 398 c 1,35,-1
 38 381 l 1,36,37
 79 323 79 323 162 323 c 0,0,1
EndSplineSet
EndChar

StartChar: acute
Encoding: 180 180 115
Width: 600
Flags: W
LayerCount: 2
Fore
SplineSet
288 587 m 1,0,-1
 401 740 l 1,1,-1
 369 758 l 1,2,-1
 264 600 l 1,3,-1
 288 587 l 1,0,-1
EndSplineSet
EndChar

StartChar: mu
Encoding: 181 181 116
Width: 568
Flags: W
LayerCount: 2
Fore
SplineSet
135 -200 m 1,0,-1
 135 -44 l 1,1,-1
 130 70 l 1,2,-1
 133 70 l 1,3,4
 169 -12 169 -12 275 -12 c 0,5,6
 341 -12 341 -12 378 15 c 128,-1,7
 415 42 415 42 429 78 c 1,8,-1
 432 78 l 1,9,-1
 432 0 l 1,10,-1
 467 0 l 1,11,-1
 467 508 l 1,12,-1
 432 508 l 1,13,-1
 432 148 l 2,14,15
 432 85 432 85 386.5 52 c 128,-1,16
 341 19 341 19 281 19 c 0,17,18
 135 19 135 19 135 188 c 2,19,-1
 135 508 l 1,20,-1
 100 508 l 1,21,-1
 100 -200 l 1,22,-1
 135 -200 l 1,0,-1
EndSplineSet
EndChar

StartChar: paragraph
Encoding: 182 182 117
Width: 605
Flags: W
LayerCount: 2
Fore
SplineSet
443 -149 m 1,0,-1
 443 668 l 1,1,-1
 511 668 l 1,2,-1
 511 698 l 1,3,-1
 249 698 l 2,4,5
 167 698 167 698 109 647 c 128,-1,6
 51 596 51 596 51 510 c 0,7,8
 51 425 51 425 109 374 c 128,-1,9
 167 323 167 323 249 323 c 1,10,-1
 249 -149 l 1,11,-1
 282 -149 l 1,12,-1
 282 668 l 1,13,-1
 410 668 l 1,14,-1
 410 -149 l 1,15,-1
 443 -149 l 1,0,-1
EndSplineSet
EndChar

StartChar: periodcentered
Encoding: 183 183 118
Width: 306
Flags: W
LayerCount: 2
Fore
SplineSet
153 268 m 0,0,1
 188 268 188 268 188 301 c 2,2,-1
 188 310 l 2,3,4
 188 340 188 340 153 343 c 0,5,6
 119 343 119 343 118 310 c 2,7,-1
 118 301 l 2,8,9
 118 271 118 271 153 268 c 0,0,1
EndSplineSet
EndChar

StartChar: cedilla
Encoding: 184 184 119
Width: 600
Flags: W
LayerCount: 2
Fore
SplineSet
310 -203 m 0,0,1
 350 -203 350 -203 374.5 -182 c 128,-1,2
 399 -161 399 -161 399 -129 c 0,3,4
 399 -73 399 -73 331 -69 c 0,5,6
 318 -69 318 -69 299 -72 c 1,7,-1
 297 -70 l 1,8,-1
 315 7 l 1,9,-1
 290 7 l 1,10,-1
 269 -83 l 1,11,-1
 304 -85 l 2,12,13
 367 -89 367 -89 367 -130 c 0,14,15
 367 -153 367 -153 351 -165 c 128,-1,16
 335 -177 335 -177 310 -177 c 0,17,18
 264 -177 264 -177 243 -149 c 1,19,-1
 224 -169 l 1,20,21
 234 -184 234 -184 256 -193.5 c 128,-1,22
 278 -203 278 -203 310 -203 c 0,0,1
EndSplineSet
EndChar

StartChar: onesuperior
Encoding: 185 185 120
Width: 340
Flags: W
LayerCount: 2
Fore
SplineSet
213 329 m 1,0,-1
 183 329 l 1,1,-1
 183 672 l 1,2,-1
 103 631 l 1,3,-1
 103 659 l 1,4,-1
 179 698 l 1,5,-1
 213 698 l 1,6,-1
 213 329 l 1,0,-1
EndSplineSet
EndChar

StartChar: ordmasculine
Encoding: 186 186 121
Width: 374
Flags: W
LayerCount: 2
Fore
SplineSet
187 363 m 256,0,1
 255 363 255 363 291.5 410 c 128,-1,2
 328 457 328 457 328 538 c 0,3,4
 328 618 328 618 291 664 c 128,-1,5
 254 710 254 710 187 710 c 256,6,7
 120 710 120 710 83 664 c 128,-1,8
 46 618 46 618 46 538 c 0,9,10
 46 457 46 457 82.5 410 c 128,-1,11
 119 363 119 363 187 363 c 256,0,1
187 388 m 256,12,13
 133 388 133 388 105.5 425.5 c 128,-1,14
 78 463 78 463 78 517 c 2,15,-1
 78 557 l 2,16,17
 78 610 78 610 105.5 647.5 c 128,-1,18
 133 685 133 685 187 685 c 256,19,20
 241 685 241 685 268.5 647.5 c 128,-1,21
 296 610 296 610 296 557 c 2,22,-1
 296 517 l 2,23,24
 296 463 296 463 268.5 425.5 c 128,-1,25
 241 388 241 388 187 388 c 256,12,13
EndSplineSet
EndChar

StartChar: guillemotright
Encoding: 187 187 122
Width: 482
Flags: W
LayerCount: 2
Fore
SplineSet
64 100 m 1,0,-1
 261 275 l 1,1,-1
 261 308 l 1,2,-1
 64 483 l 1,3,-1
 51 459 l 1,4,-1
 224 292 l 1,5,-1
 51 124 l 1,6,-1
 64 100 l 1,0,-1
250 100 m 1,7,-1
 447 275 l 1,8,-1
 447 308 l 1,9,-1
 250 483 l 1,10,-1
 237 459 l 1,11,-1
 410 292 l 1,12,-1
 237 124 l 1,13,-1
 250 100 l 1,7,-1
EndSplineSet
EndChar

StartChar: onequarter
Encoding: 188 188 123
Width: 801
Flags: W
LayerCount: 2
Fore
SplineSet
711 0 m 1,0,-1
 682 0 l 1,1,-1
 682 85 l 1,2,-1
 475 85 l 1,3,-1
 475 112 l 1,4,-1
 670 369 l 1,5,-1
 711 369 l 1,6,-1
 711 109 l 1,7,-1
 775 109 l 1,8,-1
 775 85 l 1,9,-1
 711 85 l 1,10,-1
 711 0 l 1,0,-1
682 109 m 1,11,-1
 682 341 l 1,12,-1
 679 341 l 1,13,-1
 503 109 l 1,14,-1
 682 109 l 1,11,-1
193 0 m 1,15,-1
 161 0 l 1,16,-1
 617 698 l 1,17,-1
 650 698 l 1,18,-1
 193 0 l 1,15,-1
213 329 m 1,19,-1
 183 329 l 1,20,-1
 183 672 l 1,21,-1
 103 631 l 1,22,-1
 103 659 l 1,23,-1
 179 698 l 1,24,-1
 213 698 l 1,25,-1
 213 329 l 1,19,-1
EndSplineSet
EndChar

StartChar: onehalf
Encoding: 189 189 124
Width: 827
Flags: W
LayerCount: 2
Fore
SplineSet
785 0 m 1,0,-1
 525 0 l 1,1,-1
 525 29 l 1,2,-1
 662 141 l 2,3,4
 740 205 740 205 740 262 c 2,5,-1
 740 271 l 2,6,7
 740 306 740 306 718.5 328 c 128,-1,8
 697 350 697 350 653 350 c 0,9,10
 573 350 573 350 547 276 c 1,11,-1
 521 285 l 1,12,13
 533 323 533 323 565.5 349 c 128,-1,14
 598 375 598 375 654 375 c 0,15,16
 712 375 712 375 742 344 c 128,-1,17
 772 313 772 313 772 269 c 0,18,19
 772 230 772 230 748 195 c 128,-1,20
 724 160 724 160 678 123 c 2,21,-1
 556 25 l 1,22,-1
 785 25 l 1,23,-1
 785 0 l 1,0,-1
193 0 m 1,24,-1
 161 0 l 1,25,-1
 617 698 l 1,26,-1
 650 698 l 1,27,-1
 193 0 l 1,24,-1
213 329 m 1,28,-1
 183 329 l 1,29,-1
 183 672 l 1,30,-1
 103 631 l 1,31,-1
 103 659 l 1,32,-1
 179 698 l 1,33,-1
 213 698 l 1,34,-1
 213 329 l 1,28,-1
EndSplineSet
EndChar

StartChar: threequarters
Encoding: 190 190 125
Width: 821
Flags: W
LayerCount: 2
Fore
SplineSet
162 323 m 0,0,1
 223 323 223 323 257 352 c 128,-1,2
 291 381 291 381 291 431 c 0,3,4
 291 508 291 508 212 520 c 1,5,-1
 212 523 l 1,6,7
 284 541 284 541 284 609 c 0,8,9
 284 653 284 653 253 678.5 c 128,-1,10
 222 704 222 704 168 704 c 0,11,12
 85 704 85 704 50 649 c 1,13,-1
 71 633 l 1,14,15
 86 655 86 655 108 667 c 128,-1,16
 130 679 130 679 167 679 c 0,17,18
 251 679 251 679 252 611 c 2,19,-1
 252 606 l 2,20,21
 252 533 252 533 158 533 c 2,22,-1
 113 533 l 1,23,-1
 113 508 l 1,24,-1
 165 508 l 2,25,26
 216 508 216 508 237.5 489 c 128,-1,27
 259 470 259 470 259 435 c 2,28,-1
 259 429 l 2,29,30
 259 391 259 391 234.5 369.5 c 128,-1,31
 210 348 210 348 162 348 c 0,32,33
 122 348 122 348 99.5 361.5 c 128,-1,34
 77 375 77 375 60 398 c 1,35,-1
 38 381 l 1,36,37
 79 323 79 323 162 323 c 0,0,1
213 0 m 1,38,-1
 670 698 l 1,39,-1
 637 698 l 1,40,-1
 181 0 l 1,41,-1
 213 0 l 1,38,-1
731 0 m 1,42,-1
 731 85 l 1,43,-1
 795 85 l 1,44,-1
 795 109 l 1,45,-1
 731 109 l 1,46,-1
 731 369 l 1,47,-1
 690 369 l 1,48,-1
 495 112 l 1,49,-1
 495 85 l 1,50,-1
 702 85 l 1,51,-1
 702 0 l 1,52,-1
 731 0 l 1,42,-1
702 109 m 1,53,-1
 523 109 l 1,54,-1
 699 341 l 1,55,-1
 702 341 l 1,56,-1
 702 109 l 1,53,-1
EndSplineSet
EndChar

StartChar: questiondown
Encoding: 191 191 126
Width: 462
Flags: W
LayerCount: 2
Fore
SplineSet
225 -202 m 0,0,1
 385 -202 385 -202 428 -48 c 1,2,-1
 396 -38 l 1,3,4
 361 -170 361 -170 226 -170 c 0,5,6
 154 -170 154 -170 114 -131.5 c 128,-1,7
 74 -93 74 -93 74 -30 c 2,8,-1
 74 -7 l 2,9,10
 74 64 74 64 124.5 107.5 c 128,-1,11
 175 151 175 151 269 154 c 1,12,-1
 269 324 l 1,13,-1
 233 324 l 1,14,-1
 233 181 l 1,15,16
 142 171 142 171 89 120 c 128,-1,17
 36 69 36 69 36 -21 c 0,18,19
 36 -103 36 -103 86.5 -152.5 c 128,-1,20
 137 -202 137 -202 225 -202 c 0,0,1
251 440 m 256,21,22
 286 440 286 440 286 473 c 2,23,-1
 286 482 l 2,24,25
 286 512 286 512 251 515 c 0,26,27
 217 515 217 515 216 482 c 2,28,-1
 216 473 l 2,29,30
 216 440 216 440 251 440 c 256,21,22
EndSplineSet
EndChar

StartChar: Agrave
Encoding: 192 192 127
Width: 610
Flags: W
LayerCount: 2
Fore
SplineSet
580 0 m 1,0,-1
 329 698 l 1,1,-1
 281 698 l 1,2,-1
 30 0 l 1,3,-1
 68 0 l 1,4,-1
 149 227 l 1,5,-1
 460 227 l 1,6,-1
 541 0 l 1,7,-1
 580 0 l 1,0,-1
450 259 m 1,8,-1
 159 259 l 1,9,-1
 302 662 l 1,10,-1
 306 662 l 1,11,-1
 450 259 l 1,8,-1
315 764 m 1,12,-1
 339 777 l 1,13,-1
 234 935 l 1,14,-1
 202 918 l 1,15,-1
 315 764 l 1,12,-1
EndSplineSet
EndChar

StartChar: Aacute
Encoding: 193 193 128
Width: 610
Flags: W
LayerCount: 2
Fore
SplineSet
580 0 m 1,0,-1
 329 698 l 1,1,-1
 281 698 l 1,2,-1
 30 0 l 1,3,-1
 68 0 l 1,4,-1
 149 227 l 1,5,-1
 460 227 l 1,6,-1
 541 0 l 1,7,-1
 580 0 l 1,0,-1
450 259 m 1,8,-1
 159 259 l 1,9,-1
 302 662 l 1,10,-1
 306 662 l 1,11,-1
 450 259 l 1,8,-1
292 764 m 1,12,-1
 405 918 l 1,13,-1
 373 935 l 1,14,-1
 268 777 l 1,15,-1
 292 764 l 1,12,-1
EndSplineSet
EndChar

StartChar: Acircumflex
Encoding: 194 194 129
Width: 610
Flags: W
LayerCount: 2
Fore
SplineSet
580 0 m 1,0,-1
 329 698 l 1,1,-1
 281 698 l 1,2,-1
 30 0 l 1,3,-1
 68 0 l 1,4,-1
 149 227 l 1,5,-1
 460 227 l 1,6,-1
 541 0 l 1,7,-1
 580 0 l 1,0,-1
450 259 m 1,8,-1
 159 259 l 1,9,-1
 302 662 l 1,10,-1
 306 662 l 1,11,-1
 450 259 l 1,8,-1
428 775 m 1,12,-1
 449 790 l 1,13,-1
 325 926 l 1,14,-1
 283 926 l 1,15,-1
 159 790 l 1,16,-1
 180 775 l 1,17,-1
 304 899 l 1,18,-1
 428 775 l 1,12,-1
EndSplineSet
EndChar

StartChar: Atilde
Encoding: 195 195 130
Width: 610
Flags: W
LayerCount: 2
Fore
SplineSet
580 0 m 1,0,-1
 329 698 l 1,1,-1
 281 698 l 1,2,-1
 30 0 l 1,3,-1
 68 0 l 1,4,-1
 149 227 l 1,5,-1
 460 227 l 1,6,-1
 541 0 l 1,7,-1
 580 0 l 1,0,-1
450 259 m 1,8,-1
 159 259 l 1,9,-1
 302 662 l 1,10,-1
 306 662 l 1,11,-1
 450 259 l 1,8,-1
375 802 m 0,12,13
 425 802 425 802 458 845 c 1,14,-1
 441 863 l 1,15,16
 413 832 413 832 377 832 c 0,17,18
 363 832 363 832 348 837.5 c 128,-1,19
 333 843 333 843 310 857 c 128,-1,20
 287 871 287 871 269.5 878.5 c 128,-1,21
 252 886 252 886 233 886 c 0,22,23
 184 886 184 886 150 843 c 1,24,-1
 167 825 l 1,25,26
 195 856 195 856 231 856 c 0,27,28
 245 856 245 856 260 850.5 c 128,-1,29
 275 845 275 845 298 831 c 128,-1,30
 321 817 321 817 338.5 809.5 c 128,-1,31
 356 802 356 802 375 802 c 0,12,13
EndSplineSet
EndChar

StartChar: Adieresis
Encoding: 196 196 131
Width: 610
Flags: W
LayerCount: 2
Fore
SplineSet
580 0 m 1,0,-1
 329 698 l 1,1,-1
 281 698 l 1,2,-1
 30 0 l 1,3,-1
 68 0 l 1,4,-1
 149 227 l 1,5,-1
 460 227 l 1,6,-1
 541 0 l 1,7,-1
 580 0 l 1,0,-1
450 259 m 1,8,-1
 159 259 l 1,9,-1
 302 662 l 1,10,-1
 306 662 l 1,11,-1
 450 259 l 1,8,-1
213 812 m 0,12,13
 242 812 242 812 242 839 c 2,14,-1
 242 847 l 2,15,16
 242 874 242 874 213 874 c 0,17,18
 183 874 183 874 183 847 c 2,19,-1
 183 839 l 2,20,21
 183 812 183 812 213 812 c 0,12,13
395 812 m 0,22,23
 425 812 425 812 425 839 c 2,24,-1
 425 847 l 2,25,26
 425 874 425 874 395 874 c 0,27,28
 366 874 366 874 366 847 c 2,29,-1
 366 839 l 2,30,31
 366 812 366 812 395 812 c 0,22,23
EndSplineSet
EndChar

StartChar: Aring
Encoding: 197 197 132
Width: 610
Flags: W
LayerCount: 2
Fore
SplineSet
580 0 m 1,0,-1
 329 698 l 1,1,-1
 281 698 l 1,2,-1
 30 0 l 1,3,-1
 68 0 l 1,4,-1
 149 227 l 1,5,-1
 460 227 l 1,6,-1
 541 0 l 1,7,-1
 580 0 l 1,0,-1
450 259 m 1,8,-1
 159 259 l 1,9,-1
 302 662 l 1,10,-1
 306 662 l 1,11,-1
 450 259 l 1,8,-1
304 764 m 256,12,13
 347 764 347 764 373.5 790.5 c 128,-1,14
 400 817 400 817 400 860 c 256,15,16
 400 903 400 903 373.5 930 c 128,-1,17
 347 957 347 957 304 957 c 256,18,19
 261 957 261 957 234.5 930 c 128,-1,20
 208 903 208 903 208 860 c 256,21,22
 208 817 208 817 234.5 790.5 c 128,-1,23
 261 764 261 764 304 764 c 256,12,13
304 789 m 1,24,25
 237 789 237 789 237 867 c 0,26,27
 237 896 237 896 255 914 c 128,-1,28
 273 932 273 932 304 932 c 0,29,30
 371 932 371 932 371 854 c 0,31,32
 371 794 371 794 304 789 c 1,24,25
EndSplineSet
EndChar

StartChar: AE
Encoding: 198 198 133
Width: 872
Flags: W
LayerCount: 2
Fore
SplineSet
802 0 m 1,0,-1
 802 33 l 1,1,-1
 447 33 l 1,2,-1
 447 338 l 1,3,-1
 788 338 l 1,4,-1
 788 371 l 1,5,-1
 447 371 l 1,6,-1
 447 665 l 1,7,-1
 802 665 l 1,8,-1
 802 698 l 1,9,-1
 379 698 l 1,10,-1
 2 0 l 1,11,-1
 41 0 l 1,12,-1
 164 227 l 1,13,-1
 410 227 l 1,14,-1
 410 0 l 1,15,-1
 802 0 l 1,0,-1
410 259 m 1,16,-1
 180 259 l 1,17,-1
 399 665 l 1,18,-1
 410 665 l 1,19,-1
 410 259 l 1,16,-1
EndSplineSet
EndChar

StartChar: Ccedilla
Encoding: 199 199 134
Width: 613
Flags: W
LayerCount: 2
Fore
SplineSet
344 -203 m 0,0,1
 384 -203 384 -203 408.5 -182 c 128,-1,2
 433 -161 433 -161 433 -129 c 0,3,4
 433 -73 433 -73 366 -69 c 0,5,6
 350 -69 350 -69 333 -72 c 1,7,-1
 331 -70 l 1,8,-1
 345 -12 l 1,9,10
 423 -7 423 -7 477 33.5 c 128,-1,11
 531 74 531 74 558 142 c 1,12,-1
 528 158 l 1,13,14
 503 94 503 94 453.5 57.5 c 128,-1,15
 404 21 404 21 331 21 c 0,16,17
 226 21 226 21 166.5 96 c 128,-1,18
 107 171 107 171 107 320 c 2,19,-1
 107 376 l 2,20,21
 107 525 107 525 166.5 601 c 128,-1,22
 226 677 226 677 331 677 c 0,23,24
 399 677 399 677 447.5 643 c 128,-1,25
 496 609 496 609 522 548 c 1,26,-1
 553 565 l 1,27,28
 524 632 524 632 467.5 671 c 128,-1,29
 411 710 411 710 331 710 c 0,30,31
 205 710 205 710 136 619 c 128,-1,32
 67 528 67 528 67 348 c 0,33,34
 67 172 67 172 132.5 82 c 128,-1,35
 198 -8 198 -8 319 -12 c 1,36,-1
 303 -82 l 1,37,-1
 338 -85 l 2,38,39
 401 -89 401 -89 401 -130 c 0,40,41
 401 -153 401 -153 385 -165 c 128,-1,42
 369 -177 369 -177 344 -177 c 0,43,44
 298 -177 298 -177 278 -149 c 1,45,-1
 259 -169 l 1,46,47
 268 -184 268 -184 290 -193.5 c 128,-1,48
 312 -203 312 -203 344 -203 c 0,0,1
EndSplineSet
EndChar

StartChar: Egrave
Encoding: 200 200 135
Width: 566
Flags: W
LayerCount: 2
Fore
SplineSet
496 0 m 1,0,-1
 496 33 l 1,1,-1
 141 33 l 1,2,-1
 141 338 l 1,3,-1
 482 338 l 1,4,-1
 482 371 l 1,5,-1
 141 371 l 1,6,-1
 141 665 l 1,7,-1
 496 665 l 1,8,-1
 496 698 l 1,9,-1
 104 698 l 1,10,-1
 104 0 l 1,11,-1
 496 0 l 1,0,-1
311 764 m 1,12,-1
 335 777 l 1,13,-1
 230 935 l 1,14,-1
 198 918 l 1,15,-1
 311 764 l 1,12,-1
EndSplineSet
EndChar

StartChar: Eacute
Encoding: 201 201 136
Width: 566
Flags: W
LayerCount: 2
Fore
SplineSet
496 0 m 1,0,-1
 496 33 l 1,1,-1
 141 33 l 1,2,-1
 141 338 l 1,3,-1
 482 338 l 1,4,-1
 482 371 l 1,5,-1
 141 371 l 1,6,-1
 141 665 l 1,7,-1
 496 665 l 1,8,-1
 496 698 l 1,9,-1
 104 698 l 1,10,-1
 104 0 l 1,11,-1
 496 0 l 1,0,-1
288 764 m 1,12,-1
 401 918 l 1,13,-1
 369 935 l 1,14,-1
 264 777 l 1,15,-1
 288 764 l 1,12,-1
EndSplineSet
EndChar

StartChar: Ecircumflex
Encoding: 202 202 137
Width: 566
Flags: W
LayerCount: 2
Fore
SplineSet
496 0 m 1,0,-1
 496 33 l 1,1,-1
 141 33 l 1,2,-1
 141 338 l 1,3,-1
 482 338 l 1,4,-1
 482 371 l 1,5,-1
 141 371 l 1,6,-1
 141 665 l 1,7,-1
 496 665 l 1,8,-1
 496 698 l 1,9,-1
 104 698 l 1,10,-1
 104 0 l 1,11,-1
 496 0 l 1,0,-1
424 775 m 1,12,-1
 445 790 l 1,13,-1
 321 926 l 1,14,-1
 279 926 l 1,15,-1
 155 790 l 1,16,-1
 176 775 l 1,17,-1
 300 899 l 1,18,-1
 424 775 l 1,12,-1
EndSplineSet
EndChar

StartChar: Edieresis
Encoding: 203 203 138
Width: 566
Flags: W
LayerCount: 2
Fore
SplineSet
496 0 m 1,0,-1
 496 33 l 1,1,-1
 141 33 l 1,2,-1
 141 338 l 1,3,-1
 482 338 l 1,4,-1
 482 371 l 1,5,-1
 141 371 l 1,6,-1
 141 665 l 1,7,-1
 496 665 l 1,8,-1
 496 698 l 1,9,-1
 104 698 l 1,10,-1
 104 0 l 1,11,-1
 496 0 l 1,0,-1
209 812 m 0,12,13
 238 812 238 812 238 839 c 2,14,-1
 238 847 l 2,15,16
 238 874 238 874 209 874 c 0,17,18
 179 874 179 874 179 847 c 2,19,-1
 179 839 l 2,20,21
 179 812 179 812 209 812 c 0,12,13
391 812 m 0,22,23
 421 812 421 812 421 839 c 2,24,-1
 421 847 l 2,25,26
 421 874 421 874 391 874 c 0,27,28
 362 874 362 874 362 847 c 2,29,-1
 362 839 l 2,30,31
 362 812 362 812 391 812 c 0,22,23
EndSplineSet
EndChar

StartChar: Igrave
Encoding: 204 204 139
Width: 245
Flags: W
LayerCount: 2
Fore
SplineSet
134 764 m 1,0,-1
 158 777 l 1,1,-1
 53 935 l 1,2,-1
 21 918 l 1,3,-1
 134 764 l 1,0,-1
141 0 m 1,4,-1
 141 698 l 1,5,-1
 104 698 l 1,6,-1
 104 0 l 1,7,-1
 141 0 l 1,4,-1
EndSplineSet
EndChar

StartChar: Iacute
Encoding: 205 205 140
Width: 245
Flags: W
LayerCount: 2
Fore
SplineSet
111 764 m 1,0,-1
 224 918 l 1,1,-1
 192 935 l 1,2,-1
 87 777 l 1,3,-1
 111 764 l 1,0,-1
141 0 m 1,4,-1
 141 698 l 1,5,-1
 104 698 l 1,6,-1
 104 0 l 1,7,-1
 141 0 l 1,4,-1
EndSplineSet
EndChar

StartChar: Icircumflex
Encoding: 206 206 141
Width: 245
Flags: W
LayerCount: 2
Fore
SplineSet
247 775 m 1,0,-1
 268 790 l 1,1,-1
 144 926 l 1,2,-1
 102 926 l 1,3,-1
 -22 790 l 1,4,-1
 -1 775 l 1,5,-1
 123 899 l 1,6,-1
 247 775 l 1,0,-1
141 0 m 1,7,-1
 141 698 l 1,8,-1
 104 698 l 1,9,-1
 104 0 l 1,10,-1
 141 0 l 1,7,-1
EndSplineSet
EndChar

StartChar: Idieresis
Encoding: 207 207 142
Width: 245
Flags: W
LayerCount: 2
Fore
SplineSet
32 812 m 0,0,1
 61 812 61 812 61 839 c 2,2,-1
 61 847 l 2,3,4
 61 874 61 874 32 874 c 0,5,6
 2 874 2 874 2 847 c 2,7,-1
 2 839 l 2,8,9
 2 812 2 812 32 812 c 0,0,1
214 812 m 0,10,11
 244 812 244 812 244 839 c 2,12,-1
 244 847 l 2,13,14
 244 874 244 874 214 874 c 0,15,16
 185 874 185 874 185 847 c 2,17,-1
 185 839 l 2,18,19
 185 812 185 812 214 812 c 0,10,11
141 0 m 1,20,-1
 141 698 l 1,21,-1
 104 698 l 1,22,-1
 104 0 l 1,23,-1
 141 0 l 1,20,-1
EndSplineSet
EndChar

StartChar: Eth
Encoding: 208 208 143
Width: 664
Flags: W
LayerCount: 2
Fore
SplineSet
319 0 m 2,0,1
 595 0 595 0 597 349 c 0,2,3
 597 697 597 697 319 698 c 2,4,-1
 107 698 l 1,5,-1
 107 384 l 1,6,-1
 25 384 l 1,7,-1
 25 354 l 1,8,-1
 107 354 l 1,9,-1
 107 0 l 1,10,-1
 319 0 l 2,0,1
319 33 m 2,11,-1
 144 33 l 1,12,-1
 144 354 l 1,13,-1
 308 354 l 1,14,-1
 308 384 l 1,15,-1
 144 384 l 1,16,-1
 144 665 l 1,17,-1
 319 665 l 2,18,19
 439 665 439 665 498 589 c 128,-1,20
 557 513 557 513 557 385 c 2,21,-1
 557 313 l 2,22,23
 557 186 557 186 498 109.5 c 128,-1,24
 439 33 439 33 319 33 c 2,11,-1
EndSplineSet
EndChar

StartChar: Ntilde
Encoding: 209 209 144
Width: 696
Flags: W
LayerCount: 2
Fore
SplineSet
592 0 m 1,0,-1
 592 698 l 1,1,-1
 556 698 l 1,2,-1
 556 48 l 1,3,-1
 553 48 l 1,4,-1
 153 698 l 1,5,-1
 104 698 l 1,6,-1
 104 0 l 1,7,-1
 140 0 l 1,8,-1
 140 650 l 1,9,-1
 143 650 l 1,10,-1
 542 0 l 1,11,-1
 592 0 l 1,0,-1
419 802 m 0,12,13
 469 802 469 802 502 845 c 1,14,-1
 485 863 l 1,15,16
 457 832 457 832 421 832 c 0,17,18
 407 832 407 832 392 837.5 c 128,-1,19
 377 843 377 843 354 857 c 128,-1,20
 331 871 331 871 313.5 878.5 c 128,-1,21
 296 886 296 886 277 886 c 0,22,23
 228 886 228 886 194 843 c 1,24,-1
 211 825 l 1,25,26
 239 856 239 856 275 856 c 0,27,28
 289 856 289 856 304 850.5 c 128,-1,29
 319 845 319 845 342 831 c 128,-1,30
 365 817 365 817 382.5 809.5 c 128,-1,31
 400 802 400 802 419 802 c 0,12,13
EndSplineSet
EndChar

StartChar: Ograve
Encoding: 210 210 145
Width: 686
Flags: W
LayerCount: 2
Fore
SplineSet
343 -12 m 256,0,1
 474 -12 474 -12 546.5 78.5 c 128,-1,2
 619 169 619 169 619 349 c 256,3,4
 619 529 619 529 546.5 619.5 c 128,-1,5
 474 710 474 710 343 710 c 256,6,7
 212 710 212 710 139.5 619.5 c 128,-1,8
 67 529 67 529 67 349 c 256,9,10
 67 169 67 169 139.5 78.5 c 128,-1,11
 212 -12 212 -12 343 -12 c 256,0,1
343 21 m 256,12,13
 234 21 234 21 170.5 97 c 128,-1,14
 107 173 107 173 107 319 c 2,15,-1
 107 379 l 2,16,17
 107 525 107 525 170.5 601 c 128,-1,18
 234 677 234 677 343 677 c 256,19,20
 452 677 452 677 515.5 601 c 128,-1,21
 579 525 579 525 579 379 c 2,22,-1
 579 319 l 2,23,24
 579 173 579 173 515.5 97 c 128,-1,25
 452 21 452 21 343 21 c 256,12,13
354 764 m 1,26,-1
 378 777 l 1,27,-1
 273 935 l 1,28,-1
 241 918 l 1,29,-1
 354 764 l 1,26,-1
EndSplineSet
EndChar

StartChar: Oacute
Encoding: 211 211 146
Width: 686
Flags: W
LayerCount: 2
Fore
SplineSet
343 -12 m 256,0,1
 474 -12 474 -12 546.5 78.5 c 128,-1,2
 619 169 619 169 619 349 c 256,3,4
 619 529 619 529 546.5 619.5 c 128,-1,5
 474 710 474 710 343 710 c 256,6,7
 212 710 212 710 139.5 619.5 c 128,-1,8
 67 529 67 529 67 349 c 256,9,10
 67 169 67 169 139.5 78.5 c 128,-1,11
 212 -12 212 -12 343 -12 c 256,0,1
343 21 m 256,12,13
 234 21 234 21 170.5 97 c 128,-1,14
 107 173 107 173 107 319 c 2,15,-1
 107 379 l 2,16,17
 107 525 107 525 170.5 601 c 128,-1,18
 234 677 234 677 343 677 c 256,19,20
 452 677 452 677 515.5 601 c 128,-1,21
 579 525 579 525 579 379 c 2,22,-1
 579 319 l 2,23,24
 579 173 579 173 515.5 97 c 128,-1,25
 452 21 452 21 343 21 c 256,12,13
331 764 m 1,26,-1
 444 918 l 1,27,-1
 412 935 l 1,28,-1
 307 777 l 1,29,-1
 331 764 l 1,26,-1
EndSplineSet
EndChar

StartChar: Ocircumflex
Encoding: 212 212 147
Width: 686
Flags: W
LayerCount: 2
Fore
SplineSet
343 -12 m 256,0,1
 474 -12 474 -12 546.5 78.5 c 128,-1,2
 619 169 619 169 619 349 c 256,3,4
 619 529 619 529 546.5 619.5 c 128,-1,5
 474 710 474 710 343 710 c 256,6,7
 212 710 212 710 139.5 619.5 c 128,-1,8
 67 529 67 529 67 349 c 256,9,10
 67 169 67 169 139.5 78.5 c 128,-1,11
 212 -12 212 -12 343 -12 c 256,0,1
343 21 m 256,12,13
 234 21 234 21 170.5 97 c 128,-1,14
 107 173 107 173 107 319 c 2,15,-1
 107 379 l 2,16,17
 107 525 107 525 170.5 601 c 128,-1,18
 234 677 234 677 343 677 c 256,19,20
 452 677 452 677 515.5 601 c 128,-1,21
 579 525 579 525 579 379 c 2,22,-1
 579 319 l 2,23,24
 579 173 579 173 515.5 97 c 128,-1,25
 452 21 452 21 343 21 c 256,12,13
467 775 m 1,26,-1
 488 790 l 1,27,-1
 364 926 l 1,28,-1
 322 926 l 1,29,-1
 198 790 l 1,30,-1
 219 775 l 1,31,-1
 343 899 l 1,32,-1
 467 775 l 1,26,-1
EndSplineSet
EndChar

StartChar: Otilde
Encoding: 213 213 148
Width: 686
Flags: W
LayerCount: 2
Fore
SplineSet
343 -12 m 256,0,1
 474 -12 474 -12 546.5 78.5 c 128,-1,2
 619 169 619 169 619 349 c 256,3,4
 619 529 619 529 546.5 619.5 c 128,-1,5
 474 710 474 710 343 710 c 256,6,7
 212 710 212 710 139.5 619.5 c 128,-1,8
 67 529 67 529 67 349 c 256,9,10
 67 169 67 169 139.5 78.5 c 128,-1,11
 212 -12 212 -12 343 -12 c 256,0,1
343 21 m 256,12,13
 234 21 234 21 170.5 97 c 128,-1,14
 107 173 107 173 107 319 c 2,15,-1
 107 379 l 2,16,17
 107 525 107 525 170.5 601 c 128,-1,18
 234 677 234 677 343 677 c 256,19,20
 452 677 452 677 515.5 601 c 128,-1,21
 579 525 579 525 579 379 c 2,22,-1
 579 319 l 2,23,24
 579 173 579 173 515.5 97 c 128,-1,25
 452 21 452 21 343 21 c 256,12,13
414 802 m 0,26,27
 464 802 464 802 497 845 c 1,28,-1
 480 863 l 1,29,30
 452 832 452 832 416 832 c 0,31,32
 402 832 402 832 387 837.5 c 128,-1,33
 372 843 372 843 349 857 c 128,-1,34
 326 871 326 871 308.5 878.5 c 128,-1,35
 291 886 291 886 272 886 c 0,36,37
 223 886 223 886 189 843 c 1,38,-1
 206 825 l 1,39,40
 234 856 234 856 270 856 c 0,41,42
 284 856 284 856 299 850.5 c 128,-1,43
 314 845 314 845 337 831 c 128,-1,44
 360 817 360 817 377.5 809.5 c 128,-1,45
 395 802 395 802 414 802 c 0,26,27
EndSplineSet
EndChar

StartChar: Odieresis
Encoding: 214 214 149
Width: 686
Flags: W
LayerCount: 2
Fore
SplineSet
343 -12 m 256,0,1
 474 -12 474 -12 546.5 78.5 c 128,-1,2
 619 169 619 169 619 349 c 256,3,4
 619 529 619 529 546.5 619.5 c 128,-1,5
 474 710 474 710 343 710 c 256,6,7
 212 710 212 710 139.5 619.5 c 128,-1,8
 67 529 67 529 67 349 c 256,9,10
 67 169 67 169 139.5 78.5 c 128,-1,11
 212 -12 212 -12 343 -12 c 256,0,1
343 21 m 256,12,13
 234 21 234 21 170.5 97 c 128,-1,14
 107 173 107 173 107 319 c 2,15,-1
 107 379 l 2,16,17
 107 525 107 525 170.5 601 c 128,-1,18
 234 677 234 677 343 677 c 256,19,20
 452 677 452 677 515.5 601 c 128,-1,21
 579 525 579 525 579 379 c 2,22,-1
 579 319 l 2,23,24
 579 173 579 173 515.5 97 c 128,-1,25
 452 21 452 21 343 21 c 256,12,13
252 812 m 0,26,27
 281 812 281 812 281 839 c 2,28,-1
 281 847 l 2,29,30
 281 874 281 874 252 874 c 0,31,32
 222 874 222 874 222 847 c 2,33,-1
 222 839 l 2,34,35
 222 812 222 812 252 812 c 0,26,27
434 812 m 0,36,37
 464 812 464 812 464 839 c 2,38,-1
 464 847 l 2,39,40
 464 874 464 874 434 874 c 0,41,42
 405 874 405 874 405 847 c 2,43,-1
 405 839 l 2,44,45
 405 812 405 812 434 812 c 0,36,37
EndSplineSet
EndChar

StartChar: multiply
Encoding: 215 215 150
Width: 600
Flags: W
LayerCount: 2
Fore
SplineSet
476 106 m 1,0,-1
 498 128 l 1,1,-1
 322 305 l 1,2,-1
 498 482 l 1,3,-1
 476 504 l 1,4,-1
 300 327 l 1,5,-1
 124 504 l 1,6,-1
 102 482 l 1,7,-1
 278 305 l 1,8,-1
 102 128 l 1,9,-1
 124 106 l 1,10,-1
 300 283 l 1,11,-1
 476 106 l 1,0,-1
EndSplineSet
EndChar

StartChar: Oslash
Encoding: 216 216 151
Width: 686
Flags: W
LayerCount: 2
Fore
SplineSet
96 -34 m 1,0,-1
 159 57 l 1,1,2
 228 -12 228 -12 343 -12 c 0,3,4
 474 -12 474 -12 546.5 78.5 c 128,-1,5
 619 169 619 169 619 349 c 0,6,7
 619 528 619 528 548 617 c 1,8,-1
 618 717 l 1,9,-1
 592 734 l 1,10,-1
 527 641 l 1,11,12
 459 710 459 710 343 710 c 0,13,14
 212 710 212 710 139.5 619.5 c 128,-1,15
 67 529 67 529 67 349 c 0,16,17
 67 171 67 171 138 82 c 1,18,-1
 69 -17 l 1,19,-1
 96 -34 l 1,0,-1
159 113 m 1,20,21
 107 187 107 187 107 319 c 2,22,-1
 107 379 l 2,23,24
 107 525 107 525 170.5 601 c 128,-1,25
 234 677 234 677 343 677 c 0,26,27
 445 677 445 677 506 611 c 1,28,-1
 159 113 l 1,20,21
343 21 m 0,29,30
 241 21 241 21 180 87 c 1,31,-1
 527 585 l 1,32,33
 579 511 579 511 579 379 c 2,34,-1
 579 319 l 2,35,36
 579 173 579 173 515.5 97 c 128,-1,37
 452 21 452 21 343 21 c 0,29,30
EndSplineSet
EndChar

StartChar: Ugrave
Encoding: 217 217 152
Width: 658
Flags: W
LayerCount: 2
Fore
SplineSet
328 -12 m 0,0,1
 459 -12 459 -12 510 54 c 128,-1,2
 561 120 561 120 561 274 c 2,3,-1
 561 698 l 1,4,-1
 524 698 l 1,5,-1
 524 268 l 2,6,7
 524 202 524 202 514.5 155 c 128,-1,8
 505 108 505 108 482 78 c 0,9,10
 439 21 439 21 329 21 c 0,11,12
 217 21 217 21 176 78 c 0,13,14
 153 108 153 108 143.5 155 c 128,-1,15
 134 202 134 202 134 268 c 2,16,-1
 134 698 l 1,17,-1
 97 698 l 1,18,-1
 97 274 l 2,19,20
 97 120 97 120 147.5 54 c 128,-1,21
 198 -12 198 -12 328 -12 c 0,0,1
339 764 m 1,22,-1
 363 777 l 1,23,-1
 258 935 l 1,24,-1
 226 918 l 1,25,-1
 339 764 l 1,22,-1
EndSplineSet
EndChar

StartChar: Uacute
Encoding: 218 218 153
Width: 658
Flags: W
LayerCount: 2
Fore
SplineSet
328 -12 m 0,0,1
 459 -12 459 -12 510 54 c 128,-1,2
 561 120 561 120 561 274 c 2,3,-1
 561 698 l 1,4,-1
 524 698 l 1,5,-1
 524 268 l 2,6,7
 524 202 524 202 514.5 155 c 128,-1,8
 505 108 505 108 482 78 c 0,9,10
 439 21 439 21 329 21 c 0,11,12
 217 21 217 21 176 78 c 0,13,14
 153 108 153 108 143.5 155 c 128,-1,15
 134 202 134 202 134 268 c 2,16,-1
 134 698 l 1,17,-1
 97 698 l 1,18,-1
 97 274 l 2,19,20
 97 120 97 120 147.5 54 c 128,-1,21
 198 -12 198 -12 328 -12 c 0,0,1
316 764 m 1,22,-1
 429 918 l 1,23,-1
 397 935 l 1,24,-1
 292 777 l 1,25,-1
 316 764 l 1,22,-1
EndSplineSet
EndChar

StartChar: Ucircumflex
Encoding: 219 219 154
Width: 658
Flags: W
LayerCount: 2
Fore
SplineSet
328 -12 m 0,0,1
 459 -12 459 -12 510 54 c 128,-1,2
 561 120 561 120 561 274 c 2,3,-1
 561 698 l 1,4,-1
 524 698 l 1,5,-1
 524 268 l 2,6,7
 524 202 524 202 514.5 155 c 128,-1,8
 505 108 505 108 482 78 c 0,9,10
 439 21 439 21 329 21 c 0,11,12
 217 21 217 21 176 78 c 0,13,14
 153 108 153 108 143.5 155 c 128,-1,15
 134 202 134 202 134 268 c 2,16,-1
 134 698 l 1,17,-1
 97 698 l 1,18,-1
 97 274 l 2,19,20
 97 120 97 120 147.5 54 c 128,-1,21
 198 -12 198 -12 328 -12 c 0,0,1
452 775 m 1,22,-1
 473 790 l 1,23,-1
 349 926 l 1,24,-1
 307 926 l 1,25,-1
 183 790 l 1,26,-1
 204 775 l 1,27,-1
 328 899 l 1,28,-1
 452 775 l 1,22,-1
EndSplineSet
EndChar

StartChar: Udieresis
Encoding: 220 220 155
Width: 658
Flags: W
LayerCount: 2
Fore
SplineSet
328 -12 m 0,0,1
 459 -12 459 -12 510 54 c 128,-1,2
 561 120 561 120 561 274 c 2,3,-1
 561 698 l 1,4,-1
 524 698 l 1,5,-1
 524 268 l 2,6,7
 524 202 524 202 514.5 155 c 128,-1,8
 505 108 505 108 482 78 c 0,9,10
 439 21 439 21 329 21 c 0,11,12
 217 21 217 21 176 78 c 0,13,14
 153 108 153 108 143.5 155 c 128,-1,15
 134 202 134 202 134 268 c 2,16,-1
 134 698 l 1,17,-1
 97 698 l 1,18,-1
 97 274 l 2,19,20
 97 120 97 120 147.5 54 c 128,-1,21
 198 -12 198 -12 328 -12 c 0,0,1
237 812 m 0,22,23
 266 812 266 812 266 839 c 2,24,-1
 266 847 l 2,25,26
 266 874 266 874 237 874 c 0,27,28
 207 874 207 874 207 847 c 2,29,-1
 207 839 l 2,30,31
 207 812 207 812 237 812 c 0,22,23
419 812 m 0,32,33
 449 812 449 812 449 839 c 2,34,-1
 449 847 l 2,35,36
 449 874 449 874 419 874 c 0,37,38
 390 874 390 874 390 847 c 2,39,-1
 390 839 l 2,40,41
 390 812 390 812 419 812 c 0,32,33
EndSplineSet
EndChar

StartChar: Yacute
Encoding: 221 221 156
Width: 557
Flags: W
LayerCount: 2
Fore
SplineSet
297 0 m 1,0,-1
 297 290 l 1,1,-1
 538 698 l 1,2,-1
 497 698 l 1,3,-1
 280 330 l 1,4,-1
 277 330 l 1,5,-1
 61 698 l 1,6,-1
 19 698 l 1,7,-1
 260 290 l 1,8,-1
 260 0 l 1,9,-1
 297 0 l 1,0,-1
267 764 m 1,10,-1
 380 918 l 1,11,-1
 348 935 l 1,12,-1
 243 777 l 1,13,-1
 267 764 l 1,10,-1
EndSplineSet
EndChar

StartChar: Thorn
Encoding: 222 222 157
Width: 597
Flags: W
LayerCount: 2
Fore
SplineSet
141 0 m 1,0,-1
 141 163 l 1,1,-1
 375 163 l 2,2,3
 463 163 463 163 508.5 214.5 c 128,-1,4
 554 266 554 266 554 354 c 256,5,6
 554 442 554 442 508.5 493.5 c 128,-1,7
 463 545 463 545 375 545 c 2,8,-1
 141 545 l 1,9,-1
 141 698 l 1,10,-1
 104 698 l 1,11,-1
 104 0 l 1,12,-1
 141 0 l 1,0,-1
375 196 m 2,13,-1
 141 196 l 1,14,-1
 141 512 l 1,15,-1
 375 512 l 2,16,17
 441 512 441 512 480 472 c 1,18,19
 514 430 514 430 514 376 c 2,20,-1
 514 332 l 2,21,22
 514 278 514 278 480 237 c 0,23,24
 441 196 441 196 375 196 c 2,13,-1
EndSplineSet
EndChar

StartChar: germandbls
Encoding: 223 223 158
Width: 644
Flags: W
LayerCount: 2
Fore
SplineSet
434 -12 m 0,0,1
 511 -12 511 -12 555.5 25.5 c 128,-1,2
 600 63 600 63 600 131 c 0,3,4
 600 194 600 194 566.5 224 c 128,-1,5
 533 254 533 254 472 268 c 2,6,-1
 431 278 l 2,7,8
 381 289 381 289 356 310.5 c 128,-1,9
 331 332 331 332 331 378 c 0,10,11
 331 432 331 432 380 456.5 c 128,-1,12
 429 481 429 481 505 481 c 2,13,-1
 530 481 l 1,14,-1
 530 521 l 2,15,16
 530 625 530 625 477.5 688.5 c 128,-1,17
 425 752 425 752 329 752 c 256,18,19
 233 752 233 752 180.5 688.5 c 128,-1,20
 128 625 128 625 128 521 c 2,21,-1
 128 508 l 1,22,-1
 37 508 l 1,23,-1
 37 477 l 1,24,-1
 128 477 l 1,25,-1
 128 0 l 1,26,-1
 163 0 l 1,27,-1
 163 522 l 2,28,29
 163 618 163 618 205.5 669.5 c 128,-1,30
 248 721 248 721 329 721 c 0,31,32
 495 721 495 721 495 510 c 1,33,34
 407 510 407 510 352 477.5 c 128,-1,35
 297 445 297 445 297 377 c 0,36,37
 297 313 297 313 332 287 c 0,38,39
 367 258 367 258 426 246 c 2,40,-1
 467 236 l 2,41,42
 517 225 517 225 541.5 201 c 128,-1,43
 566 177 566 177 566 128 c 0,44,45
 566 22 566 22 435 19 c 0,46,47
 381 19 381 19 342.5 37 c 128,-1,48
 304 55 304 55 272 99 c 1,49,-1
 245 79 l 1,50,51
 308 -12 308 -12 434 -12 c 0,0,1
EndSplineSet
EndChar

StartChar: agrave
Encoding: 224 224 159
Width: 522
Flags: W
LayerCount: 2
Fore
SplineSet
262 587 m 1,0,-1
 286 600 l 1,1,-1
 181 758 l 1,2,-1
 149 740 l 1,3,-1
 262 587 l 1,0,-1
222 -12 m 0,4,5
 143 -12 143 -12 100 26 c 128,-1,6
 57 64 57 64 57 133 c 0,7,8
 57 203 57 203 101 240 c 0,9,10
 145 280 145 280 254 280 c 2,11,-1
 387 280 l 1,12,-1
 387 348 l 2,13,14
 387 489 387 489 254 489 c 2,15,-1
 248 489 l 2,16,17
 142 489 142 489 100 399 c 1,18,-1
 75 416 l 1,19,20
 118 520 118 520 249 520 c 0,21,22
 419 520 419 520 422 352 c 2,23,-1
 422 0 l 1,24,-1
 388 0 l 1,25,-1
 388 79 l 1,26,-1
 384 79 l 1,27,28
 343 -12 343 -12 222 -12 c 0,4,5
225 19 m 0,29,30
 291 19 291 19 339 52.5 c 128,-1,31
 387 86 387 86 387 148 c 2,32,-1
 387 252 l 1,33,-1
 254 252 l 2,34,35
 170 252 170 252 132 223.5 c 128,-1,36
 94 195 94 195 94 148 c 2,37,-1
 94 120 l 2,38,39
 94 70 94 70 130.5 44.5 c 128,-1,40
 167 19 167 19 225 19 c 0,29,30
EndSplineSet
EndChar

StartChar: aacute
Encoding: 225 225 160
Width: 522
Flags: W
LayerCount: 2
Fore
SplineSet
239 587 m 1,0,-1
 352 740 l 1,1,-1
 320 758 l 1,2,-1
 215 600 l 1,3,-1
 239 587 l 1,0,-1
222 -12 m 0,4,5
 143 -12 143 -12 100 26 c 128,-1,6
 57 64 57 64 57 133 c 0,7,8
 57 203 57 203 101 240 c 0,9,10
 145 280 145 280 254 280 c 2,11,-1
 387 280 l 1,12,-1
 387 348 l 2,13,14
 387 489 387 489 254 489 c 2,15,-1
 248 489 l 2,16,17
 142 489 142 489 100 399 c 1,18,-1
 75 416 l 1,19,20
 118 520 118 520 249 520 c 0,21,22
 419 520 419 520 422 352 c 2,23,-1
 422 0 l 1,24,-1
 388 0 l 1,25,-1
 388 79 l 1,26,-1
 384 79 l 1,27,28
 343 -12 343 -12 222 -12 c 0,4,5
225 19 m 0,29,30
 291 19 291 19 339 52.5 c 128,-1,31
 387 86 387 86 387 148 c 2,32,-1
 387 252 l 1,33,-1
 254 252 l 2,34,35
 170 252 170 252 132 223.5 c 128,-1,36
 94 195 94 195 94 148 c 2,37,-1
 94 120 l 2,38,39
 94 70 94 70 130.5 44.5 c 128,-1,40
 167 19 167 19 225 19 c 0,29,30
EndSplineSet
EndChar

StartChar: acircumflex
Encoding: 226 226 161
Width: 522
Flags: W
LayerCount: 2
Fore
SplineSet
375 597 m 1,0,-1
 396 613 l 1,1,-1
 272 748 l 1,2,-1
 230 748 l 1,3,-1
 106 613 l 1,4,-1
 127 597 l 1,5,-1
 251 722 l 1,6,-1
 375 597 l 1,0,-1
222 -12 m 0,7,8
 143 -12 143 -12 100 26 c 128,-1,9
 57 64 57 64 57 133 c 0,10,11
 57 203 57 203 101 240 c 0,12,13
 145 280 145 280 254 280 c 2,14,-1
 387 280 l 1,15,-1
 387 348 l 2,16,17
 387 489 387 489 254 489 c 2,18,-1
 248 489 l 2,19,20
 142 489 142 489 100 399 c 1,21,-1
 75 416 l 1,22,23
 118 520 118 520 249 520 c 0,24,25
 419 520 419 520 422 352 c 2,26,-1
 422 0 l 1,27,-1
 388 0 l 1,28,-1
 388 79 l 1,29,-1
 384 79 l 1,30,31
 343 -12 343 -12 222 -12 c 0,7,8
225 19 m 0,32,33
 291 19 291 19 339 52.5 c 128,-1,34
 387 86 387 86 387 148 c 2,35,-1
 387 252 l 1,36,-1
 254 252 l 2,37,38
 170 252 170 252 132 223.5 c 128,-1,39
 94 195 94 195 94 148 c 2,40,-1
 94 120 l 2,41,42
 94 70 94 70 130.5 44.5 c 128,-1,43
 167 19 167 19 225 19 c 0,32,33
EndSplineSet
EndChar

StartChar: atilde
Encoding: 227 227 162
Width: 522
Flags: W
LayerCount: 2
Fore
SplineSet
322 624 m 0,0,1
 369 624 369 624 405 666 c 1,2,-1
 388 685 l 1,3,4
 360 653 360 653 324 653 c 0,5,6
 310 653 310 653 295 659 c 128,-1,7
 280 665 280 665 257 679 c 0,8,9
 218 708 218 708 180 708 c 0,10,11
 134 708 134 708 97 666 c 1,12,-1
 114 647 l 1,13,14
 142 679 142 679 178 679 c 0,15,16
 192 679 192 679 207 673 c 128,-1,17
 222 667 222 667 245 653 c 0,18,19
 285 624 285 624 322 624 c 0,0,1
222 -12 m 0,20,21
 143 -12 143 -12 100 26 c 128,-1,22
 57 64 57 64 57 133 c 0,23,24
 57 203 57 203 101 240 c 0,25,26
 145 280 145 280 254 280 c 2,27,-1
 387 280 l 1,28,-1
 387 348 l 2,29,30
 387 489 387 489 254 489 c 2,31,-1
 248 489 l 2,32,33
 142 489 142 489 100 399 c 1,34,-1
 75 416 l 1,35,36
 118 520 118 520 249 520 c 0,37,38
 419 520 419 520 422 352 c 2,39,-1
 422 0 l 1,40,-1
 388 0 l 1,41,-1
 388 79 l 1,42,-1
 384 79 l 1,43,44
 343 -12 343 -12 222 -12 c 0,20,21
225 19 m 0,45,46
 291 19 291 19 339 52.5 c 128,-1,47
 387 86 387 86 387 148 c 2,48,-1
 387 252 l 1,49,-1
 254 252 l 2,50,51
 170 252 170 252 132 223.5 c 128,-1,52
 94 195 94 195 94 148 c 2,53,-1
 94 120 l 2,54,55
 94 70 94 70 130.5 44.5 c 128,-1,56
 167 19 167 19 225 19 c 0,45,46
EndSplineSet
EndChar

StartChar: adieresis
Encoding: 228 228 163
Width: 522
Flags: W
LayerCount: 2
Fore
SplineSet
160 636 m 0,0,1
 189 636 189 636 189 663 c 2,2,-1
 189 671 l 2,3,4
 189 698 189 698 160 698 c 0,5,6
 130 698 130 698 130 671 c 2,7,-1
 130 663 l 2,8,9
 130 636 130 636 160 636 c 0,0,1
342 636 m 0,10,11
 372 636 372 636 372 663 c 2,12,-1
 372 671 l 2,13,14
 372 698 372 698 342 698 c 0,15,16
 313 698 313 698 313 671 c 2,17,-1
 313 663 l 2,18,19
 313 636 313 636 342 636 c 0,10,11
222 -12 m 0,20,21
 143 -12 143 -12 100 26 c 128,-1,22
 57 64 57 64 57 133 c 0,23,24
 57 203 57 203 101 240 c 0,25,26
 145 280 145 280 254 280 c 2,27,-1
 387 280 l 1,28,-1
 387 348 l 2,29,30
 387 489 387 489 254 489 c 2,31,-1
 248 489 l 2,32,33
 142 489 142 489 100 399 c 1,34,-1
 75 416 l 1,35,36
 118 520 118 520 249 520 c 0,37,38
 419 520 419 520 422 352 c 2,39,-1
 422 0 l 1,40,-1
 388 0 l 1,41,-1
 388 79 l 1,42,-1
 384 79 l 1,43,44
 343 -12 343 -12 222 -12 c 0,20,21
225 19 m 0,45,46
 291 19 291 19 339 52.5 c 128,-1,47
 387 86 387 86 387 148 c 2,48,-1
 387 252 l 1,49,-1
 254 252 l 2,50,51
 170 252 170 252 132 223.5 c 128,-1,52
 94 195 94 195 94 148 c 2,53,-1
 94 120 l 2,54,55
 94 70 94 70 130.5 44.5 c 128,-1,56
 167 19 167 19 225 19 c 0,45,46
EndSplineSet
EndChar

StartChar: aring
Encoding: 229 229 164
Width: 522
Flags: W
LayerCount: 2
Fore
SplineSet
251 586 m 256,0,1
 294 586 294 586 320.5 613 c 128,-1,2
 347 640 347 640 347 683 c 0,3,4
 347 725 347 725 320.5 752 c 128,-1,5
 294 779 294 779 251 779 c 256,6,7
 208 779 208 779 181.5 752 c 128,-1,8
 155 725 155 725 155 683 c 0,9,10
 155 640 155 640 181.5 613 c 128,-1,11
 208 586 208 586 251 586 c 256,0,1
251 611 m 0,12,13
 184 611 184 611 184 689 c 0,14,15
 184 749 184 749 251 754 c 1,16,17
 318 754 318 754 318 676 c 0,18,19
 318 647 318 647 300 629 c 128,-1,20
 282 611 282 611 251 611 c 0,12,13
222 -12 m 0,21,22
 143 -12 143 -12 100 26 c 128,-1,23
 57 64 57 64 57 133 c 0,24,25
 57 203 57 203 101 240 c 0,26,27
 145 280 145 280 254 280 c 2,28,-1
 387 280 l 1,29,-1
 387 348 l 2,30,31
 387 489 387 489 254 489 c 2,32,-1
 248 489 l 2,33,34
 142 489 142 489 100 399 c 1,35,-1
 75 416 l 1,36,37
 118 520 118 520 249 520 c 0,38,39
 419 520 419 520 422 352 c 2,40,-1
 422 0 l 1,41,-1
 388 0 l 1,42,-1
 388 79 l 1,43,-1
 384 79 l 1,44,45
 343 -12 343 -12 222 -12 c 0,21,22
225 19 m 0,46,47
 291 19 291 19 339 52.5 c 128,-1,48
 387 86 387 86 387 148 c 2,49,-1
 387 252 l 1,50,-1
 254 252 l 2,51,52
 170 252 170 252 132 223.5 c 128,-1,53
 94 195 94 195 94 148 c 2,54,-1
 94 120 l 2,55,56
 94 70 94 70 130.5 44.5 c 128,-1,57
 167 19 167 19 225 19 c 0,46,47
EndSplineSet
EndChar

StartChar: ae
Encoding: 230 230 165
Width: 862
Flags: W
LayerCount: 2
Fore
SplineSet
222 19 m 0,0,1
 163 19 163 19 127 44.5 c 128,-1,2
 91 70 91 70 91 120 c 2,3,-1
 91 148 l 2,4,5
 91 195 91 195 128.5 223.5 c 128,-1,6
 166 252 166 252 250 252 c 2,7,-1
 383 252 l 1,8,-1
 383 148 l 2,9,10
 383 86 383 86 335.5 52.5 c 128,-1,11
 288 19 288 19 222 19 c 0,0,1
767 280 m 1,12,-1
 419 280 l 1,13,14
 419 376 419 376 465.5 432.5 c 128,-1,15
 512 489 512 489 596 489 c 0,16,17
 673 489 673 489 720 433.5 c 128,-1,18
 767 378 767 378 767 280 c 1,12,-1
601 -12 m 0,19,20
 673 -12 673 -12 722 23.5 c 128,-1,21
 771 59 771 59 794 120 c 1,22,-1
 767 135 l 1,23,24
 722 19 722 19 600 19 c 0,25,26
 515 19 515 19 467 75 c 128,-1,27
 419 131 419 131 419 225 c 2,28,-1
 419 252 l 1,29,-1
 805 252 l 1,30,-1
 805 268 l 2,31,32
 805 382 805 382 747.5 451 c 128,-1,33
 690 520 690 520 598 520 c 0,34,35
 526 520 526 520 478 484.5 c 128,-1,36
 430 449 430 449 410 389 c 1,37,-1
 406 389 l 1,38,39
 400 447 400 447 361.5 483.5 c 128,-1,40
 323 520 323 520 245 520 c 0,41,42
 115 520 115 520 71 416 c 1,43,-1
 96 399 l 1,44,45
 133 489 133 489 245 489 c 0,46,47
 382 489 382 489 383 348 c 2,48,-1
 383 280 l 1,49,-1
 250 280 l 2,50,51
 142 280 142 280 97.5 239.5 c 128,-1,52
 53 199 53 199 53 133 c 0,53,54
 53 64 53 64 96.5 26 c 128,-1,55
 140 -12 140 -12 218 -12 c 0,56,57
 292 -12 292 -12 342 23 c 128,-1,58
 392 58 392 58 405 117 c 1,59,-1
 409 117 l 1,60,61
 430 57 430 57 479 22.5 c 128,-1,62
 528 -12 528 -12 601 -12 c 0,19,20
EndSplineSet
EndChar

StartChar: ccedilla
Encoding: 231 231 166
Width: 491
Flags: W
LayerCount: 2
Fore
SplineSet
282 -203 m 0,0,1
 322 -203 322 -203 346.5 -182 c 128,-1,2
 371 -161 371 -161 371 -129 c 0,3,4
 371 -73 371 -73 304 -69 c 0,5,6
 288 -69 288 -69 271 -72 c 1,7,-1
 269 -70 l 1,8,-1
 283 -12 l 1,9,10
 407 -3 407 -3 451 90 c 1,11,-1
 425 108 l 1,12,13
 402 66 402 66 365.5 42.5 c 128,-1,14
 329 19 329 19 272 19 c 0,15,16
 186 19 186 19 140.5 75 c 128,-1,17
 95 131 95 131 95 225 c 2,18,-1
 95 283 l 2,19,20
 95 377 95 377 140.5 433 c 128,-1,21
 186 489 186 489 272 489 c 0,22,23
 325 489 325 489 359 466 c 128,-1,24
 393 443 393 443 414 400 c 1,25,-1
 443 416 l 1,26,27
 393 520 393 520 272 520 c 0,28,29
 170 520 170 520 113.5 452.5 c 128,-1,30
 57 385 57 385 57 254 c 0,31,32
 57 128 57 128 109 60.5 c 128,-1,33
 161 -7 161 -7 257 -12 c 1,34,-1
 241 -82 l 1,35,-1
 276 -85 l 2,36,37
 339 -89 339 -89 339 -130 c 0,38,39
 339 -153 339 -153 323 -165 c 128,-1,40
 307 -177 307 -177 282 -177 c 0,41,42
 236 -177 236 -177 216 -149 c 1,43,-1
 197 -169 l 1,44,45
 206 -184 206 -184 228 -193.5 c 128,-1,46
 250 -203 250 -203 282 -203 c 0,0,1
EndSplineSet
EndChar

StartChar: egrave
Encoding: 232 232 167
Width: 537
Flags: W
LayerCount: 2
Fore
SplineSet
275 -12 m 0,0,1
 348 -12 348 -12 397 23.5 c 128,-1,2
 446 59 446 59 469 120 c 1,3,-1
 442 135 l 1,4,5
 397 19 397 19 275 19 c 0,6,7
 190 19 190 19 142 75 c 128,-1,8
 94 131 94 131 94 225 c 2,9,-1
 94 252 l 1,10,-1
 480 252 l 1,11,-1
 480 268 l 2,12,13
 480 382 480 382 423 451 c 128,-1,14
 366 520 366 520 271 520 c 0,15,16
 171 520 171 520 114 451.5 c 128,-1,17
 57 383 57 383 57 254 c 0,18,19
 57 124 57 124 115.5 56 c 128,-1,20
 174 -12 174 -12 275 -12 c 0,0,1
442 280 m 1,21,-1
 94 280 l 1,22,23
 94 376 94 376 140.5 432.5 c 128,-1,24
 187 489 187 489 271 489 c 0,25,26
 348 489 348 489 395 433.5 c 128,-1,27
 442 378 442 378 442 280 c 1,21,-1
283 587 m 1,28,-1
 307 600 l 1,29,-1
 202 758 l 1,30,-1
 170 740 l 1,31,-1
 283 587 l 1,28,-1
EndSplineSet
EndChar

StartChar: eacute
Encoding: 233 233 168
Width: 537
Flags: W
LayerCount: 2
Fore
SplineSet
275 -12 m 0,0,1
 348 -12 348 -12 397 23.5 c 128,-1,2
 446 59 446 59 469 120 c 1,3,-1
 442 135 l 1,4,5
 397 19 397 19 275 19 c 0,6,7
 190 19 190 19 142 75 c 128,-1,8
 94 131 94 131 94 225 c 2,9,-1
 94 252 l 1,10,-1
 480 252 l 1,11,-1
 480 268 l 2,12,13
 480 382 480 382 423 451 c 128,-1,14
 366 520 366 520 271 520 c 0,15,16
 171 520 171 520 114 451.5 c 128,-1,17
 57 383 57 383 57 254 c 0,18,19
 57 124 57 124 115.5 56 c 128,-1,20
 174 -12 174 -12 275 -12 c 0,0,1
442 280 m 1,21,-1
 94 280 l 1,22,23
 94 376 94 376 140.5 432.5 c 128,-1,24
 187 489 187 489 271 489 c 0,25,26
 348 489 348 489 395 433.5 c 128,-1,27
 442 378 442 378 442 280 c 1,21,-1
260 587 m 1,28,-1
 373 740 l 1,29,-1
 341 758 l 1,30,-1
 236 600 l 1,31,-1
 260 587 l 1,28,-1
EndSplineSet
EndChar

StartChar: ecircumflex
Encoding: 234 234 169
Width: 537
Flags: W
LayerCount: 2
Fore
SplineSet
275 -12 m 0,0,1
 348 -12 348 -12 397 23.5 c 128,-1,2
 446 59 446 59 469 120 c 1,3,-1
 442 135 l 1,4,5
 397 19 397 19 275 19 c 0,6,7
 190 19 190 19 142 75 c 128,-1,8
 94 131 94 131 94 225 c 2,9,-1
 94 252 l 1,10,-1
 480 252 l 1,11,-1
 480 268 l 2,12,13
 480 382 480 382 423 451 c 128,-1,14
 366 520 366 520 271 520 c 0,15,16
 171 520 171 520 114 451.5 c 128,-1,17
 57 383 57 383 57 254 c 0,18,19
 57 124 57 124 115.5 56 c 128,-1,20
 174 -12 174 -12 275 -12 c 0,0,1
442 280 m 1,21,-1
 94 280 l 1,22,23
 94 376 94 376 140.5 432.5 c 128,-1,24
 187 489 187 489 271 489 c 0,25,26
 348 489 348 489 395 433.5 c 128,-1,27
 442 378 442 378 442 280 c 1,21,-1
396 597 m 1,28,-1
 417 613 l 1,29,-1
 293 748 l 1,30,-1
 251 748 l 1,31,-1
 127 613 l 1,32,-1
 148 597 l 1,33,-1
 272 722 l 1,34,-1
 396 597 l 1,28,-1
EndSplineSet
EndChar

StartChar: edieresis
Encoding: 235 235 170
Width: 537
Flags: W
LayerCount: 2
Fore
SplineSet
275 -12 m 0,0,1
 348 -12 348 -12 397 23.5 c 128,-1,2
 446 59 446 59 469 120 c 1,3,-1
 442 135 l 1,4,5
 397 19 397 19 275 19 c 0,6,7
 190 19 190 19 142 75 c 128,-1,8
 94 131 94 131 94 225 c 2,9,-1
 94 252 l 1,10,-1
 480 252 l 1,11,-1
 480 268 l 2,12,13
 480 382 480 382 423 451 c 128,-1,14
 366 520 366 520 271 520 c 0,15,16
 171 520 171 520 114 451.5 c 128,-1,17
 57 383 57 383 57 254 c 0,18,19
 57 124 57 124 115.5 56 c 128,-1,20
 174 -12 174 -12 275 -12 c 0,0,1
442 280 m 1,21,-1
 94 280 l 1,22,23
 94 376 94 376 140.5 432.5 c 128,-1,24
 187 489 187 489 271 489 c 0,25,26
 348 489 348 489 395 433.5 c 128,-1,27
 442 378 442 378 442 280 c 1,21,-1
181 636 m 0,28,29
 210 636 210 636 210 663 c 2,30,-1
 210 671 l 2,31,32
 210 698 210 698 181 698 c 0,33,34
 151 698 151 698 151 671 c 2,35,-1
 151 663 l 2,36,37
 151 636 151 636 181 636 c 0,28,29
363 636 m 0,38,39
 393 636 393 636 393 663 c 2,40,-1
 393 671 l 2,41,42
 393 698 393 698 363 698 c 0,43,44
 334 698 334 698 334 671 c 2,45,-1
 334 663 l 2,46,47
 334 636 334 636 363 636 c 0,38,39
EndSplineSet
EndChar

StartChar: igrave
Encoding: 236 236 171
Width: 235
Flags: W
LayerCount: 2
Fore
SplineSet
135 0 m 1,0,-1
 135 508 l 1,1,-1
 100 508 l 1,2,-1
 100 0 l 1,3,-1
 135 0 l 1,0,-1
129 587 m 1,4,-1
 153 600 l 1,5,-1
 48 758 l 1,6,-1
 16 740 l 1,7,-1
 129 587 l 1,4,-1
EndSplineSet
EndChar

StartChar: iacute
Encoding: 237 237 172
Width: 235
Flags: W
LayerCount: 2
Fore
SplineSet
135 0 m 1,0,-1
 135 508 l 1,1,-1
 100 508 l 1,2,-1
 100 0 l 1,3,-1
 135 0 l 1,0,-1
106 587 m 1,4,-1
 219 740 l 1,5,-1
 187 758 l 1,6,-1
 82 600 l 1,7,-1
 106 587 l 1,4,-1
EndSplineSet
EndChar

StartChar: icircumflex
Encoding: 238 238 173
Width: 235
Flags: W
LayerCount: 2
Fore
SplineSet
135 0 m 1,0,-1
 135 508 l 1,1,-1
 100 508 l 1,2,-1
 100 0 l 1,3,-1
 135 0 l 1,0,-1
242 597 m 1,4,-1
 263 613 l 1,5,-1
 139 748 l 1,6,-1
 97 748 l 1,7,-1
 -27 613 l 1,8,-1
 -6 597 l 1,9,-1
 118 722 l 1,10,-1
 242 597 l 1,4,-1
EndSplineSet
EndChar

StartChar: idieresis
Encoding: 239 239 174
Width: 235
Flags: W
LayerCount: 2
Fore
SplineSet
135 0 m 1,0,-1
 135 508 l 1,1,-1
 100 508 l 1,2,-1
 100 0 l 1,3,-1
 135 0 l 1,0,-1
27 636 m 0,4,5
 56 636 56 636 56 663 c 2,6,-1
 56 671 l 2,7,8
 56 698 56 698 27 698 c 0,9,10
 -3 698 -3 698 -3 671 c 2,11,-1
 -3 663 l 2,12,13
 -3 636 -3 636 27 636 c 0,4,5
209 636 m 0,14,15
 239 636 239 636 239 663 c 2,16,-1
 239 671 l 2,17,18
 239 698 239 698 209 698 c 0,19,20
 180 698 180 698 180 671 c 2,21,-1
 180 663 l 2,22,23
 180 636 180 636 209 636 c 0,14,15
EndSplineSet
EndChar

StartChar: eth
Encoding: 240 240 175
Width: 548
Flags: W
LayerCount: 2
Fore
SplineSet
271 -12 m 256,0,1
 367 -12 367 -12 426.5 57 c 128,-1,2
 486 126 486 126 486 253 c 0,3,4
 486 374 486 374 431 488 c 0,5,6
 379 592 379 592 306 659 c 1,7,-1
 407 732 l 1,8,-1
 392 752 l 1,9,-1
 287 677 l 1,10,11
 242 716 242 716 202 740 c 1,12,-1
 145 740 l 1,13,14
 213 703 213 703 263 659 c 1,15,-1
 166 589 l 1,16,-1
 181 569 l 1,17,-1
 282 642 l 1,18,19
 378 553 378 553 429 418 c 1,20,-1
 426 416 l 1,21,22
 373 501 373 501 271 501 c 0,23,24
 175 501 175 501 116 434 c 128,-1,25
 57 367 57 367 57 248 c 0,26,27
 57 127 57 127 116 57.5 c 128,-1,28
 175 -12 175 -12 271 -12 c 256,0,1
271 19 m 256,29,30
 193 19 193 19 144 72.5 c 128,-1,31
 95 126 95 126 95 217 c 2,32,-1
 95 272 l 2,33,34
 95 364 95 364 144 417 c 128,-1,35
 193 470 193 470 271 470 c 256,36,37
 349 470 349 470 398.5 417 c 128,-1,38
 448 364 448 364 448 272 c 2,39,-1
 448 217 l 2,40,41
 448 126 448 126 398.5 72.5 c 128,-1,42
 349 19 349 19 271 19 c 256,29,30
EndSplineSet
EndChar

StartChar: ntilde
Encoding: 241 241 176
Width: 559
Flags: W
LayerCount: 2
Fore
SplineSet
467 0 m 1,0,-1
 467 326 l 2,1,2
 467 517 467 517 294 520 c 0,3,4
 228 520 228 520 190.5 494 c 128,-1,5
 153 468 153 468 138 430 c 1,6,-1
 135 430 l 1,7,-1
 135 508 l 1,8,-1
 100 508 l 1,9,-1
 100 0 l 1,10,-1
 135 0 l 1,11,-1
 135 361 l 2,12,13
 135 426 135 426 181.5 457.5 c 128,-1,14
 228 489 228 489 286 489 c 0,15,16
 432 489 432 489 432 320 c 2,17,-1
 432 0 l 1,18,-1
 467 0 l 1,0,-1
357 624 m 0,19,20
 404 624 404 624 440 666 c 1,21,-1
 423 685 l 1,22,23
 395 653 395 653 359 653 c 0,24,25
 345 653 345 653 330 659 c 128,-1,26
 315 665 315 665 292 679 c 0,27,28
 253 708 253 708 215 708 c 0,29,30
 169 708 169 708 132 666 c 1,31,-1
 149 647 l 1,32,33
 177 679 177 679 213 679 c 0,34,35
 227 679 227 679 242 673 c 128,-1,36
 257 667 257 667 280 653 c 0,37,38
 320 624 320 624 357 624 c 0,19,20
EndSplineSet
EndChar

StartChar: ograve
Encoding: 242 242 177
Width: 544
Flags: W
LayerCount: 2
Fore
SplineSet
272 -12 m 256,0,1
 372 -12 372 -12 429.5 56 c 128,-1,2
 487 124 487 124 487 254 c 0,3,4
 487 385 487 385 429.5 452.5 c 128,-1,5
 372 520 372 520 272 520 c 256,6,7
 172 520 172 520 114.5 452.5 c 128,-1,8
 57 385 57 385 57 254 c 0,9,10
 57 124 57 124 114.5 56 c 128,-1,11
 172 -12 172 -12 272 -12 c 256,0,1
272 19 m 256,12,13
 187 19 187 19 141 74.5 c 128,-1,14
 95 130 95 130 95 227 c 2,15,-1
 95 281 l 2,16,17
 95 379 95 379 141 434 c 128,-1,18
 187 489 187 489 272 489 c 256,19,20
 357 489 357 489 403 434 c 128,-1,21
 449 379 449 379 449 281 c 2,22,-1
 449 227 l 2,23,24
 449 130 449 130 403 74.5 c 128,-1,25
 357 19 357 19 272 19 c 256,12,13
284 587 m 1,26,-1
 308 600 l 1,27,-1
 203 758 l 1,28,-1
 171 740 l 1,29,-1
 284 587 l 1,26,-1
EndSplineSet
EndChar

StartChar: oacute
Encoding: 243 243 178
Width: 544
Flags: W
LayerCount: 2
Fore
SplineSet
272 -12 m 256,0,1
 372 -12 372 -12 429.5 56 c 128,-1,2
 487 124 487 124 487 254 c 0,3,4
 487 385 487 385 429.5 452.5 c 128,-1,5
 372 520 372 520 272 520 c 256,6,7
 172 520 172 520 114.5 452.5 c 128,-1,8
 57 385 57 385 57 254 c 0,9,10
 57 124 57 124 114.5 56 c 128,-1,11
 172 -12 172 -12 272 -12 c 256,0,1
272 19 m 256,12,13
 187 19 187 19 141 74.5 c 128,-1,14
 95 130 95 130 95 227 c 2,15,-1
 95 281 l 2,16,17
 95 379 95 379 141 434 c 128,-1,18
 187 489 187 489 272 489 c 256,19,20
 357 489 357 489 403 434 c 128,-1,21
 449 379 449 379 449 281 c 2,22,-1
 449 227 l 2,23,24
 449 130 449 130 403 74.5 c 128,-1,25
 357 19 357 19 272 19 c 256,12,13
261 587 m 1,26,-1
 374 740 l 1,27,-1
 342 758 l 1,28,-1
 237 600 l 1,29,-1
 261 587 l 1,26,-1
EndSplineSet
EndChar

StartChar: ocircumflex
Encoding: 244 244 179
Width: 544
Flags: W
LayerCount: 2
Fore
SplineSet
272 -12 m 256,0,1
 372 -12 372 -12 429.5 56 c 128,-1,2
 487 124 487 124 487 254 c 0,3,4
 487 385 487 385 429.5 452.5 c 128,-1,5
 372 520 372 520 272 520 c 256,6,7
 172 520 172 520 114.5 452.5 c 128,-1,8
 57 385 57 385 57 254 c 0,9,10
 57 124 57 124 114.5 56 c 128,-1,11
 172 -12 172 -12 272 -12 c 256,0,1
272 19 m 256,12,13
 187 19 187 19 141 74.5 c 128,-1,14
 95 130 95 130 95 227 c 2,15,-1
 95 281 l 2,16,17
 95 379 95 379 141 434 c 128,-1,18
 187 489 187 489 272 489 c 256,19,20
 357 489 357 489 403 434 c 128,-1,21
 449 379 449 379 449 281 c 2,22,-1
 449 227 l 2,23,24
 449 130 449 130 403 74.5 c 128,-1,25
 357 19 357 19 272 19 c 256,12,13
397 597 m 1,26,-1
 418 613 l 1,27,-1
 294 748 l 1,28,-1
 252 748 l 1,29,-1
 128 613 l 1,30,-1
 149 597 l 1,31,-1
 273 722 l 1,32,-1
 397 597 l 1,26,-1
EndSplineSet
EndChar

StartChar: otilde
Encoding: 245 245 180
Width: 544
Flags: W
LayerCount: 2
Fore
SplineSet
272 -12 m 256,0,1
 372 -12 372 -12 429.5 56 c 128,-1,2
 487 124 487 124 487 254 c 0,3,4
 487 385 487 385 429.5 452.5 c 128,-1,5
 372 520 372 520 272 520 c 256,6,7
 172 520 172 520 114.5 452.5 c 128,-1,8
 57 385 57 385 57 254 c 0,9,10
 57 124 57 124 114.5 56 c 128,-1,11
 172 -12 172 -12 272 -12 c 256,0,1
272 19 m 256,12,13
 187 19 187 19 141 74.5 c 128,-1,14
 95 130 95 130 95 227 c 2,15,-1
 95 281 l 2,16,17
 95 379 95 379 141 434 c 128,-1,18
 187 489 187 489 272 489 c 256,19,20
 357 489 357 489 403 434 c 128,-1,21
 449 379 449 379 449 281 c 2,22,-1
 449 227 l 2,23,24
 449 130 449 130 403 74.5 c 128,-1,25
 357 19 357 19 272 19 c 256,12,13
344 624 m 0,26,27
 391 624 391 624 427 666 c 1,28,-1
 410 685 l 1,29,30
 382 653 382 653 346 653 c 0,31,32
 332 653 332 653 317 659 c 128,-1,33
 302 665 302 665 279 679 c 0,34,35
 240 708 240 708 202 708 c 0,36,37
 156 708 156 708 119 666 c 1,38,-1
 136 647 l 1,39,40
 164 679 164 679 200 679 c 0,41,42
 214 679 214 679 229 673 c 128,-1,43
 244 667 244 667 267 653 c 0,44,45
 307 624 307 624 344 624 c 0,26,27
EndSplineSet
EndChar

StartChar: odieresis
Encoding: 246 246 181
Width: 544
Flags: W
LayerCount: 2
Fore
SplineSet
272 -12 m 256,0,1
 372 -12 372 -12 429.5 56 c 128,-1,2
 487 124 487 124 487 254 c 0,3,4
 487 385 487 385 429.5 452.5 c 128,-1,5
 372 520 372 520 272 520 c 256,6,7
 172 520 172 520 114.5 452.5 c 128,-1,8
 57 385 57 385 57 254 c 0,9,10
 57 124 57 124 114.5 56 c 128,-1,11
 172 -12 172 -12 272 -12 c 256,0,1
272 19 m 256,12,13
 187 19 187 19 141 74.5 c 128,-1,14
 95 130 95 130 95 227 c 2,15,-1
 95 281 l 2,16,17
 95 379 95 379 141 434 c 128,-1,18
 187 489 187 489 272 489 c 256,19,20
 357 489 357 489 403 434 c 128,-1,21
 449 379 449 379 449 281 c 2,22,-1
 449 227 l 2,23,24
 449 130 449 130 403 74.5 c 128,-1,25
 357 19 357 19 272 19 c 256,12,13
182 636 m 0,26,27
 211 636 211 636 211 663 c 2,28,-1
 211 671 l 2,29,30
 211 698 211 698 182 698 c 0,31,32
 152 698 152 698 152 671 c 2,33,-1
 152 663 l 2,34,35
 152 636 152 636 182 636 c 0,26,27
364 636 m 0,36,37
 394 636 394 636 394 663 c 2,38,-1
 394 671 l 2,39,40
 394 698 394 698 364 698 c 0,41,42
 335 698 335 698 335 671 c 2,43,-1
 335 663 l 2,44,45
 335 636 335 636 364 636 c 0,36,37
EndSplineSet
EndChar

StartChar: divide
Encoding: 247 247 182
Width: 600
Flags: W
LayerCount: 2
Fore
SplineSet
537 290 m 1,0,-1
 537 321 l 1,1,-1
 63 321 l 1,2,-1
 63 290 l 1,3,-1
 537 290 l 1,0,-1
300 74 m 0,4,5
 341 74 341 74 341 105 c 2,6,-1
 341 117 l 2,7,8
 341 149 341 149 300 149 c 0,9,10
 260 149 260 149 259 117 c 2,11,-1
 259 106 l 2,12,13
 259 92 259 92 269 83 c 128,-1,14
 279 74 279 74 300 74 c 0,4,5
300 461 m 0,15,16
 341 461 341 461 341 492 c 2,17,-1
 341 505 l 2,18,19
 341 519 341 519 331 528 c 128,-1,20
 321 537 321 537 300 537 c 0,21,22
 259 537 259 537 259 506 c 2,23,-1
 259 493 l 2,24,25
 259 479 259 479 269 470 c 128,-1,26
 279 461 279 461 300 461 c 0,15,16
EndSplineSet
EndChar

StartChar: oslash
Encoding: 248 248 183
Width: 544
Flags: W
LayerCount: 2
Fore
SplineSet
57 -29 m 1,0,-1
 121 50 l 1,1,2
 175 -12 175 -12 272 -12 c 0,3,4
 372 -12 372 -12 429.5 56 c 128,-1,5
 487 124 487 124 487 254 c 0,6,7
 487 374 487 374 438 441 c 1,8,-1
 509 529 l 1,9,-1
 488 545 l 1,10,-1
 421 462 l 1,11,12
 365 520 365 520 272 520 c 0,13,14
 172 520 172 520 114.5 452.5 c 128,-1,15
 57 385 57 385 57 254 c 0,16,17
 57 139 57 139 104 71 c 1,18,-1
 36 -13 l 1,19,-1
 57 -29 l 1,0,-1
272 19 m 0,20,21
 188 19 188 19 141 75 c 1,22,-1
 416 415 l 1,23,24
 449 362 449 362 449 281 c 2,25,-1
 449 227 l 2,26,27
 449 130 449 130 403 74.5 c 128,-1,28
 357 19 357 19 272 19 c 0,20,21
125 97 m 1,29,30
 95 149 95 149 95 227 c 2,31,-1
 95 281 l 2,32,33
 95 379 95 379 141 434 c 128,-1,34
 187 489 187 489 272 489 c 0,35,36
 355 489 355 489 400 436 c 1,37,-1
 125 97 l 1,29,30
EndSplineSet
EndChar

StartChar: ugrave
Encoding: 249 249 184
Width: 559
Flags: W
LayerCount: 2
Fore
SplineSet
265 -12 m 0,0,1
 333 -12 333 -12 369.5 15 c 128,-1,2
 406 42 406 42 420 78 c 1,3,-1
 424 78 l 1,4,-1
 424 0 l 1,5,-1
 459 0 l 1,6,-1
 459 508 l 1,7,-1
 424 508 l 1,8,-1
 424 148 l 2,9,10
 424 82 424 82 378 50.5 c 128,-1,11
 332 19 332 19 273 19 c 0,12,13
 126 19 126 19 126 188 c 2,14,-1
 126 508 l 1,15,-1
 91 508 l 1,16,-1
 91 182 l 2,17,18
 91 -8 91 -8 265 -12 c 0,0,1
287 587 m 1,19,-1
 311 600 l 1,20,-1
 206 758 l 1,21,-1
 174 740 l 1,22,-1
 287 587 l 1,19,-1
EndSplineSet
EndChar

StartChar: uacute
Encoding: 250 250 185
Width: 559
Flags: W
LayerCount: 2
Fore
SplineSet
265 -12 m 0,0,1
 333 -12 333 -12 369.5 15 c 128,-1,2
 406 42 406 42 420 78 c 1,3,-1
 424 78 l 1,4,-1
 424 0 l 1,5,-1
 459 0 l 1,6,-1
 459 508 l 1,7,-1
 424 508 l 1,8,-1
 424 148 l 2,9,10
 424 82 424 82 378 50.5 c 128,-1,11
 332 19 332 19 273 19 c 0,12,13
 126 19 126 19 126 188 c 2,14,-1
 126 508 l 1,15,-1
 91 508 l 1,16,-1
 91 182 l 2,17,18
 91 -8 91 -8 265 -12 c 0,0,1
264 587 m 1,19,-1
 377 740 l 1,20,-1
 345 758 l 1,21,-1
 240 600 l 1,22,-1
 264 587 l 1,19,-1
EndSplineSet
EndChar

StartChar: ucircumflex
Encoding: 251 251 186
Width: 559
Flags: W
LayerCount: 2
Fore
SplineSet
265 -12 m 0,0,1
 333 -12 333 -12 369.5 15 c 128,-1,2
 406 42 406 42 420 78 c 1,3,-1
 424 78 l 1,4,-1
 424 0 l 1,5,-1
 459 0 l 1,6,-1
 459 508 l 1,7,-1
 424 508 l 1,8,-1
 424 148 l 2,9,10
 424 82 424 82 378 50.5 c 128,-1,11
 332 19 332 19 273 19 c 0,12,13
 126 19 126 19 126 188 c 2,14,-1
 126 508 l 1,15,-1
 91 508 l 1,16,-1
 91 182 l 2,17,18
 91 -8 91 -8 265 -12 c 0,0,1
400 597 m 1,19,-1
 421 613 l 1,20,-1
 297 748 l 1,21,-1
 255 748 l 1,22,-1
 131 613 l 1,23,-1
 152 597 l 1,24,-1
 276 722 l 1,25,-1
 400 597 l 1,19,-1
EndSplineSet
EndChar

StartChar: udieresis
Encoding: 252 252 187
Width: 559
Flags: W
LayerCount: 2
Fore
SplineSet
265 -12 m 0,0,1
 333 -12 333 -12 369.5 15 c 128,-1,2
 406 42 406 42 420 78 c 1,3,-1
 424 78 l 1,4,-1
 424 0 l 1,5,-1
 459 0 l 1,6,-1
 459 508 l 1,7,-1
 424 508 l 1,8,-1
 424 148 l 2,9,10
 424 82 424 82 378 50.5 c 128,-1,11
 332 19 332 19 273 19 c 0,12,13
 126 19 126 19 126 188 c 2,14,-1
 126 508 l 1,15,-1
 91 508 l 1,16,-1
 91 182 l 2,17,18
 91 -8 91 -8 265 -12 c 0,0,1
185 636 m 0,19,20
 214 636 214 636 214 663 c 2,21,-1
 214 671 l 2,22,23
 214 698 214 698 185 698 c 0,24,25
 155 698 155 698 155 671 c 2,26,-1
 155 663 l 2,27,28
 155 636 155 636 185 636 c 0,19,20
367 636 m 0,29,30
 397 636 397 636 397 663 c 2,31,-1
 397 671 l 2,32,33
 397 698 397 698 367 698 c 0,34,35
 338 698 338 698 338 671 c 2,36,-1
 338 663 l 2,37,38
 338 636 338 636 367 636 c 0,29,30
EndSplineSet
EndChar

StartChar: yacute
Encoding: 253 253 188
Width: 462
Flags: W
LayerCount: 2
Fore
SplineSet
138 -200 m 2,0,1
 160 -200 160 -200 171 -192.5 c 128,-1,2
 182 -185 182 -185 190 -167 c 2,3,-1
 438 508 l 1,4,-1
 403 508 l 1,5,-1
 233 38 l 1,6,-1
 230 38 l 1,7,-1
 60 508 l 1,8,-1
 23 508 l 1,9,-1
 214 -10 l 1,10,-1
 154 -169 l 1,11,-1
 64 -169 l 1,12,-1
 64 -200 l 1,13,-1
 138 -200 l 2,0,1
221 587 m 1,14,-1
 334 740 l 1,15,-1
 302 758 l 1,16,-1
 197 600 l 1,17,-1
 221 587 l 1,14,-1
EndSplineSet
EndChar

StartChar: thorn
Encoding: 254 254 189
Width: 567
Flags: W
LayerCount: 2
Fore
SplineSet
135 -200 m 1,0,-1
 135 79 l 1,1,-1
 138 79 l 1,2,3
 155 42 155 42 195 15 c 128,-1,4
 235 -12 235 -12 299 -12 c 0,5,6
 399 -12 399 -12 454.5 55.5 c 128,-1,7
 510 123 510 123 510 254 c 256,8,9
 510 385 510 385 454.5 452.5 c 128,-1,10
 399 520 399 520 299 520 c 0,11,12
 235 520 235 520 195 493.5 c 128,-1,13
 155 467 155 467 138 429 c 1,14,-1
 135 429 l 1,15,-1
 135 740 l 1,16,-1
 100 740 l 1,17,-1
 100 -200 l 1,18,-1
 135 -200 l 1,0,-1
294 20 m 0,19,20
 230 20 230 20 182.5 56.5 c 128,-1,21
 135 93 135 93 135 148 c 2,22,-1
 135 362 l 2,23,24
 135 418 135 418 182.5 453.5 c 128,-1,25
 230 489 230 489 294 489 c 0,26,27
 379 489 379 489 425.5 433.5 c 128,-1,28
 472 378 472 378 472 283 c 2,29,-1
 472 225 l 2,30,31
 472 130 472 130 425.5 75 c 128,-1,32
 379 20 379 20 294 20 c 0,19,20
EndSplineSet
EndChar

StartChar: ydieresis
Encoding: 255 255 190
Width: 462
Flags: W
LayerCount: 2
Fore
SplineSet
138 -200 m 2,0,1
 160 -200 160 -200 171 -192.5 c 128,-1,2
 182 -185 182 -185 190 -167 c 2,3,-1
 438 508 l 1,4,-1
 403 508 l 1,5,-1
 233 38 l 1,6,-1
 230 38 l 1,7,-1
 60 508 l 1,8,-1
 23 508 l 1,9,-1
 214 -10 l 1,10,-1
 154 -169 l 1,11,-1
 64 -169 l 1,12,-1
 64 -200 l 1,13,-1
 138 -200 l 2,0,1
142 636 m 0,14,15
 171 636 171 636 171 663 c 2,16,-1
 171 671 l 2,17,18
 171 698 171 698 142 698 c 0,19,20
 112 698 112 698 112 671 c 2,21,-1
 112 663 l 2,22,23
 112 636 112 636 142 636 c 0,14,15
324 636 m 0,24,25
 354 636 354 636 354 663 c 2,26,-1
 354 671 l 2,27,28
 354 698 354 698 324 698 c 0,29,30
 295 698 295 698 295 671 c 2,31,-1
 295 663 l 2,32,33
 295 636 295 636 324 636 c 0,24,25
EndSplineSet
EndChar

StartChar: Amacron
Encoding: 256 256 191
Width: 610
Flags: W
LayerCount: 2
Fore
SplineSet
580 0 m 1,0,-1
 329 698 l 1,1,-1
 281 698 l 1,2,-1
 30 0 l 1,3,-1
 68 0 l 1,4,-1
 149 227 l 1,5,-1
 460 227 l 1,6,-1
 541 0 l 1,7,-1
 580 0 l 1,0,-1
450 259 m 1,8,-1
 159 259 l 1,9,-1
 302 662 l 1,10,-1
 306 662 l 1,11,-1
 450 259 l 1,8,-1
436 831 m 1,12,-1
 436 861 l 1,13,-1
 172 861 l 1,14,-1
 172 831 l 1,15,-1
 436 831 l 1,12,-1
EndSplineSet
EndChar

StartChar: amacron
Encoding: 257 257 192
Width: 522
Flags: W
LayerCount: 2
Fore
SplineSet
383 653 m 1,0,-1
 383 683 l 1,1,-1
 119 683 l 1,2,-1
 119 653 l 1,3,-1
 383 653 l 1,0,-1
222 -12 m 0,4,5
 143 -12 143 -12 100 26 c 128,-1,6
 57 64 57 64 57 133 c 0,7,8
 57 203 57 203 101 240 c 0,9,10
 145 280 145 280 254 280 c 2,11,-1
 387 280 l 1,12,-1
 387 348 l 2,13,14
 387 489 387 489 254 489 c 2,15,-1
 248 489 l 2,16,17
 142 489 142 489 100 399 c 1,18,-1
 75 416 l 1,19,20
 118 520 118 520 249 520 c 0,21,22
 419 520 419 520 422 352 c 2,23,-1
 422 0 l 1,24,-1
 388 0 l 1,25,-1
 388 79 l 1,26,-1
 384 79 l 1,27,28
 343 -12 343 -12 222 -12 c 0,4,5
225 19 m 0,29,30
 291 19 291 19 339 52.5 c 128,-1,31
 387 86 387 86 387 148 c 2,32,-1
 387 252 l 1,33,-1
 254 252 l 2,34,35
 170 252 170 252 132 223.5 c 128,-1,36
 94 195 94 195 94 148 c 2,37,-1
 94 120 l 2,38,39
 94 70 94 70 130.5 44.5 c 128,-1,40
 167 19 167 19 225 19 c 0,29,30
EndSplineSet
EndChar

StartChar: Abreve
Encoding: 258 258 193
Width: 610
Flags: W
LayerCount: 2
Fore
SplineSet
580 0 m 1,0,-1
 329 698 l 1,1,-1
 281 698 l 1,2,-1
 30 0 l 1,3,-1
 68 0 l 1,4,-1
 149 227 l 1,5,-1
 460 227 l 1,6,-1
 541 0 l 1,7,-1
 580 0 l 1,0,-1
450 259 m 1,8,-1
 159 259 l 1,9,-1
 302 662 l 1,10,-1
 306 662 l 1,11,-1
 450 259 l 1,8,-1
304 781 m 0,12,13
 333 781 333 781 354 790 c 0,14,15
 403 812 403 812 441 900 c 1,16,-1
 418 911 l 1,17,-1
 401 882 l 2,18,19
 379 841 379 841 358.5 826 c 128,-1,20
 338 811 338 811 304 811 c 256,21,22
 270 811 270 811 249.5 826 c 128,-1,23
 229 841 229 841 207 882 c 2,24,-1
 190 911 l 1,25,-1
 167 900 l 1,26,27
 190 846 190 846 220.5 813.5 c 128,-1,28
 251 781 251 781 304 781 c 0,12,13
EndSplineSet
EndChar

StartChar: abreve
Encoding: 259 259 194
Width: 522
Flags: W
LayerCount: 2
Fore
SplineSet
251 604 m 0,0,1
 280 604 280 604 301 613 c 0,2,3
 350 635 350 635 388 723 c 1,4,-1
 365 733 l 1,5,-1
 348 705 l 2,6,7
 326 664 326 664 305.5 648.5 c 128,-1,8
 285 633 285 633 251 633 c 256,9,10
 217 633 217 633 196.5 648.5 c 128,-1,11
 176 664 176 664 154 705 c 2,12,-1
 137 733 l 1,13,-1
 114 723 l 1,14,15
 137 669 137 669 167.5 636.5 c 128,-1,16
 198 604 198 604 251 604 c 0,0,1
222 -12 m 0,17,18
 143 -12 143 -12 100 26 c 128,-1,19
 57 64 57 64 57 133 c 0,20,21
 57 203 57 203 101 240 c 0,22,23
 145 280 145 280 254 280 c 2,24,-1
 387 280 l 1,25,-1
 387 348 l 2,26,27
 387 489 387 489 254 489 c 2,28,-1
 248 489 l 2,29,30
 142 489 142 489 100 399 c 1,31,-1
 75 416 l 1,32,33
 118 520 118 520 249 520 c 0,34,35
 419 520 419 520 422 352 c 2,36,-1
 422 0 l 1,37,-1
 388 0 l 1,38,-1
 388 79 l 1,39,-1
 384 79 l 1,40,41
 343 -12 343 -12 222 -12 c 0,17,18
225 19 m 0,42,43
 291 19 291 19 339 52.5 c 128,-1,44
 387 86 387 86 387 148 c 2,45,-1
 387 252 l 1,46,-1
 254 252 l 2,47,48
 170 252 170 252 132 223.5 c 128,-1,49
 94 195 94 195 94 148 c 2,50,-1
 94 120 l 2,51,52
 94 70 94 70 130.5 44.5 c 128,-1,53
 167 19 167 19 225 19 c 0,42,43
EndSplineSet
EndChar

StartChar: Aogonek
Encoding: 260 260 195
Width: 610
Flags: W
LayerCount: 2
Fore
SplineSet
525 -203 m 0,0,1
 581 -203 581 -203 603 -170 c 1,2,-1
 583 -152 l 1,3,4
 563 -177 563 -177 526 -177 c 0,5,6
 503 -177 503 -177 488 -166 c 128,-1,7
 473 -155 473 -155 473 -130 c 0,8,9
 473 -98 473 -98 498.5 -69 c 128,-1,10
 524 -40 524 -40 580 0 c 1,11,-1
 329 698 l 1,12,-1
 281 698 l 1,13,-1
 30 0 l 1,14,-1
 68 0 l 1,15,-1
 149 227 l 1,16,-1
 461 227 l 1,17,-1
 541 0 l 1,18,-1
 548 0 l 1,19,-1
 548 -1 l 1,20,21
 490 -36 490 -36 466 -68.5 c 128,-1,22
 442 -101 442 -101 442 -133 c 0,23,24
 442 -168 442 -168 466 -185.5 c 128,-1,25
 490 -203 490 -203 525 -203 c 0,0,1
450 259 m 1,26,-1
 159 259 l 1,27,-1
 302 662 l 1,28,-1
 306 662 l 1,29,-1
 450 259 l 1,26,-1
EndSplineSet
EndChar

StartChar: aogonek
Encoding: 261 261 196
Width: 522
Flags: W
LayerCount: 2
Fore
SplineSet
383 -203 m 0,0,1
 348 -203 348 -203 324 -185.5 c 128,-1,2
 300 -168 300 -168 300 -133 c 0,3,4
 300 -97 300 -97 323.5 -66.5 c 128,-1,5
 347 -36 347 -36 392 -1 c 1,6,-1
 392 0 l 1,7,-1
 388 0 l 1,8,-1
 388 79 l 1,9,-1
 384 79 l 1,10,11
 343 -12 343 -12 222 -12 c 0,12,13
 143 -12 143 -12 100 26 c 128,-1,14
 57 64 57 64 57 133 c 0,15,16
 57 203 57 203 101 240 c 0,17,18
 145 280 145 280 254 280 c 2,19,-1
 387 280 l 1,20,-1
 387 348 l 2,21,22
 387 489 387 489 254 489 c 2,23,-1
 248 489 l 2,24,25
 142 489 142 489 100 399 c 1,26,-1
 75 416 l 1,27,28
 118 520 118 520 249 520 c 0,29,30
 419 520 419 520 422 352 c 2,31,-1
 422 0 l 1,32,33
 374 -44 374 -44 352.5 -71 c 128,-1,34
 331 -98 331 -98 331 -128 c 0,35,36
 331 -177 331 -177 383 -177 c 0,37,38
 421 -177 421 -177 441 -152 c 1,39,-1
 461 -170 l 1,40,41
 439 -203 439 -203 383 -203 c 0,0,1
225 19 m 0,42,43
 291 19 291 19 339 52.5 c 128,-1,44
 387 86 387 86 387 148 c 2,45,-1
 387 252 l 1,46,-1
 254 252 l 2,47,48
 170 252 170 252 132 223.5 c 128,-1,49
 94 195 94 195 94 148 c 2,50,-1
 94 120 l 2,51,52
 94 70 94 70 130.5 44.5 c 128,-1,53
 167 19 167 19 225 19 c 0,42,43
EndSplineSet
EndChar

StartChar: Cacute
Encoding: 262 262 197
Width: 613
Flags: W
LayerCount: 2
Fore
SplineSet
331 -12 m 0,0,1
 414 -12 414 -12 471.5 29.5 c 128,-1,2
 529 71 529 71 558 142 c 1,3,-1
 528 158 l 1,4,5
 503 94 503 94 453.5 57.5 c 128,-1,6
 404 21 404 21 331 21 c 0,7,8
 226 21 226 21 166.5 96 c 128,-1,9
 107 171 107 171 107 320 c 2,10,-1
 107 376 l 2,11,12
 107 525 107 525 166.5 601 c 128,-1,13
 226 677 226 677 331 677 c 0,14,15
 399 677 399 677 447.5 643 c 128,-1,16
 496 609 496 609 522 548 c 1,17,-1
 553 565 l 1,18,19
 524 632 524 632 467.5 671 c 128,-1,20
 411 710 411 710 331 710 c 0,21,22
 205 710 205 710 136 619 c 128,-1,23
 67 528 67 528 67 348 c 256,24,25
 67 168 67 168 136 78 c 128,-1,26
 205 -12 205 -12 331 -12 c 0,0,1
319 764 m 1,27,-1
 432 918 l 1,28,-1
 400 935 l 1,29,-1
 295 777 l 1,30,-1
 319 764 l 1,27,-1
EndSplineSet
EndChar

StartChar: cacute
Encoding: 263 263 198
Width: 491
Flags: W
LayerCount: 2
Fore
SplineSet
272 -12 m 0,0,1
 398 -12 398 -12 451 90 c 1,2,-1
 425 108 l 1,3,4
 402 66 402 66 365.5 42.5 c 128,-1,5
 329 19 329 19 272 19 c 0,6,7
 186 19 186 19 140.5 75 c 128,-1,8
 95 131 95 131 95 225 c 2,9,-1
 95 283 l 2,10,11
 95 377 95 377 140.5 433 c 128,-1,12
 186 489 186 489 272 489 c 0,13,14
 325 489 325 489 359 466 c 128,-1,15
 393 443 393 443 414 400 c 1,16,-1
 443 415 l 1,17,18
 393 520 393 520 272 520 c 0,19,20
 170 520 170 520 113.5 452.5 c 128,-1,21
 57 385 57 385 57 254 c 0,22,23
 57 124 57 124 113.5 56 c 128,-1,24
 170 -12 170 -12 272 -12 c 0,0,1
260 587 m 1,25,-1
 373 740 l 1,26,-1
 341 758 l 1,27,-1
 236 600 l 1,28,-1
 260 587 l 1,25,-1
EndSplineSet
EndChar

StartChar: Ccircumflex
Encoding: 264 264 199
Width: 613
Flags: W
LayerCount: 2
Fore
SplineSet
331 -12 m 0,0,1
 414 -12 414 -12 471.5 29.5 c 128,-1,2
 529 71 529 71 558 142 c 1,3,-1
 528 158 l 1,4,5
 503 94 503 94 453.5 57.5 c 128,-1,6
 404 21 404 21 331 21 c 0,7,8
 226 21 226 21 166.5 96 c 128,-1,9
 107 171 107 171 107 320 c 2,10,-1
 107 376 l 2,11,12
 107 525 107 525 166.5 601 c 128,-1,13
 226 677 226 677 331 677 c 0,14,15
 399 677 399 677 447.5 643 c 128,-1,16
 496 609 496 609 522 548 c 1,17,-1
 553 565 l 1,18,19
 524 632 524 632 467.5 671 c 128,-1,20
 411 710 411 710 331 710 c 0,21,22
 205 710 205 710 136 619 c 128,-1,23
 67 528 67 528 67 348 c 256,24,25
 67 168 67 168 136 78 c 128,-1,26
 205 -12 205 -12 331 -12 c 0,0,1
455 775 m 1,27,-1
 476 790 l 1,28,-1
 352 926 l 1,29,-1
 310 926 l 1,30,-1
 186 790 l 1,31,-1
 207 775 l 1,32,-1
 331 899 l 1,33,-1
 455 775 l 1,27,-1
EndSplineSet
EndChar

StartChar: ccircumflex
Encoding: 265 265 200
Width: 491
Flags: W
LayerCount: 2
Fore
SplineSet
272 -12 m 0,0,1
 398 -12 398 -12 451 90 c 1,2,-1
 425 108 l 1,3,4
 402 66 402 66 365.5 42.5 c 128,-1,5
 329 19 329 19 272 19 c 0,6,7
 186 19 186 19 140.5 75 c 128,-1,8
 95 131 95 131 95 225 c 2,9,-1
 95 283 l 2,10,11
 95 377 95 377 140.5 433 c 128,-1,12
 186 489 186 489 272 489 c 0,13,14
 325 489 325 489 359 466 c 128,-1,15
 393 443 393 443 414 400 c 1,16,-1
 443 415 l 1,17,18
 393 520 393 520 272 520 c 0,19,20
 170 520 170 520 113.5 452.5 c 128,-1,21
 57 385 57 385 57 254 c 0,22,23
 57 124 57 124 113.5 56 c 128,-1,24
 170 -12 170 -12 272 -12 c 0,0,1
396 597 m 1,25,-1
 417 613 l 1,26,-1
 293 748 l 1,27,-1
 251 748 l 1,28,-1
 127 613 l 1,29,-1
 148 597 l 1,30,-1
 272 722 l 1,31,-1
 396 597 l 1,25,-1
EndSplineSet
EndChar

StartChar: Cdot
Encoding: 266 266 201
Width: 613
Flags: W
LayerCount: 2
Fore
SplineSet
331 -12 m 0,0,1
 414 -12 414 -12 471.5 29.5 c 128,-1,2
 529 71 529 71 558 142 c 1,3,-1
 528 158 l 1,4,5
 503 94 503 94 453.5 57.5 c 128,-1,6
 404 21 404 21 331 21 c 0,7,8
 226 21 226 21 166.5 96 c 128,-1,9
 107 171 107 171 107 320 c 2,10,-1
 107 376 l 2,11,12
 107 525 107 525 166.5 601 c 128,-1,13
 226 677 226 677 331 677 c 0,14,15
 399 677 399 677 447.5 643 c 128,-1,16
 496 609 496 609 522 548 c 1,17,-1
 553 565 l 1,18,19
 524 632 524 632 467.5 671 c 128,-1,20
 411 710 411 710 331 710 c 0,21,22
 205 710 205 710 136 619 c 128,-1,23
 67 528 67 528 67 348 c 256,24,25
 67 168 67 168 136 78 c 128,-1,26
 205 -12 205 -12 331 -12 c 0,0,1
331 812 m 256,27,28
 362 812 362 812 362 841 c 2,29,-1
 362 849 l 2,30,31
 362 878 362 878 331 878 c 256,32,33
 300 878 300 878 300 849 c 2,34,-1
 300 841 l 2,35,36
 300 812 300 812 331 812 c 256,27,28
EndSplineSet
EndChar

StartChar: cdot
Encoding: 267 267 202
Width: 491
Flags: W
LayerCount: 2
Fore
SplineSet
272 -12 m 0,0,1
 398 -12 398 -12 451 90 c 1,2,-1
 425 108 l 1,3,4
 402 66 402 66 365.5 42.5 c 128,-1,5
 329 19 329 19 272 19 c 0,6,7
 186 19 186 19 140.5 75 c 128,-1,8
 95 131 95 131 95 225 c 2,9,-1
 95 283 l 2,10,11
 95 377 95 377 140.5 433 c 128,-1,12
 186 489 186 489 272 489 c 0,13,14
 325 489 325 489 359 466 c 128,-1,15
 393 443 393 443 414 400 c 1,16,-1
 443 415 l 1,17,18
 393 520 393 520 272 520 c 0,19,20
 170 520 170 520 113.5 452.5 c 128,-1,21
 57 385 57 385 57 254 c 0,22,23
 57 124 57 124 113.5 56 c 128,-1,24
 170 -12 170 -12 272 -12 c 0,0,1
272 636 m 256,25,26
 288 636 288 636 295 644 c 128,-1,27
 302 652 302 652 302 663 c 2,28,-1
 302 671 l 2,29,30
 302 682 302 682 295 690 c 128,-1,31
 288 698 288 698 272 698 c 256,32,33
 256 698 256 698 249 690 c 128,-1,34
 242 682 242 682 242 671 c 2,35,-1
 242 663 l 2,36,37
 242 652 242 652 249 644 c 128,-1,38
 256 636 256 636 272 636 c 256,25,26
EndSplineSet
EndChar

StartChar: Ccaron
Encoding: 268 268 203
Width: 613
Flags: W
LayerCount: 2
Fore
SplineSet
331 -12 m 0,0,1
 414 -12 414 -12 471.5 29.5 c 128,-1,2
 529 71 529 71 558 142 c 1,3,-1
 528 158 l 1,4,5
 503 94 503 94 453.5 57.5 c 128,-1,6
 404 21 404 21 331 21 c 0,7,8
 226 21 226 21 166.5 96 c 128,-1,9
 107 171 107 171 107 320 c 2,10,-1
 107 376 l 2,11,12
 107 525 107 525 166.5 601 c 128,-1,13
 226 677 226 677 331 677 c 0,14,15
 399 677 399 677 447.5 643 c 128,-1,16
 496 609 496 609 522 548 c 1,17,-1
 553 565 l 1,18,19
 524 632 524 632 467.5 671 c 128,-1,20
 411 710 411 710 331 710 c 0,21,22
 205 710 205 710 136 619 c 128,-1,23
 67 528 67 528 67 348 c 256,24,25
 67 168 67 168 136 78 c 128,-1,26
 205 -12 205 -12 331 -12 c 0,0,1
352 780 m 1,27,-1
 476 915 l 1,28,-1
 455 931 l 1,29,-1
 331 806 l 1,30,-1
 207 931 l 1,31,-1
 186 915 l 1,32,-1
 310 780 l 1,33,-1
 352 780 l 1,27,-1
EndSplineSet
EndChar

StartChar: ccaron
Encoding: 269 269 204
Width: 491
Flags: W
LayerCount: 2
Fore
SplineSet
272 -12 m 0,0,1
 398 -12 398 -12 451 90 c 1,2,-1
 425 108 l 1,3,4
 402 66 402 66 365.5 42.5 c 128,-1,5
 329 19 329 19 272 19 c 0,6,7
 186 19 186 19 140.5 75 c 128,-1,8
 95 131 95 131 95 225 c 2,9,-1
 95 283 l 2,10,11
 95 377 95 377 140.5 433 c 128,-1,12
 186 489 186 489 272 489 c 0,13,14
 325 489 325 489 359 466 c 128,-1,15
 393 443 393 443 414 400 c 1,16,-1
 443 415 l 1,17,18
 393 520 393 520 272 520 c 0,19,20
 170 520 170 520 113.5 452.5 c 128,-1,21
 57 385 57 385 57 254 c 0,22,23
 57 124 57 124 113.5 56 c 128,-1,24
 170 -12 170 -12 272 -12 c 0,0,1
293 602 m 1,25,-1
 417 737 l 1,26,-1
 396 753 l 1,27,-1
 272 629 l 1,28,-1
 148 753 l 1,29,-1
 127 737 l 1,30,-1
 251 602 l 1,31,-1
 293 602 l 1,25,-1
EndSplineSet
EndChar

StartChar: Dcaron
Encoding: 270 270 205
Width: 661
Flags: W
LayerCount: 2
Fore
SplineSet
316 0 m 2,0,1
 592 0 592 0 594 349 c 0,2,3
 594 697 594 697 316 698 c 2,4,-1
 104 698 l 1,5,-1
 104 0 l 1,6,-1
 316 0 l 2,0,1
316 33 m 2,7,-1
 141 33 l 1,8,-1
 141 665 l 1,9,-1
 316 665 l 2,10,11
 436 665 436 665 495 589 c 128,-1,12
 554 513 554 513 554 385 c 2,13,-1
 554 313 l 2,14,15
 554 186 554 186 495 109.5 c 128,-1,16
 436 33 436 33 316 33 c 2,7,-1
322 780 m 1,17,-1
 446 915 l 1,18,-1
 425 931 l 1,19,-1
 301 806 l 1,20,-1
 177 931 l 1,21,-1
 156 915 l 1,22,-1
 280 780 l 1,23,-1
 322 780 l 1,17,-1
EndSplineSet
EndChar

StartChar: dcaron
Encoding: 271 271 206
Width: 567
Flags: W
LayerCount: 2
Fore
SplineSet
268 -12 m 0,0,1
 332 -12 332 -12 372 15 c 128,-1,2
 412 42 412 42 429 79 c 1,3,-1
 432 79 l 1,4,-1
 432 0 l 1,5,-1
 467 0 l 1,6,-1
 467 740 l 1,7,-1
 432 740 l 1,8,-1
 432 429 l 1,9,-1
 429 429 l 1,10,11
 412 467 412 467 372 493.5 c 128,-1,12
 332 520 332 520 268 520 c 0,13,14
 168 520 168 520 112.5 452.5 c 128,-1,15
 57 385 57 385 57 254 c 256,16,17
 57 123 57 123 112.5 55.5 c 128,-1,18
 168 -12 168 -12 268 -12 c 0,0,1
273 20 m 0,19,20
 188 20 188 20 141.5 75 c 128,-1,21
 95 130 95 130 95 225 c 2,22,-1
 95 283 l 2,23,24
 95 378 95 378 141.5 433.5 c 128,-1,25
 188 489 188 489 273 489 c 0,26,27
 338 489 338 489 385 453.5 c 128,-1,28
 432 418 432 418 432 362 c 2,29,-1
 432 148 l 2,30,31
 432 93 432 93 385 55 c 0,32,33
 338 20 338 20 273 20 c 0,19,20
573 562 m 1,34,-1
 604 740 l 1,35,-1
 563 740 l 1,36,-1
 548 562 l 1,37,-1
 573 562 l 1,34,-1
EndSplineSet
EndChar

StartChar: Dcroat
Encoding: 272 272 207
Width: 664
Flags: W
LayerCount: 2
Fore
SplineSet
319 0 m 2,0,1
 595 0 595 0 597 349 c 0,2,3
 597 697 597 697 319 698 c 2,4,-1
 107 698 l 1,5,-1
 107 384 l 1,6,-1
 25 384 l 1,7,-1
 25 354 l 1,8,-1
 107 354 l 1,9,-1
 107 0 l 1,10,-1
 319 0 l 2,0,1
319 33 m 2,11,-1
 144 33 l 1,12,-1
 144 354 l 1,13,-1
 308 354 l 1,14,-1
 308 384 l 1,15,-1
 144 384 l 1,16,-1
 144 665 l 1,17,-1
 319 665 l 2,18,19
 439 665 439 665 498 589 c 128,-1,20
 557 513 557 513 557 385 c 2,21,-1
 557 313 l 2,22,23
 557 186 557 186 498 109.5 c 128,-1,24
 439 33 439 33 319 33 c 2,11,-1
EndSplineSet
EndChar

StartChar: dcroat
Encoding: 273 273 208
Width: 570
Flags: W
LayerCount: 2
Fore
SplineSet
268 -12 m 0,0,1
 332 -12 332 -12 372 15 c 128,-1,2
 412 42 412 42 429 79 c 1,3,-1
 432 79 l 1,4,-1
 432 0 l 1,5,-1
 467 0 l 1,6,-1
 467 623 l 1,7,-1
 533 623 l 1,8,-1
 533 652 l 1,9,-1
 467 652 l 1,10,-1
 467 740 l 1,11,-1
 432 740 l 1,12,-1
 432 652 l 1,13,-1
 272 652 l 1,14,-1
 272 623 l 1,15,-1
 432 623 l 1,16,-1
 432 429 l 1,17,-1
 429 429 l 1,18,19
 412 467 412 467 372 493.5 c 128,-1,20
 332 520 332 520 268 520 c 0,21,22
 168 520 168 520 112.5 452.5 c 128,-1,23
 57 385 57 385 57 254 c 256,24,25
 57 123 57 123 112.5 55.5 c 128,-1,26
 168 -12 168 -12 268 -12 c 0,0,1
273 20 m 0,27,28
 188 20 188 20 141.5 75 c 128,-1,29
 95 130 95 130 95 225 c 2,30,-1
 95 283 l 2,31,32
 95 378 95 378 141.5 433.5 c 128,-1,33
 188 489 188 489 273 489 c 0,34,35
 338 489 338 489 385 453.5 c 128,-1,36
 432 418 432 418 432 362 c 2,37,-1
 432 148 l 2,38,39
 432 93 432 93 385 55 c 0,40,41
 338 20 338 20 273 20 c 0,27,28
EndSplineSet
EndChar

StartChar: Emacron
Encoding: 274 274 209
Width: 566
Flags: W
LayerCount: 2
Fore
SplineSet
496 0 m 1,0,-1
 496 33 l 1,1,-1
 141 33 l 1,2,-1
 141 338 l 1,3,-1
 482 338 l 1,4,-1
 482 371 l 1,5,-1
 141 371 l 1,6,-1
 141 665 l 1,7,-1
 496 665 l 1,8,-1
 496 698 l 1,9,-1
 104 698 l 1,10,-1
 104 0 l 1,11,-1
 496 0 l 1,0,-1
432 831 m 1,12,-1
 432 861 l 1,13,-1
 168 861 l 1,14,-1
 168 831 l 1,15,-1
 432 831 l 1,12,-1
EndSplineSet
EndChar

StartChar: emacron
Encoding: 275 275 210
Width: 537
Flags: W
LayerCount: 2
Fore
SplineSet
275 -12 m 0,0,1
 348 -12 348 -12 397 23.5 c 128,-1,2
 446 59 446 59 469 120 c 1,3,-1
 442 135 l 1,4,5
 397 19 397 19 275 19 c 0,6,7
 190 19 190 19 142 75 c 128,-1,8
 94 131 94 131 94 225 c 2,9,-1
 94 252 l 1,10,-1
 480 252 l 1,11,-1
 480 268 l 2,12,13
 480 382 480 382 423 451 c 128,-1,14
 366 520 366 520 271 520 c 0,15,16
 171 520 171 520 114 451.5 c 128,-1,17
 57 383 57 383 57 254 c 0,18,19
 57 124 57 124 115.5 56 c 128,-1,20
 174 -12 174 -12 275 -12 c 0,0,1
442 280 m 1,21,-1
 94 280 l 1,22,23
 94 376 94 376 140.5 432.5 c 128,-1,24
 187 489 187 489 271 489 c 0,25,26
 348 489 348 489 395 433.5 c 128,-1,27
 442 378 442 378 442 280 c 1,21,-1
404 653 m 1,28,-1
 404 683 l 1,29,-1
 140 683 l 1,30,-1
 140 653 l 1,31,-1
 404 653 l 1,28,-1
EndSplineSet
EndChar

StartChar: Ebreve
Encoding: 276 276 211
Width: 566
Flags: W
LayerCount: 2
Fore
SplineSet
496 0 m 1,0,-1
 496 33 l 1,1,-1
 141 33 l 1,2,-1
 141 338 l 1,3,-1
 482 338 l 1,4,-1
 482 371 l 1,5,-1
 141 371 l 1,6,-1
 141 665 l 1,7,-1
 496 665 l 1,8,-1
 496 698 l 1,9,-1
 104 698 l 1,10,-1
 104 0 l 1,11,-1
 496 0 l 1,0,-1
300 781 m 0,12,13
 329 781 329 781 350 790 c 0,14,15
 399 812 399 812 437 900 c 1,16,-1
 414 911 l 1,17,-1
 397 882 l 2,18,19
 375 841 375 841 354.5 826 c 128,-1,20
 334 811 334 811 300 811 c 256,21,22
 266 811 266 811 245.5 826 c 128,-1,23
 225 841 225 841 203 882 c 2,24,-1
 186 911 l 1,25,-1
 163 900 l 1,26,27
 186 846 186 846 216.5 813.5 c 128,-1,28
 247 781 247 781 300 781 c 0,12,13
EndSplineSet
EndChar

StartChar: ebreve
Encoding: 277 277 212
Width: 537
Flags: W
LayerCount: 2
Fore
SplineSet
275 -12 m 0,0,1
 348 -12 348 -12 397 23.5 c 128,-1,2
 446 59 446 59 469 120 c 1,3,-1
 442 135 l 1,4,5
 397 19 397 19 275 19 c 0,6,7
 190 19 190 19 142 75 c 128,-1,8
 94 131 94 131 94 225 c 2,9,-1
 94 252 l 1,10,-1
 480 252 l 1,11,-1
 480 268 l 2,12,13
 480 382 480 382 423 451 c 128,-1,14
 366 520 366 520 271 520 c 0,15,16
 171 520 171 520 114 451.5 c 128,-1,17
 57 383 57 383 57 254 c 0,18,19
 57 124 57 124 115.5 56 c 128,-1,20
 174 -12 174 -12 275 -12 c 0,0,1
442 280 m 1,21,-1
 94 280 l 1,22,23
 94 376 94 376 140.5 432.5 c 128,-1,24
 187 489 187 489 271 489 c 0,25,26
 348 489 348 489 395 433.5 c 128,-1,27
 442 378 442 378 442 280 c 1,21,-1
272 604 m 0,28,29
 301 604 301 604 322 613 c 0,30,31
 371 635 371 635 409 723 c 1,32,-1
 386 733 l 1,33,-1
 369 705 l 2,34,35
 347 664 347 664 326.5 648.5 c 128,-1,36
 306 633 306 633 272 633 c 256,37,38
 238 633 238 633 217.5 648.5 c 128,-1,39
 197 664 197 664 175 705 c 2,40,-1
 158 733 l 1,41,-1
 135 723 l 1,42,43
 158 669 158 669 188.5 636.5 c 128,-1,44
 219 604 219 604 272 604 c 0,28,29
EndSplineSet
EndChar

StartChar: Edot
Encoding: 278 278 213
Width: 566
Flags: W
LayerCount: 2
Fore
SplineSet
496 0 m 1,0,-1
 496 33 l 1,1,-1
 141 33 l 1,2,-1
 141 338 l 1,3,-1
 482 338 l 1,4,-1
 482 371 l 1,5,-1
 141 371 l 1,6,-1
 141 665 l 1,7,-1
 496 665 l 1,8,-1
 496 698 l 1,9,-1
 104 698 l 1,10,-1
 104 0 l 1,11,-1
 496 0 l 1,0,-1
300 812 m 256,12,13
 331 812 331 812 331 841 c 2,14,-1
 331 849 l 2,15,16
 331 878 331 878 300 878 c 256,17,18
 269 878 269 878 269 849 c 2,19,-1
 269 841 l 2,20,21
 269 812 269 812 300 812 c 256,12,13
EndSplineSet
EndChar

StartChar: edot
Encoding: 279 279 214
Width: 537
Flags: W
LayerCount: 2
Fore
SplineSet
275 -12 m 0,0,1
 348 -12 348 -12 397 23.5 c 128,-1,2
 446 59 446 59 469 120 c 1,3,-1
 442 135 l 1,4,5
 397 19 397 19 275 19 c 0,6,7
 190 19 190 19 142 75 c 128,-1,8
 94 131 94 131 94 225 c 2,9,-1
 94 252 l 1,10,-1
 480 252 l 1,11,-1
 480 268 l 2,12,13
 480 382 480 382 423 451 c 128,-1,14
 366 520 366 520 271 520 c 0,15,16
 171 520 171 520 114 451.5 c 128,-1,17
 57 383 57 383 57 254 c 0,18,19
 57 124 57 124 115.5 56 c 128,-1,20
 174 -12 174 -12 275 -12 c 0,0,1
442 280 m 1,21,-1
 94 280 l 1,22,23
 94 376 94 376 140.5 432.5 c 128,-1,24
 187 489 187 489 271 489 c 0,25,26
 348 489 348 489 395 433.5 c 128,-1,27
 442 378 442 378 442 280 c 1,21,-1
272 636 m 256,28,29
 288 636 288 636 295 644 c 128,-1,30
 302 652 302 652 302 663 c 2,31,-1
 302 671 l 2,32,33
 302 682 302 682 295 690 c 128,-1,34
 288 698 288 698 272 698 c 256,35,36
 256 698 256 698 249 690 c 128,-1,37
 242 682 242 682 242 671 c 2,38,-1
 242 663 l 2,39,40
 242 652 242 652 249 644 c 128,-1,41
 256 636 256 636 272 636 c 256,28,29
EndSplineSet
EndChar

StartChar: Eogonek
Encoding: 280 280 215
Width: 566
Flags: W
LayerCount: 2
Fore
SplineSet
434 -203 m 0,0,1
 490 -203 490 -203 512 -170 c 1,2,-1
 492 -152 l 1,3,4
 472 -177 472 -177 434 -177 c 0,5,6
 382 -177 382 -177 382 -130 c 0,7,8
 382 -98 382 -98 409.5 -69.5 c 128,-1,9
 437 -41 437 -41 496 0 c 1,10,-1
 496 33 l 1,11,-1
 141 33 l 1,12,-1
 141 338 l 1,13,-1
 482 338 l 1,14,-1
 482 371 l 1,15,-1
 141 371 l 1,16,-1
 141 665 l 1,17,-1
 496 665 l 1,18,-1
 496 698 l 1,19,-1
 104 698 l 1,20,-1
 104 0 l 1,21,-1
 459 0 l 1,22,-1
 460 -3 l 1,23,24
 351 -69 351 -69 351 -134 c 0,25,26
 351 -169 351 -169 375 -186 c 128,-1,27
 399 -203 399 -203 434 -203 c 0,0,1
EndSplineSet
EndChar

StartChar: eogonek
Encoding: 281 281 216
Width: 537
Flags: W
LayerCount: 2
Fore
SplineSet
323 -203 m 0,0,1
 379 -203 379 -203 401 -170 c 1,2,-1
 381 -152 l 1,3,4
 361 -177 361 -177 324 -177 c 0,5,6
 272 -177 272 -177 272 -128 c 0,7,8
 272 -86 272 -86 305 -50.5 c 128,-1,9
 338 -15 338 -15 394 23 c 0,10,11
 447 58 447 58 469 120 c 1,12,-1
 442 135 l 1,13,14
 397 19 397 19 275 19 c 0,15,16
 190 19 190 19 142 75 c 128,-1,17
 94 131 94 131 94 225 c 2,18,-1
 94 252 l 1,19,-1
 480 252 l 1,20,-1
 480 268 l 2,21,22
 480 382 480 382 423 451 c 128,-1,23
 366 520 366 520 271 520 c 0,24,25
 171 520 171 520 114 451.5 c 128,-1,26
 57 383 57 383 57 254 c 0,27,28
 57 124 57 124 115 56 c 128,-1,29
 173 -12 173 -12 274 -12 c 0,30,31
 307 -12 307 -12 333 -3 c 1,32,-1
 334 -6 l 1,33,34
 241 -65 241 -65 241 -132 c 0,35,36
 241 -168 241 -168 264.5 -185.5 c 128,-1,37
 288 -203 288 -203 323 -203 c 0,0,1
442 280 m 1,38,-1
 94 280 l 1,39,40
 94 376 94 376 140.5 432.5 c 128,-1,41
 187 489 187 489 271 489 c 0,42,43
 348 489 348 489 395 433.5 c 128,-1,44
 442 378 442 378 442 280 c 1,38,-1
EndSplineSet
EndChar

StartChar: Ecaron
Encoding: 282 282 217
Width: 566
Flags: W
LayerCount: 2
Fore
SplineSet
496 0 m 1,0,-1
 496 33 l 1,1,-1
 141 33 l 1,2,-1
 141 338 l 1,3,-1
 482 338 l 1,4,-1
 482 371 l 1,5,-1
 141 371 l 1,6,-1
 141 665 l 1,7,-1
 496 665 l 1,8,-1
 496 698 l 1,9,-1
 104 698 l 1,10,-1
 104 0 l 1,11,-1
 496 0 l 1,0,-1
321 780 m 1,12,-1
 445 915 l 1,13,-1
 424 931 l 1,14,-1
 300 806 l 1,15,-1
 176 931 l 1,16,-1
 155 915 l 1,17,-1
 279 780 l 1,18,-1
 321 780 l 1,12,-1
EndSplineSet
EndChar

StartChar: ecaron
Encoding: 283 283 218
Width: 537
Flags: W
LayerCount: 2
Fore
SplineSet
275 -12 m 0,0,1
 348 -12 348 -12 397 23.5 c 128,-1,2
 446 59 446 59 469 120 c 1,3,-1
 442 135 l 1,4,5
 397 19 397 19 275 19 c 0,6,7
 190 19 190 19 142 75 c 128,-1,8
 94 131 94 131 94 225 c 2,9,-1
 94 252 l 1,10,-1
 480 252 l 1,11,-1
 480 268 l 2,12,13
 480 382 480 382 423 451 c 128,-1,14
 366 520 366 520 271 520 c 0,15,16
 171 520 171 520 114 451.5 c 128,-1,17
 57 383 57 383 57 254 c 0,18,19
 57 124 57 124 115.5 56 c 128,-1,20
 174 -12 174 -12 275 -12 c 0,0,1
442 280 m 1,21,-1
 94 280 l 1,22,23
 94 376 94 376 140.5 432.5 c 128,-1,24
 187 489 187 489 271 489 c 0,25,26
 348 489 348 489 395 433.5 c 128,-1,27
 442 378 442 378 442 280 c 1,21,-1
293 602 m 1,28,-1
 417 737 l 1,29,-1
 396 753 l 1,30,-1
 272 629 l 1,31,-1
 148 753 l 1,32,-1
 127 737 l 1,33,-1
 251 602 l 1,34,-1
 293 602 l 1,28,-1
EndSplineSet
EndChar

StartChar: Gcircumflex
Encoding: 284 284 219
Width: 673
Flags: W
LayerCount: 2
Fore
SplineSet
342 -12 m 0,0,1
 425 -12 425 -12 478.5 20.5 c 128,-1,2
 532 53 532 53 557 111 c 1,3,-1
 560 111 l 1,4,-1
 560 0 l 1,5,-1
 595 0 l 1,6,-1
 595 338 l 1,7,-1
 388 338 l 1,8,-1
 388 305 l 1,9,-1
 559 305 l 1,10,-1
 559 208 l 2,11,12
 559 118 559 118 495 68 c 0,13,14
 437 21 437 21 345 21 c 0,15,16
 233 21 233 21 170 97.5 c 128,-1,17
 107 174 107 174 107 320 c 2,18,-1
 107 379 l 2,19,20
 107 525 107 525 170.5 601 c 128,-1,21
 234 677 234 677 344 677 c 0,22,23
 487 677 487 677 548 548 c 1,24,-1
 578 565 l 1,25,26
 548 632 548 632 488.5 671 c 128,-1,27
 429 710 429 710 344 710 c 0,28,29
 212 710 212 710 139.5 619.5 c 128,-1,30
 67 529 67 529 67 349 c 256,31,32
 67 169 67 169 139 78.5 c 128,-1,33
 211 -12 211 -12 342 -12 c 0,0,1
468 775 m 1,34,-1
 489 790 l 1,35,-1
 365 926 l 1,36,-1
 323 926 l 1,37,-1
 199 790 l 1,38,-1
 220 775 l 1,39,-1
 344 899 l 1,40,-1
 468 775 l 1,34,-1
EndSplineSet
EndChar

StartChar: Gbreve
Encoding: 286 286 221
Width: 673
Flags: W
LayerCount: 2
Fore
SplineSet
342 -12 m 0,0,1
 425 -12 425 -12 478.5 20.5 c 128,-1,2
 532 53 532 53 557 111 c 1,3,-1
 560 111 l 1,4,-1
 560 0 l 1,5,-1
 595 0 l 1,6,-1
 595 338 l 1,7,-1
 388 338 l 1,8,-1
 388 305 l 1,9,-1
 559 305 l 1,10,-1
 559 208 l 2,11,12
 559 118 559 118 495 68 c 0,13,14
 437 21 437 21 345 21 c 0,15,16
 233 21 233 21 170 97.5 c 128,-1,17
 107 174 107 174 107 320 c 2,18,-1
 107 379 l 2,19,20
 107 525 107 525 170.5 601 c 128,-1,21
 234 677 234 677 344 677 c 0,22,23
 487 677 487 677 548 548 c 1,24,-1
 578 565 l 1,25,26
 548 632 548 632 488.5 671 c 128,-1,27
 429 710 429 710 344 710 c 0,28,29
 212 710 212 710 139.5 619.5 c 128,-1,30
 67 529 67 529 67 349 c 256,31,32
 67 169 67 169 139 78.5 c 128,-1,33
 211 -12 211 -12 342 -12 c 0,0,1
344 781 m 0,34,35
 373 781 373 781 394 790 c 0,36,37
 443 812 443 812 481 900 c 1,38,-1
 458 911 l 1,39,-1
 441 882 l 2,40,41
 419 841 419 841 398.5 826 c 128,-1,42
 378 811 378 811 344 811 c 256,43,44
 310 811 310 811 289.5 826 c 128,-1,45
 269 841 269 841 247 882 c 2,46,-1
 230 911 l 1,47,-1
 207 900 l 1,48,49
 230 846 230 846 260.5 813.5 c 128,-1,50
 291 781 291 781 344 781 c 0,34,35
EndSplineSet
EndChar

StartChar: Gdot
Encoding: 288 288 223
Width: 673
Flags: W
LayerCount: 2
Fore
SplineSet
342 -12 m 0,0,1
 425 -12 425 -12 478.5 20.5 c 128,-1,2
 532 53 532 53 557 111 c 1,3,-1
 560 111 l 1,4,-1
 560 0 l 1,5,-1
 595 0 l 1,6,-1
 595 338 l 1,7,-1
 388 338 l 1,8,-1
 388 305 l 1,9,-1
 559 305 l 1,10,-1
 559 208 l 2,11,12
 559 118 559 118 495 68 c 0,13,14
 437 21 437 21 345 21 c 0,15,16
 233 21 233 21 170 97.5 c 128,-1,17
 107 174 107 174 107 320 c 2,18,-1
 107 379 l 2,19,20
 107 525 107 525 170.5 601 c 128,-1,21
 234 677 234 677 344 677 c 0,22,23
 487 677 487 677 548 548 c 1,24,-1
 578 565 l 1,25,26
 548 632 548 632 488.5 671 c 128,-1,27
 429 710 429 710 344 710 c 0,28,29
 212 710 212 710 139.5 619.5 c 128,-1,30
 67 529 67 529 67 349 c 256,31,32
 67 169 67 169 139 78.5 c 128,-1,33
 211 -12 211 -12 342 -12 c 0,0,1
344 812 m 256,34,35
 375 812 375 812 375 841 c 2,36,-1
 375 849 l 2,37,38
 375 878 375 878 344 878 c 256,39,40
 313 878 313 878 313 849 c 2,41,-1
 313 841 l 2,42,43
 313 812 313 812 344 812 c 256,34,35
EndSplineSet
EndChar

StartChar: Gcedilla
Encoding: 290 290 225
Width: 673
Flags: W
LayerCount: 2
Fore
SplineSet
342 -12 m 0,0,1
 425 -12 425 -12 478.5 20.5 c 128,-1,2
 532 53 532 53 557 111 c 1,3,-1
 560 111 l 1,4,-1
 560 0 l 1,5,-1
 595 0 l 1,6,-1
 595 338 l 1,7,-1
 388 338 l 1,8,-1
 388 305 l 1,9,-1
 559 305 l 1,10,-1
 559 208 l 2,11,12
 559 118 559 118 495 68 c 0,13,14
 437 21 437 21 345 21 c 0,15,16
 233 21 233 21 170 97.5 c 128,-1,17
 107 174 107 174 107 320 c 2,18,-1
 107 379 l 2,19,20
 107 525 107 525 170.5 601 c 128,-1,21
 234 677 234 677 344 677 c 0,22,23
 487 677 487 677 548 548 c 1,24,-1
 578 565 l 1,25,26
 548 632 548 632 488.5 671 c 128,-1,27
 429 710 429 710 344 710 c 0,28,29
 212 710 212 710 139.5 619.5 c 128,-1,30
 67 529 67 529 67 349 c 256,31,32
 67 169 67 169 139 78.5 c 128,-1,33
 211 -12 211 -12 342 -12 c 0,0,1
323 -220 m 1,34,35
 344 -197 344 -197 358 -165 c 128,-1,36
 372 -133 372 -133 372 -105 c 2,37,-1
 372 -94 l 2,38,39
 372 -66 372 -66 345 -66 c 0,40,41
 312 -66 312 -66 312 -94 c 2,42,-1
 312 -102 l 2,43,44
 312 -126 312 -126 342 -128 c 1,45,46
 337 -169 337 -169 296 -220 c 1,47,-1
 323 -220 l 1,34,35
EndSplineSet
EndChar

StartChar: Hcircumflex
Encoding: 292 292 227
Width: 695
Flags: W
LayerCount: 2
Fore
SplineSet
591 0 m 1,0,-1
 591 698 l 1,1,-1
 554 698 l 1,2,-1
 554 371 l 1,3,-1
 141 371 l 1,4,-1
 141 698 l 1,5,-1
 104 698 l 1,6,-1
 104 0 l 1,7,-1
 141 0 l 1,8,-1
 141 338 l 1,9,-1
 554 338 l 1,10,-1
 554 0 l 1,11,-1
 591 0 l 1,0,-1
472 775 m 1,12,-1
 493 790 l 1,13,-1
 369 926 l 1,14,-1
 327 926 l 1,15,-1
 203 790 l 1,16,-1
 224 775 l 1,17,-1
 348 899 l 1,18,-1
 472 775 l 1,12,-1
EndSplineSet
EndChar

StartChar: hcircumflex
Encoding: 293 293 228
Width: 559
Flags: W
LayerCount: 2
Fore
SplineSet
467 0 m 1,0,-1
 467 326 l 2,1,2
 467 517 467 517 294 520 c 0,3,4
 228 520 228 520 190.5 494 c 128,-1,5
 153 468 153 468 138 430 c 1,6,-1
 135 430 l 1,7,-1
 135 740 l 1,8,-1
 100 740 l 1,9,-1
 100 0 l 1,10,-1
 135 0 l 1,11,-1
 135 361 l 2,12,13
 135 426 135 426 181.5 457.5 c 128,-1,14
 228 489 228 489 286 489 c 0,15,16
 432 489 432 489 432 320 c 2,17,-1
 432 0 l 1,18,-1
 467 0 l 1,0,-1
243 755 m 1,19,-1
 264 771 l 1,20,-1
 140 906 l 1,21,-1
 98 906 l 1,22,-1
 -26 771 l 1,23,-1
 -5 755 l 1,24,-1
 119 880 l 1,25,-1
 243 755 l 1,19,-1
EndSplineSet
EndChar

StartChar: Hbar
Encoding: 294 294 229
Width: 701
Flags: W
LayerCount: 2
Fore
SplineSet
594 0 m 1,0,-1
 594 532 l 1,1,-1
 673 532 l 1,2,-1
 673 562 l 1,3,-1
 594 562 l 1,4,-1
 594 698 l 1,5,-1
 557 698 l 1,6,-1
 557 562 l 1,7,-1
 144 562 l 1,8,-1
 144 698 l 1,9,-1
 107 698 l 1,10,-1
 107 562 l 1,11,-1
 28 562 l 1,12,-1
 28 532 l 1,13,-1
 107 532 l 1,14,-1
 107 0 l 1,15,-1
 144 0 l 1,16,-1
 144 338 l 1,17,-1
 557 338 l 1,18,-1
 557 0 l 1,19,-1
 594 0 l 1,0,-1
557 371 m 1,20,-1
 144 371 l 1,21,-1
 144 532 l 1,22,-1
 557 532 l 1,23,-1
 557 371 l 1,20,-1
EndSplineSet
EndChar

StartChar: hbar
Encoding: 295 295 230
Width: 562
Flags: W
LayerCount: 2
Fore
SplineSet
470 0 m 1,0,-1
 470 326 l 2,1,2
 470 517 470 517 296 520 c 0,3,4
 230 520 230 520 192.5 494 c 128,-1,5
 155 468 155 468 141 430 c 1,6,-1
 138 430 l 1,7,-1
 138 623 l 1,8,-1
 297 623 l 1,9,-1
 297 652 l 1,10,-1
 138 652 l 1,11,-1
 138 740 l 1,12,-1
 103 740 l 1,13,-1
 103 652 l 1,14,-1
 37 652 l 1,15,-1
 37 623 l 1,16,-1
 103 623 l 1,17,-1
 103 0 l 1,18,-1
 138 0 l 1,19,-1
 138 361 l 2,20,21
 138 426 138 426 183.5 457.5 c 128,-1,22
 229 489 229 489 289 489 c 0,23,24
 435 489 435 489 435 320 c 2,25,-1
 435 0 l 1,26,-1
 470 0 l 1,0,-1
EndSplineSet
EndChar

StartChar: Itilde
Encoding: 296 296 231
Width: 245
Flags: W
LayerCount: 2
Fore
SplineSet
194 802 m 0,0,1
 244 802 244 802 277 845 c 1,2,-1
 260 863 l 1,3,4
 232 832 232 832 196 832 c 0,5,6
 182 832 182 832 167 837.5 c 128,-1,7
 152 843 152 843 129 857 c 128,-1,8
 106 871 106 871 88.5 878.5 c 128,-1,9
 71 886 71 886 52 886 c 0,10,11
 3 886 3 886 -31 843 c 1,12,-1
 -14 825 l 1,13,14
 14 856 14 856 50 856 c 0,15,16
 64 856 64 856 79 850.5 c 128,-1,17
 94 845 94 845 117 831 c 128,-1,18
 140 817 140 817 157.5 809.5 c 128,-1,19
 175 802 175 802 194 802 c 0,0,1
141 0 m 1,20,-1
 141 698 l 1,21,-1
 104 698 l 1,22,-1
 104 0 l 1,23,-1
 141 0 l 1,20,-1
EndSplineSet
EndChar

StartChar: itilde
Encoding: 297 297 232
Width: 235
Flags: W
LayerCount: 2
Fore
SplineSet
135 0 m 1,0,-1
 135 508 l 1,1,-1
 100 508 l 1,2,-1
 100 0 l 1,3,-1
 135 0 l 1,0,-1
189 624 m 0,4,5
 236 624 236 624 272 666 c 1,6,-1
 255 685 l 1,7,8
 227 653 227 653 191 653 c 0,9,10
 177 653 177 653 162 659 c 128,-1,11
 147 665 147 665 124 679 c 0,12,13
 85 708 85 708 47 708 c 0,14,15
 1 708 1 708 -36 666 c 1,16,-1
 -19 647 l 1,17,18
 9 679 9 679 45 679 c 0,19,20
 59 679 59 679 74 673 c 128,-1,21
 89 667 89 667 112 653 c 0,22,23
 152 624 152 624 189 624 c 0,4,5
EndSplineSet
EndChar

StartChar: Imacron
Encoding: 298 298 233
Width: 245
Flags: W
LayerCount: 2
Fore
SplineSet
255 831 m 1,0,-1
 255 861 l 1,1,-1
 -9 861 l 1,2,-1
 -9 831 l 1,3,-1
 255 831 l 1,0,-1
141 0 m 1,4,-1
 141 698 l 1,5,-1
 104 698 l 1,6,-1
 104 0 l 1,7,-1
 141 0 l 1,4,-1
EndSplineSet
EndChar

StartChar: imacron
Encoding: 299 299 234
Width: 235
Flags: W
LayerCount: 2
Fore
SplineSet
135 0 m 1,0,-1
 135 508 l 1,1,-1
 100 508 l 1,2,-1
 100 0 l 1,3,-1
 135 0 l 1,0,-1
250 653 m 1,4,-1
 250 683 l 1,5,-1
 -14 683 l 1,6,-1
 -14 653 l 1,7,-1
 250 653 l 1,4,-1
EndSplineSet
EndChar

StartChar: Ibreve
Encoding: 300 300 235
Width: 245
Flags: W
LayerCount: 2
Fore
SplineSet
123 781 m 0,0,1
 152 781 152 781 173 790 c 0,2,3
 222 812 222 812 260 900 c 1,4,-1
 237 911 l 1,5,-1
 220 882 l 2,6,7
 198 841 198 841 177.5 826 c 128,-1,8
 157 811 157 811 123 811 c 256,9,10
 89 811 89 811 68.5 826 c 128,-1,11
 48 841 48 841 26 882 c 2,12,-1
 9 911 l 1,13,-1
 -14 900 l 1,14,15
 9 846 9 846 39.5 813.5 c 128,-1,16
 70 781 70 781 123 781 c 0,0,1
141 0 m 1,17,-1
 141 698 l 1,18,-1
 104 698 l 1,19,-1
 104 0 l 1,20,-1
 141 0 l 1,17,-1
EndSplineSet
EndChar

StartChar: ibreve
Encoding: 301 301 236
Width: 235
Flags: W
LayerCount: 2
Fore
SplineSet
135 0 m 1,0,-1
 135 508 l 1,1,-1
 100 508 l 1,2,-1
 100 0 l 1,3,-1
 135 0 l 1,0,-1
118 604 m 0,4,5
 147 604 147 604 168 613 c 0,6,7
 217 635 217 635 255 723 c 1,8,-1
 232 733 l 1,9,-1
 215 705 l 2,10,11
 193 664 193 664 172.5 648.5 c 128,-1,12
 152 633 152 633 118 633 c 256,13,14
 84 633 84 633 63.5 648.5 c 128,-1,15
 43 664 43 664 21 705 c 2,16,-1
 4 733 l 1,17,-1
 -19 723 l 1,18,19
 4 669 4 669 34.5 636.5 c 128,-1,20
 65 604 65 604 118 604 c 0,4,5
EndSplineSet
EndChar

StartChar: Iogonek
Encoding: 302 302 237
Width: 245
Flags: W
LayerCount: 2
Fore
SplineSet
78 -203 m 0,0,1
 134 -203 134 -203 156 -170 c 1,2,-1
 136 -152 l 1,3,4
 116 -177 116 -177 79 -177 c 0,5,6
 27 -177 27 -177 27 -130 c 0,7,8
 27 -98 27 -98 54 -69.5 c 128,-1,9
 81 -41 81 -41 141 0 c 1,10,-1
 141 698 l 1,11,-1
 104 698 l 1,12,13
 104 0 104 0 105 -3 c 0,14,15
 44 -39 44 -39 19.5 -71 c 128,-1,16
 -5 -103 -5 -103 -5 -134 c 0,17,18
 -5 -169 -5 -169 19 -186 c 128,-1,19
 43 -203 43 -203 78 -203 c 0,0,1
EndSplineSet
EndChar

StartChar: iogonek
Encoding: 303 303 238
Width: 235
Flags: W
LayerCount: 2
Fore
SplineSet
96 -203 m 0,0,1
 152 -203 152 -203 174 -170 c 1,2,-1
 154 -152 l 1,3,4
 134 -177 134 -177 96 -177 c 0,5,6
 44 -177 44 -177 44 -128 c 0,7,8
 44 -98 44 -98 65.5 -71 c 128,-1,9
 87 -44 87 -44 135 0 c 1,10,-1
 135 508 l 1,11,-1
 100 508 l 1,12,-1
 100 0 l 1,13,-1
 105 0 l 1,14,-1
 105 -1 l 1,15,16
 60 -36 60 -36 36.5 -66.5 c 128,-1,17
 13 -97 13 -97 13 -133 c 0,18,19
 13 -168 13 -168 37 -185.5 c 128,-1,20
 61 -203 61 -203 96 -203 c 0,0,1
118 665 m 0,21,22
 147 665 147 665 147 691 c 2,23,-1
 147 700 l 2,24,25
 147 726 147 726 117 726 c 0,26,27
 88 726 88 726 88 700 c 2,28,-1
 88 691 l 2,29,30
 88 665 88 665 118 665 c 0,21,22
EndSplineSet
EndChar

StartChar: Idot
Encoding: 304 304 239
Width: 245
Flags: W
LayerCount: 2
Fore
SplineSet
123 812 m 256,0,1
 154 812 154 812 154 841 c 2,2,-1
 154 849 l 2,3,4
 154 878 154 878 123 878 c 256,5,6
 92 878 92 878 92 849 c 2,7,-1
 92 841 l 2,8,9
 92 812 92 812 123 812 c 256,0,1
141 0 m 1,10,-1
 141 698 l 1,11,-1
 104 698 l 1,12,-1
 104 0 l 1,13,-1
 141 0 l 1,10,-1
EndSplineSet
EndChar

StartChar: dotlessi
Encoding: 305 305 240
Width: 235
Flags: W
LayerCount: 2
Fore
SplineSet
135 0 m 1,0,-1
 135 508 l 1,1,-1
 100 508 l 1,2,-1
 100 0 l 1,3,-1
 135 0 l 1,0,-1
EndSplineSet
EndChar

StartChar: ij
Encoding: 307 307 242
Width: 471
Flags: W
LayerCount: 2
Fore
SplineSet
118 665 m 0,0,1
 147 665 147 665 147 691 c 2,2,-1
 147 700 l 2,3,4
 147 726 147 726 117 726 c 0,5,6
 88 726 88 726 88 700 c 2,7,-1
 88 691 l 2,8,9
 88 665 88 665 118 665 c 0,0,1
135 0 m 1,10,-1
 135 508 l 1,11,-1
 100 508 l 1,12,-1
 100 0 l 1,13,-1
 135 0 l 1,10,-1
323 -200 m 2,14,15
 371 -200 371 -200 371 -149 c 2,16,-1
 371 508 l 1,17,-1
 336 508 l 1,18,-1
 336 -169 l 1,19,-1
 251 -169 l 1,20,-1
 251 -200 l 1,21,-1
 323 -200 l 2,14,15
354 665 m 0,22,23
 383 665 383 665 383 691 c 2,24,-1
 383 700 l 2,25,26
 383 726 383 726 353 726 c 0,27,28
 324 726 324 726 324 700 c 2,29,-1
 324 691 l 2,30,31
 324 665 324 665 354 665 c 0,22,23
EndSplineSet
EndChar

StartChar: Jcircumflex
Encoding: 308 308 243
Width: 475
Flags: W
LayerCount: 2
Fore
SplineSet
364 775 m 1,0,-1
 240 899 l 1,1,-1
 116 775 l 1,2,-1
 95 790 l 1,3,-1
 219 926 l 1,4,-1
 261 926 l 1,5,-1
 385 790 l 1,6,-1
 364 775 l 1,0,-1
199 -12 m 0,7,8
 133 -12 133 -12 85.5 25 c 128,-1,9
 38 62 38 62 23 121 c 1,10,-1
 56 130 l 1,11,12
 70 82 70 82 106.5 51.5 c 128,-1,13
 143 21 143 21 200 21 c 0,14,15
 340 21 340 21 341 186 c 2,16,-1
 341 698 l 1,17,-1
 378 698 l 1,18,-1
 378 183 l 2,19,20
 378 88 378 88 330 38 c 128,-1,21
 282 -12 282 -12 199 -12 c 0,7,8
EndSplineSet
EndChar

StartChar: jcircumflex
Encoding: 309 309 244
Width: 235
Flags: W
LayerCount: 2
Fore
SplineSet
87 -200 m 2,0,1
 135 -200 135 -200 135 -149 c 2,2,-1
 135 508 l 1,3,-1
 100 508 l 1,4,-1
 100 -169 l 1,5,-1
 15 -169 l 1,6,-1
 15 -200 l 1,7,-1
 87 -200 l 2,0,1
242 597 m 1,8,-1
 263 613 l 1,9,-1
 139 748 l 1,10,-1
 97 748 l 1,11,-1
 -27 613 l 1,12,-1
 -6 597 l 1,13,-1
 118 722 l 1,14,-1
 242 597 l 1,8,-1
EndSplineSet
EndChar

StartChar: Kcedilla
Encoding: 310 310 245
Width: 587
Flags: W
LayerCount: 2
Fore
SplineSet
566 0 m 1,0,-1
 293 402 l 1,1,-1
 560 698 l 1,2,-1
 514 698 l 1,3,-1
 143 284 l 1,4,-1
 141 284 l 1,5,-1
 141 698 l 1,6,-1
 104 698 l 1,7,-1
 104 0 l 1,8,-1
 141 0 l 1,9,-1
 141 238 l 1,10,-1
 268 377 l 1,11,-1
 522 0 l 1,12,-1
 566 0 l 1,0,-1
300 -220 m 1,13,14
 321 -197 321 -197 335 -165 c 128,-1,15
 349 -133 349 -133 349 -105 c 2,16,-1
 349 -94 l 2,17,18
 349 -66 349 -66 322 -66 c 0,19,20
 289 -66 289 -66 289 -94 c 2,21,-1
 289 -102 l 2,22,23
 289 -126 289 -126 319 -128 c 1,24,25
 314 -169 314 -169 273 -220 c 1,26,-1
 300 -220 l 1,13,14
EndSplineSet
EndChar

StartChar: kcedilla
Encoding: 311 311 246
Width: 499
Flags: W
LayerCount: 2
Fore
SplineSet
480 0 m 1,0,-1
 246 297 l 1,1,-1
 455 508 l 1,2,-1
 411 508 l 1,3,-1
 138 232 l 1,4,-1
 135 232 l 1,5,-1
 135 740 l 1,6,-1
 100 740 l 1,7,-1
 100 0 l 1,8,-1
 135 0 l 1,9,-1
 135 189 l 1,10,-1
 221 274 l 1,11,-1
 437 0 l 1,12,-1
 480 0 l 1,0,-1
256 -220 m 1,13,14
 277 -197 277 -197 291 -165 c 128,-1,15
 305 -133 305 -133 305 -105 c 2,16,-1
 305 -94 l 2,17,18
 305 -66 305 -66 278 -66 c 0,19,20
 245 -66 245 -66 245 -94 c 2,21,-1
 245 -102 l 2,22,23
 245 -126 245 -126 275 -128 c 1,24,25
 270 -169 270 -169 229 -220 c 1,26,-1
 256 -220 l 1,13,14
EndSplineSet
EndChar

StartChar: kgreenlandic
Encoding: 312 312 247
Width: 499
Flags: W
LayerCount: 2
Fore
SplineSet
480 0 m 1,0,-1
 247 290 l 1,1,-1
 463 508 l 1,2,-1
 420 508 l 1,3,-1
 138 224 l 1,4,-1
 135 224 l 1,5,-1
 135 508 l 1,6,-1
 100 508 l 1,7,-1
 100 0 l 1,8,-1
 135 0 l 1,9,-1
 135 181 l 1,10,-1
 221 266 l 1,11,-1
 437 0 l 1,12,-1
 480 0 l 1,0,-1
EndSplineSet
EndChar

StartChar: Lacute
Encoding: 313 313 248
Width: 481
Flags: W
LayerCount: 2
Fore
SplineSet
460 0 m 1,0,-1
 460 33 l 1,1,-1
 141 33 l 1,2,-1
 141 698 l 1,3,-1
 104 698 l 1,4,-1
 104 0 l 1,5,-1
 460 0 l 1,0,-1
112 764 m 1,6,-1
 225 918 l 1,7,-1
 193 935 l 1,8,-1
 88 777 l 1,9,-1
 112 764 l 1,6,-1
EndSplineSet
EndChar

StartChar: lacute
Encoding: 314 314 249
Width: 255
Flags: W
LayerCount: 2
Fore
SplineSet
106 787 m 1,0,-1
 219 940 l 1,1,-1
 187 958 l 1,2,-1
 82 800 l 1,3,-1
 106 787 l 1,0,-1
218 0 m 1,4,-1
 218 31 l 1,5,-1
 135 31 l 1,6,-1
 135 740 l 1,7,-1
 100 740 l 1,8,-1
 100 42 l 2,9,10
 100 0 100 0 143 0 c 2,11,-1
 218 0 l 1,4,-1
EndSplineSet
EndChar

StartChar: Lcedilla
Encoding: 315 315 250
Width: 481
Flags: W
LayerCount: 2
Fore
SplineSet
460 0 m 1,0,-1
 460 33 l 1,1,-1
 141 33 l 1,2,-1
 141 698 l 1,3,-1
 104 698 l 1,4,-1
 104 0 l 1,5,-1
 460 0 l 1,0,-1
274 -220 m 1,6,7
 295 -197 295 -197 309 -165 c 128,-1,8
 323 -133 323 -133 323 -105 c 2,9,-1
 323 -94 l 2,10,11
 323 -66 323 -66 296 -66 c 0,12,13
 263 -66 263 -66 263 -94 c 2,14,-1
 263 -102 l 2,15,16
 263 -126 263 -126 293 -128 c 1,17,18
 288 -169 288 -169 247 -220 c 1,19,-1
 274 -220 l 1,6,7
EndSplineSet
EndChar

StartChar: lcedilla
Encoding: 316 316 251
Width: 255
Flags: W
LayerCount: 2
Fore
SplineSet
218 0 m 1,0,-1
 218 31 l 1,1,-1
 135 31 l 1,2,-1
 135 740 l 1,3,-1
 100 740 l 1,4,-1
 100 42 l 2,5,6
 100 0 100 0 143 0 c 2,7,-1
 218 0 l 1,0,-1
143 -220 m 1,8,9
 164 -197 164 -197 178 -165 c 128,-1,10
 192 -133 192 -133 192 -105 c 2,11,-1
 192 -94 l 2,12,13
 192 -66 192 -66 165 -66 c 0,14,15
 132 -66 132 -66 132 -94 c 2,16,-1
 132 -102 l 2,17,18
 132 -126 132 -126 162 -128 c 1,19,20
 157 -169 157 -169 116 -220 c 1,21,-1
 143 -220 l 1,8,9
EndSplineSet
EndChar

StartChar: Lcaron
Encoding: 317 317 252
Width: 481
Flags: W
LayerCount: 2
Fore
SplineSet
460 0 m 1,0,-1
 460 33 l 1,1,-1
 141 33 l 1,2,-1
 141 698 l 1,3,-1
 104 698 l 1,4,-1
 104 0 l 1,5,-1
 460 0 l 1,0,-1
262 562 m 1,6,-1
 293 740 l 1,7,-1
 252 740 l 1,8,-1
 237 562 l 1,9,-1
 262 562 l 1,6,-1
EndSplineSet
EndChar

StartChar: lcaron
Encoding: 318 318 253
Width: 255
GlyphClass: 3
Flags: W
LayerCount: 2
Fore
SplineSet
247 562 m 1,0,-1
 278 740 l 1,1,-1
 237 740 l 1,2,-1
 222 562 l 1,3,-1
 247 562 l 1,0,-1
218 0 m 1,4,-1
 218 31 l 1,5,-1
 135 31 l 1,6,-1
 135 740 l 1,7,-1
 100 740 l 1,8,-1
 100 42 l 2,9,10
 100 0 100 0 143 0 c 2,11,-1
 218 0 l 1,4,-1
EndSplineSet
EndChar

StartChar: Ldot
Encoding: 319 319 254
Width: 481
Flags: W
LayerCount: 2
Fore
SplineSet
460 0 m 1,0,-1
 460 33 l 1,1,-1
 141 33 l 1,2,-1
 141 698 l 1,3,-1
 104 698 l 1,4,-1
 104 0 l 1,5,-1
 460 0 l 1,0,-1
365 277 m 256,6,7
 381 277 381 277 388 285 c 128,-1,8
 395 293 395 293 395 304 c 2,9,-1
 395 312 l 2,10,11
 395 323 395 323 388 331 c 128,-1,12
 381 339 381 339 365 339 c 256,13,14
 349 339 349 339 342 331 c 128,-1,15
 335 323 335 323 335 312 c 2,16,-1
 335 304 l 2,17,18
 335 293 335 293 342 285 c 128,-1,19
 349 277 349 277 365 277 c 256,6,7
EndSplineSet
EndChar

StartChar: ldot
Encoding: 320 320 255
Width: 295
Flags: W
LayerCount: 2
Fore
SplineSet
264 244 m 256,0,1
 280 244 280 244 287 252 c 128,-1,2
 294 260 294 260 294 271 c 2,3,-1
 294 279 l 2,4,5
 294 290 294 290 287 298 c 128,-1,6
 280 306 280 306 264 306 c 256,7,8
 248 306 248 306 241 298 c 128,-1,9
 234 290 234 290 234 279 c 2,10,-1
 234 271 l 2,11,12
 234 260 234 260 241 252 c 128,-1,13
 248 244 248 244 264 244 c 256,0,1
218 0 m 1,14,-1
 218 31 l 1,15,-1
 135 31 l 1,16,-1
 135 740 l 1,17,-1
 100 740 l 1,18,-1
 100 42 l 2,19,20
 100 0 100 0 143 0 c 2,21,-1
 218 0 l 1,14,-1
EndSplineSet
EndChar

StartChar: Lslash
Encoding: 321 321 256
Width: 484
GlyphClass: 3
Flags: W
LayerCount: 2
Fore
SplineSet
463 0 m 1,0,-1
 463 33 l 1,1,-1
 144 33 l 1,2,-1
 144 307 l 1,3,-1
 343 370 l 1,4,-1
 343 402 l 1,5,-1
 144 339 l 1,6,-1
 144 698 l 1,7,-1
 107 698 l 1,8,-1
 107 327 l 1,9,-1
 9 295 l 1,10,-1
 9 263 l 1,11,-1
 107 295 l 1,12,-1
 107 0 l 1,13,-1
 463 0 l 1,0,-1
EndSplineSet
EndChar

StartChar: lslash
Encoding: 322 322 257
Width: 261
GlyphClass: 3
Flags: W
LayerCount: 2
Fore
SplineSet
221 0 m 1,0,-1
 221 31 l 1,1,-1
 138 31 l 1,2,-1
 138 357 l 1,3,-1
 233 388 l 1,4,-1
 233 419 l 1,5,-1
 138 388 l 1,6,-1
 138 740 l 1,7,-1
 103 740 l 1,8,-1
 103 376 l 1,9,-1
 30 352 l 1,10,-1
 30 321 l 1,11,-1
 103 345 l 1,12,-1
 103 42 l 2,13,14
 103 0 103 0 146 0 c 2,15,-1
 221 0 l 1,0,-1
EndSplineSet
EndChar

StartChar: Nacute
Encoding: 323 323 258
Width: 696
Flags: W
LayerCount: 2
Fore
SplineSet
592 0 m 1,0,-1
 592 698 l 1,1,-1
 556 698 l 1,2,-1
 556 48 l 1,3,-1
 553 48 l 1,4,-1
 153 698 l 1,5,-1
 104 698 l 1,6,-1
 104 0 l 1,7,-1
 140 0 l 1,8,-1
 140 650 l 1,9,-1
 143 650 l 1,10,-1
 542 0 l 1,11,-1
 592 0 l 1,0,-1
336 764 m 1,12,-1
 449 918 l 1,13,-1
 417 935 l 1,14,-1
 312 777 l 1,15,-1
 336 764 l 1,12,-1
EndSplineSet
EndChar

StartChar: nacute
Encoding: 324 324 259
Width: 559
Flags: W
LayerCount: 2
Fore
SplineSet
467 0 m 1,0,-1
 467 326 l 2,1,2
 467 517 467 517 294 520 c 0,3,4
 228 520 228 520 190.5 494 c 128,-1,5
 153 468 153 468 138 430 c 1,6,-1
 135 430 l 1,7,-1
 135 508 l 1,8,-1
 100 508 l 1,9,-1
 100 0 l 1,10,-1
 135 0 l 1,11,-1
 135 361 l 2,12,13
 135 426 135 426 181.5 457.5 c 128,-1,14
 228 489 228 489 286 489 c 0,15,16
 432 489 432 489 432 320 c 2,17,-1
 432 0 l 1,18,-1
 467 0 l 1,0,-1
274 587 m 1,19,-1
 387 740 l 1,20,-1
 355 758 l 1,21,-1
 250 600 l 1,22,-1
 274 587 l 1,19,-1
EndSplineSet
EndChar

StartChar: Ncedilla
Encoding: 325 325 260
Width: 696
Flags: W
LayerCount: 2
Fore
SplineSet
592 0 m 1,0,-1
 592 698 l 1,1,-1
 556 698 l 1,2,-1
 556 48 l 1,3,-1
 553 48 l 1,4,-1
 153 698 l 1,5,-1
 104 698 l 1,6,-1
 104 0 l 1,7,-1
 140 0 l 1,8,-1
 140 650 l 1,9,-1
 143 650 l 1,10,-1
 542 0 l 1,11,-1
 592 0 l 1,0,-1
329 -220 m 1,12,13
 350 -197 350 -197 364 -165 c 128,-1,14
 378 -133 378 -133 378 -105 c 2,15,-1
 378 -94 l 2,16,17
 378 -66 378 -66 351 -66 c 0,18,19
 318 -66 318 -66 318 -94 c 2,20,-1
 318 -102 l 2,21,22
 318 -126 318 -126 348 -128 c 1,23,24
 343 -169 343 -169 302 -220 c 1,25,-1
 329 -220 l 1,12,13
EndSplineSet
EndChar

StartChar: ncedilla
Encoding: 326 326 261
Width: 559
Flags: W
LayerCount: 2
Fore
SplineSet
467 0 m 1,0,-1
 467 326 l 2,1,2
 467 517 467 517 294 520 c 0,3,4
 228 520 228 520 190.5 494 c 128,-1,5
 153 468 153 468 138 430 c 1,6,-1
 135 430 l 1,7,-1
 135 508 l 1,8,-1
 100 508 l 1,9,-1
 100 0 l 1,10,-1
 135 0 l 1,11,-1
 135 361 l 2,12,13
 135 426 135 426 181.5 457.5 c 128,-1,14
 228 489 228 489 286 489 c 0,15,16
 432 489 432 489 432 320 c 2,17,-1
 432 0 l 1,18,-1
 467 0 l 1,0,-1
265 -220 m 1,19,20
 286 -197 286 -197 300 -165 c 128,-1,21
 314 -133 314 -133 314 -105 c 2,22,-1
 314 -94 l 2,23,24
 314 -66 314 -66 287 -66 c 0,25,26
 254 -66 254 -66 254 -94 c 2,27,-1
 254 -102 l 2,28,29
 254 -126 254 -126 284 -128 c 1,30,31
 279 -169 279 -169 238 -220 c 1,32,-1
 265 -220 l 1,19,20
EndSplineSet
EndChar

StartChar: Ncaron
Encoding: 327 327 262
Width: 696
Flags: W
LayerCount: 2
Fore
SplineSet
592 0 m 1,0,-1
 592 698 l 1,1,-1
 556 698 l 1,2,-1
 556 48 l 1,3,-1
 553 48 l 1,4,-1
 153 698 l 1,5,-1
 104 698 l 1,6,-1
 104 0 l 1,7,-1
 140 0 l 1,8,-1
 140 650 l 1,9,-1
 143 650 l 1,10,-1
 542 0 l 1,11,-1
 592 0 l 1,0,-1
369 780 m 1,12,-1
 493 915 l 1,13,-1
 472 931 l 1,14,-1
 348 806 l 1,15,-1
 224 931 l 1,16,-1
 203 915 l 1,17,-1
 327 780 l 1,18,-1
 369 780 l 1,12,-1
EndSplineSet
EndChar

StartChar: ncaron
Encoding: 328 328 263
Width: 559
Flags: W
LayerCount: 2
Fore
SplineSet
467 0 m 1,0,-1
 467 326 l 2,1,2
 467 517 467 517 294 520 c 0,3,4
 228 520 228 520 190.5 494 c 128,-1,5
 153 468 153 468 138 430 c 1,6,-1
 135 430 l 1,7,-1
 135 508 l 1,8,-1
 100 508 l 1,9,-1
 100 0 l 1,10,-1
 135 0 l 1,11,-1
 135 361 l 2,12,13
 135 426 135 426 181.5 457.5 c 128,-1,14
 228 489 228 489 286 489 c 0,15,16
 432 489 432 489 432 320 c 2,17,-1
 432 0 l 1,18,-1
 467 0 l 1,0,-1
307 602 m 1,19,-1
 431 737 l 1,20,-1
 410 753 l 1,21,-1
 286 629 l 1,22,-1
 162 753 l 1,23,-1
 141 737 l 1,24,-1
 265 602 l 1,25,-1
 307 602 l 1,19,-1
EndSplineSet
EndChar

StartChar: napostrophe
Encoding: 329 329 264
Width: 807
Flags: W
LayerCount: 2
Fore
SplineSet
83 538 m 1,0,1
 119 571 119 571 141 616.5 c 128,-1,2
 163 662 163 662 163 704 c 2,3,-1
 163 716 l 2,4,5
 163 750 163 750 129 750 c 0,6,7
 93 750 93 750 93 718 c 2,8,-1
 93 706 l 2,9,10
 93 678 93 678 127 676 c 1,11,12
 121 613 121 613 53 538 c 1,13,-1
 83 538 l 1,0,1
715 0 m 1,14,-1
 715 326 l 2,15,16
 715 517 715 517 542 520 c 0,17,18
 476 520 476 520 438.5 494 c 128,-1,19
 401 468 401 468 386 430 c 1,20,-1
 383 430 l 1,21,-1
 383 508 l 1,22,-1
 348 508 l 1,23,-1
 348 0 l 1,24,-1
 383 0 l 1,25,-1
 383 361 l 2,26,27
 383 426 383 426 429.5 457.5 c 128,-1,28
 476 489 476 489 534 489 c 0,29,30
 680 489 680 489 680 320 c 2,31,-1
 680 0 l 1,32,-1
 715 0 l 1,14,-1
EndSplineSet
EndChar

StartChar: Eng
Encoding: 330 330 265
Width: 696
Flags: W
LayerCount: 2
Fore
SplineSet
542 -200 m 2,0,1
 592 -200 592 -200 592 -148 c 2,2,-1
 592 698 l 1,3,-1
 556 698 l 1,4,-1
 556 48 l 1,5,-1
 553 48 l 1,6,-1
 153 698 l 1,7,-1
 104 698 l 1,8,-1
 104 0 l 1,9,-1
 140 0 l 1,10,-1
 140 650 l 1,11,-1
 143 650 l 1,12,-1
 542 0 l 1,13,-1
 556 0 l 1,14,-1
 556 -168 l 1,15,-1
 470 -168 l 1,16,-1
 470 -200 l 1,17,-1
 542 -200 l 2,0,1
EndSplineSet
EndChar

StartChar: eng
Encoding: 331 331 266
Width: 559
Flags: W
LayerCount: 2
Fore
SplineSet
419 -200 m 2,0,1
 467 -200 467 -200 467 -150 c 2,2,-1
 467 326 l 2,3,4
 467 517 467 517 294 520 c 0,5,6
 228 520 228 520 190.5 494 c 128,-1,7
 153 468 153 468 138 430 c 1,8,-1
 135 430 l 1,9,-1
 135 508 l 1,10,-1
 100 508 l 1,11,-1
 100 0 l 1,12,-1
 135 0 l 1,13,-1
 135 361 l 2,14,15
 135 426 135 426 181.5 457.5 c 128,-1,16
 228 489 228 489 286 489 c 0,17,18
 432 489 432 489 432 320 c 2,19,-1
 432 -169 l 1,20,-1
 348 -169 l 1,21,-1
 348 -200 l 1,22,-1
 419 -200 l 2,0,1
EndSplineSet
EndChar

StartChar: Omacron
Encoding: 332 332 267
Width: 686
Flags: W
LayerCount: 2
Fore
SplineSet
343 -12 m 256,0,1
 474 -12 474 -12 546.5 78.5 c 128,-1,2
 619 169 619 169 619 349 c 256,3,4
 619 529 619 529 546.5 619.5 c 128,-1,5
 474 710 474 710 343 710 c 256,6,7
 212 710 212 710 139.5 619.5 c 128,-1,8
 67 529 67 529 67 349 c 256,9,10
 67 169 67 169 139.5 78.5 c 128,-1,11
 212 -12 212 -12 343 -12 c 256,0,1
343 21 m 256,12,13
 234 21 234 21 170.5 97 c 128,-1,14
 107 173 107 173 107 319 c 2,15,-1
 107 379 l 2,16,17
 107 525 107 525 170.5 601 c 128,-1,18
 234 677 234 677 343 677 c 256,19,20
 452 677 452 677 515.5 601 c 128,-1,21
 579 525 579 525 579 379 c 2,22,-1
 579 319 l 2,23,24
 579 173 579 173 515.5 97 c 128,-1,25
 452 21 452 21 343 21 c 256,12,13
475 831 m 1,26,-1
 475 861 l 1,27,-1
 211 861 l 1,28,-1
 211 831 l 1,29,-1
 475 831 l 1,26,-1
EndSplineSet
EndChar

StartChar: omacron
Encoding: 333 333 268
Width: 544
Flags: W
LayerCount: 2
Fore
SplineSet
272 -12 m 256,0,1
 372 -12 372 -12 429.5 56 c 128,-1,2
 487 124 487 124 487 254 c 0,3,4
 487 385 487 385 429.5 452.5 c 128,-1,5
 372 520 372 520 272 520 c 256,6,7
 172 520 172 520 114.5 452.5 c 128,-1,8
 57 385 57 385 57 254 c 0,9,10
 57 124 57 124 114.5 56 c 128,-1,11
 172 -12 172 -12 272 -12 c 256,0,1
272 19 m 256,12,13
 187 19 187 19 141 74.5 c 128,-1,14
 95 130 95 130 95 227 c 2,15,-1
 95 281 l 2,16,17
 95 379 95 379 141 434 c 128,-1,18
 187 489 187 489 272 489 c 256,19,20
 357 489 357 489 403 434 c 128,-1,21
 449 379 449 379 449 281 c 2,22,-1
 449 227 l 2,23,24
 449 130 449 130 403 74.5 c 128,-1,25
 357 19 357 19 272 19 c 256,12,13
405 653 m 1,26,-1
 405 683 l 1,27,-1
 141 683 l 1,28,-1
 141 653 l 1,29,-1
 405 653 l 1,26,-1
EndSplineSet
EndChar

StartChar: Obreve
Encoding: 334 334 269
Width: 686
Flags: W
LayerCount: 2
Fore
SplineSet
343 -12 m 256,0,1
 474 -12 474 -12 546.5 78.5 c 128,-1,2
 619 169 619 169 619 349 c 256,3,4
 619 529 619 529 546.5 619.5 c 128,-1,5
 474 710 474 710 343 710 c 256,6,7
 212 710 212 710 139.5 619.5 c 128,-1,8
 67 529 67 529 67 349 c 256,9,10
 67 169 67 169 139.5 78.5 c 128,-1,11
 212 -12 212 -12 343 -12 c 256,0,1
343 21 m 256,12,13
 234 21 234 21 170.5 97 c 128,-1,14
 107 173 107 173 107 319 c 2,15,-1
 107 379 l 2,16,17
 107 525 107 525 170.5 601 c 128,-1,18
 234 677 234 677 343 677 c 256,19,20
 452 677 452 677 515.5 601 c 128,-1,21
 579 525 579 525 579 379 c 2,22,-1
 579 319 l 2,23,24
 579 173 579 173 515.5 97 c 128,-1,25
 452 21 452 21 343 21 c 256,12,13
343 781 m 0,26,27
 372 781 372 781 393 790 c 0,28,29
 442 812 442 812 480 900 c 1,30,-1
 457 911 l 1,31,-1
 440 882 l 2,32,33
 418 841 418 841 397.5 826 c 128,-1,34
 377 811 377 811 343 811 c 256,35,36
 309 811 309 811 288.5 826 c 128,-1,37
 268 841 268 841 246 882 c 2,38,-1
 229 911 l 1,39,-1
 206 900 l 1,40,41
 229 846 229 846 259.5 813.5 c 128,-1,42
 290 781 290 781 343 781 c 0,26,27
EndSplineSet
EndChar

StartChar: obreve
Encoding: 335 335 270
Width: 544
Flags: W
LayerCount: 2
Fore
SplineSet
272 -12 m 256,0,1
 372 -12 372 -12 429.5 56 c 128,-1,2
 487 124 487 124 487 254 c 0,3,4
 487 385 487 385 429.5 452.5 c 128,-1,5
 372 520 372 520 272 520 c 256,6,7
 172 520 172 520 114.5 452.5 c 128,-1,8
 57 385 57 385 57 254 c 0,9,10
 57 124 57 124 114.5 56 c 128,-1,11
 172 -12 172 -12 272 -12 c 256,0,1
272 19 m 256,12,13
 187 19 187 19 141 74.5 c 128,-1,14
 95 130 95 130 95 227 c 2,15,-1
 95 281 l 2,16,17
 95 379 95 379 141 434 c 128,-1,18
 187 489 187 489 272 489 c 256,19,20
 357 489 357 489 403 434 c 128,-1,21
 449 379 449 379 449 281 c 2,22,-1
 449 227 l 2,23,24
 449 130 449 130 403 74.5 c 128,-1,25
 357 19 357 19 272 19 c 256,12,13
273 604 m 0,26,27
 302 604 302 604 323 613 c 0,28,29
 372 635 372 635 410 723 c 1,30,-1
 387 733 l 1,31,-1
 370 705 l 2,32,33
 348 664 348 664 327.5 648.5 c 128,-1,34
 307 633 307 633 273 633 c 256,35,36
 239 633 239 633 218.5 648.5 c 128,-1,37
 198 664 198 664 176 705 c 2,38,-1
 159 733 l 1,39,-1
 136 723 l 1,40,41
 159 669 159 669 189.5 636.5 c 128,-1,42
 220 604 220 604 273 604 c 0,26,27
EndSplineSet
EndChar

StartChar: Odblacute
Encoding: 336 336 271
Width: 686
Flags: W
LayerCount: 2
Fore
SplineSet
343 -12 m 256,0,1
 474 -12 474 -12 546.5 78.5 c 128,-1,2
 619 169 619 169 619 349 c 256,3,4
 619 529 619 529 546.5 619.5 c 128,-1,5
 474 710 474 710 343 710 c 256,6,7
 212 710 212 710 139.5 619.5 c 128,-1,8
 67 529 67 529 67 349 c 256,9,10
 67 169 67 169 139.5 78.5 c 128,-1,11
 212 -12 212 -12 343 -12 c 256,0,1
343 21 m 256,12,13
 234 21 234 21 170.5 97 c 128,-1,14
 107 173 107 173 107 319 c 2,15,-1
 107 379 l 2,16,17
 107 525 107 525 170.5 601 c 128,-1,18
 234 677 234 677 343 677 c 256,19,20
 452 677 452 677 515.5 601 c 128,-1,21
 579 525 579 525 579 379 c 2,22,-1
 579 319 l 2,23,24
 579 173 579 173 515.5 97 c 128,-1,25
 452 21 452 21 343 21 c 256,12,13
265 764 m 1,26,-1
 378 918 l 1,27,-1
 347 935 l 1,28,-1
 242 777 l 1,29,-1
 265 764 l 1,26,-1
425 764 m 1,30,-1
 538 918 l 1,31,-1
 507 935 l 1,32,-1
 402 777 l 1,33,-1
 425 764 l 1,30,-1
EndSplineSet
EndChar

StartChar: odblacute
Encoding: 337 337 272
Width: 544
Flags: W
LayerCount: 2
Fore
SplineSet
272 -12 m 256,0,1
 372 -12 372 -12 429.5 56 c 128,-1,2
 487 124 487 124 487 254 c 0,3,4
 487 385 487 385 429.5 452.5 c 128,-1,5
 372 520 372 520 272 520 c 256,6,7
 172 520 172 520 114.5 452.5 c 128,-1,8
 57 385 57 385 57 254 c 0,9,10
 57 124 57 124 114.5 56 c 128,-1,11
 172 -12 172 -12 272 -12 c 256,0,1
272 19 m 256,12,13
 187 19 187 19 141 74.5 c 128,-1,14
 95 130 95 130 95 227 c 2,15,-1
 95 281 l 2,16,17
 95 379 95 379 141 434 c 128,-1,18
 187 489 187 489 272 489 c 256,19,20
 357 489 357 489 403 434 c 128,-1,21
 449 379 449 379 449 281 c 2,22,-1
 449 227 l 2,23,24
 449 130 449 130 403 74.5 c 128,-1,25
 357 19 357 19 272 19 c 256,12,13
195 587 m 1,26,-1
 308 740 l 1,27,-1
 277 757 l 1,28,-1
 172 600 l 1,29,-1
 195 587 l 1,26,-1
355 587 m 1,30,-1
 468 740 l 1,31,-1
 437 757 l 1,32,-1
 332 600 l 1,33,-1
 355 587 l 1,30,-1
EndSplineSet
EndChar

StartChar: OE
Encoding: 338 338 273
Width: 971
Flags: W
LayerCount: 2
Fore
SplineSet
369 -12 m 0,0,1
 434 -12 434 -12 509 0 c 1,2,-1
 901 0 l 1,3,-1
 901 33 l 1,4,-1
 546 33 l 1,5,-1
 546 338 l 1,6,-1
 887 338 l 1,7,-1
 887 371 l 1,8,-1
 546 371 l 1,9,-1
 546 665 l 1,10,-1
 901 665 l 1,11,-1
 901 698 l 1,12,-1
 509 698 l 1,13,14
 434 710 434 710 369 710 c 0,15,16
 223 710 223 710 145 619.5 c 128,-1,17
 67 529 67 529 67 349 c 256,18,19
 67 169 67 169 145 78.5 c 128,-1,20
 223 -12 223 -12 369 -12 c 0,0,1
372 21 m 0,21,22
 244 21 244 21 175.5 97 c 128,-1,23
 107 173 107 173 107 319 c 2,24,-1
 107 379 l 2,25,26
 107 672 107 672 372 677 c 0,27,28
 455 677 455 677 509 662 c 1,29,-1
 509 36 l 1,30,31
 455 21 455 21 372 21 c 0,21,22
EndSplineSet
EndChar

StartChar: oe
Encoding: 339 339 274
Width: 929
Flags: W
LayerCount: 2
Fore
SplineSet
272 19 m 256,0,1
 187 19 187 19 141 74.5 c 128,-1,2
 95 130 95 130 95 227 c 2,3,-1
 95 281 l 2,4,5
 95 379 95 379 141 434 c 128,-1,6
 187 489 187 489 272 489 c 256,7,8
 357 489 357 489 403 434 c 128,-1,9
 449 379 449 379 449 281 c 2,10,-1
 449 227 l 2,11,12
 449 130 449 130 403 74.5 c 128,-1,13
 357 19 357 19 272 19 c 256,0,1
835 280 m 1,14,-1
 487 280 l 1,15,16
 487 378 487 378 533.5 433.5 c 128,-1,17
 580 489 580 489 663 489 c 0,18,19
 741 489 741 489 788 433.5 c 128,-1,20
 835 378 835 378 835 280 c 1,14,-1
668 -12 m 0,21,22
 740 -12 740 -12 789.5 23.5 c 128,-1,23
 839 59 839 59 862 120 c 1,24,-1
 835 135 l 1,25,26
 790 19 790 19 668 19 c 0,27,28
 583 19 583 19 535 75 c 128,-1,29
 487 131 487 131 487 225 c 2,30,-1
 487 252 l 1,31,-1
 873 252 l 1,32,-1
 873 268 l 2,33,34
 873 382 873 382 815.5 451 c 128,-1,35
 758 520 758 520 663 520 c 0,36,37
 518 520 518 520 471 374 c 1,38,-1
 467 374 l 1,39,40
 446 446 446 446 396 483 c 128,-1,41
 346 520 346 520 272 520 c 0,42,43
 172 520 172 520 114.5 452.5 c 128,-1,44
 57 385 57 385 57 254 c 0,45,46
 57 124 57 124 114.5 56 c 128,-1,47
 172 -12 172 -12 272 -12 c 0,48,49
 422 -12 422 -12 466 136 c 1,50,-1
 470 136 l 1,51,52
 514 -12 514 -12 668 -12 c 0,21,22
EndSplineSet
EndChar

StartChar: Racute
Encoding: 340 340 275
Width: 632
Flags: W
LayerCount: 2
Fore
SplineSet
571 0 m 1,0,-1
 386 319 l 1,1,2
 469 324 469 324 511.5 373.5 c 128,-1,3
 554 423 554 423 554 508 c 0,4,5
 554 596 554 596 508.5 647 c 128,-1,6
 463 698 463 698 375 698 c 2,7,-1
 104 698 l 1,8,-1
 104 0 l 1,9,-1
 141 0 l 1,10,-1
 141 317 l 1,11,-1
 347 317 l 1,12,-1
 529 0 l 1,13,-1
 571 0 l 1,0,-1
375 349 m 2,14,-1
 141 349 l 1,15,-1
 141 665 l 1,16,-1
 375 665 l 2,17,18
 441 665 441 665 480 625 c 1,19,20
 514 583 514 583 514 529 c 2,21,-1
 514 485 l 2,22,23
 514 431 514 431 480 390 c 0,24,25
 441 349 441 349 375 349 c 2,14,-1
293 764 m 1,26,-1
 406 918 l 1,27,-1
 374 935 l 1,28,-1
 269 777 l 1,29,-1
 293 764 l 1,26,-1
EndSplineSet
EndChar

StartChar: racute
Encoding: 341 341 276
Width: 347
Flags: W
LayerCount: 2
Fore
SplineSet
135 0 m 1,0,-1
 135 349 l 2,1,2
 135 411 135 411 181.5 443 c 128,-1,3
 228 475 228 475 289 475 c 2,4,-1
 333 475 l 1,5,-1
 333 508 l 1,6,-1
 295 508 l 2,7,8
 175 508 175 508 139 419 c 1,9,-1
 135 419 l 1,10,-1
 135 508 l 1,11,-1
 100 508 l 1,12,-1
 100 0 l 1,13,-1
 135 0 l 1,0,-1
210 587 m 1,14,-1
 323 740 l 1,15,-1
 291 758 l 1,16,-1
 186 600 l 1,17,-1
 210 587 l 1,14,-1
EndSplineSet
EndChar

StartChar: Rcedilla
Encoding: 342 342 277
Width: 632
GlyphClass: 2
Flags: W
LayerCount: 2
Fore
SplineSet
571 0 m 1,0,-1
 386 319 l 1,1,2
 469 324 469 324 511.5 373.5 c 128,-1,3
 554 423 554 423 554 508 c 0,4,5
 554 596 554 596 508.5 647 c 128,-1,6
 463 698 463 698 375 698 c 2,7,-1
 104 698 l 1,8,-1
 104 0 l 1,9,-1
 141 0 l 1,10,-1
 141 317 l 1,11,-1
 347 317 l 1,12,-1
 529 0 l 1,13,-1
 571 0 l 1,0,-1
375 349 m 2,14,-1
 141 349 l 1,15,-1
 141 665 l 1,16,-1
 375 665 l 2,17,18
 441 665 441 665 480 625 c 1,19,20
 514 583 514 583 514 529 c 2,21,-1
 514 485 l 2,22,23
 514 431 514 431 480 390 c 0,24,25
 441 349 441 349 375 349 c 2,14,-1
291 -220 m 1,26,27
 312 -197 312 -197 326 -165 c 128,-1,28
 340 -133 340 -133 340 -105 c 2,29,-1
 340 -94 l 2,30,31
 340 -66 340 -66 313 -66 c 0,32,33
 280 -66 280 -66 280 -94 c 2,34,-1
 280 -102 l 2,35,36
 280 -126 280 -126 310 -128 c 1,37,38
 305 -169 305 -169 264 -220 c 1,39,-1
 291 -220 l 1,26,27
EndSplineSet
EndChar

StartChar: rcedilla
Encoding: 343 343 278
Width: 347
GlyphClass: 5
Flags: W
LayerCount: 2
Fore
SplineSet
135 0 m 1,0,-1
 135 349 l 2,1,2
 135 411 135 411 181.5 443 c 128,-1,3
 228 475 228 475 289 475 c 2,4,-1
 333 475 l 1,5,-1
 333 508 l 1,6,-1
 295 508 l 2,7,8
 175 508 175 508 139 419 c 1,9,-1
 135 419 l 1,10,-1
 135 508 l 1,11,-1
 100 508 l 1,12,-1
 100 0 l 1,13,-1
 135 0 l 1,0,-1
100 -220 m 1,14,15
 121 -197 121 -197 135 -165 c 128,-1,16
 149 -133 149 -133 149 -105 c 2,17,-1
 149 -94 l 2,18,19
 149 -66 149 -66 122 -66 c 0,20,21
 89 -66 89 -66 89 -94 c 2,22,-1
 89 -102 l 2,23,24
 89 -126 89 -126 119 -128 c 1,25,26
 114 -169 114 -169 73 -220 c 1,27,-1
 100 -220 l 1,14,15
EndSplineSet
EndChar

StartChar: Rcaron
Encoding: 344 344 279
Width: 632
GlyphClass: 3
Flags: W
LayerCount: 2
Fore
SplineSet
571 0 m 1,0,-1
 386 319 l 1,1,2
 469 324 469 324 511.5 373.5 c 128,-1,3
 554 423 554 423 554 508 c 0,4,5
 554 596 554 596 508.5 647 c 128,-1,6
 463 698 463 698 375 698 c 2,7,-1
 104 698 l 1,8,-1
 104 0 l 1,9,-1
 141 0 l 1,10,-1
 141 317 l 1,11,-1
 347 317 l 1,12,-1
 529 0 l 1,13,-1
 571 0 l 1,0,-1
375 349 m 2,14,-1
 141 349 l 1,15,-1
 141 665 l 1,16,-1
 375 665 l 2,17,18
 441 665 441 665 480 625 c 1,19,20
 514 583 514 583 514 529 c 2,21,-1
 514 485 l 2,22,23
 514 431 514 431 480 390 c 0,24,25
 441 349 441 349 375 349 c 2,14,-1
326 780 m 1,26,-1
 450 915 l 1,27,-1
 429 931 l 1,28,-1
 305 806 l 1,29,-1
 181 931 l 1,30,-1
 160 915 l 1,31,-1
 284 780 l 1,32,-1
 326 780 l 1,26,-1
EndSplineSet
EndChar

StartChar: rcaron
Encoding: 345 345 280
Width: 347
GlyphClass: 3
Flags: W
LayerCount: 2
Fore
SplineSet
135 0 m 1,0,-1
 135 349 l 2,1,2
 135 411 135 411 181.5 443 c 128,-1,3
 228 475 228 475 289 475 c 2,4,-1
 333 475 l 1,5,-1
 333 508 l 1,6,-1
 295 508 l 2,7,8
 175 508 175 508 139 419 c 1,9,-1
 135 419 l 1,10,-1
 135 508 l 1,11,-1
 100 508 l 1,12,-1
 100 0 l 1,13,-1
 135 0 l 1,0,-1
243 602 m 1,14,-1
 367 737 l 1,15,-1
 346 753 l 1,16,-1
 222 629 l 1,17,-1
 98 753 l 1,18,-1
 77 737 l 1,19,-1
 201 602 l 1,20,-1
 243 602 l 1,14,-1
EndSplineSet
EndChar

StartChar: Sacute
Encoding: 346 346 281
Width: 555
Flags: W
LayerCount: 2
Fore
SplineSet
279 -12 m 0,0,1
 381 -12 381 -12 440.5 38 c 128,-1,2
 500 88 500 88 500 183 c 0,3,4
 500 254 500 254 462 298 c 0,5,6
 422 346 422 346 317 369 c 2,7,-1
 250 382 l 1,8,9
 96 407 96 407 96 531 c 0,10,11
 96 605 96 605 143 641 c 128,-1,12
 190 677 190 677 274 677 c 0,13,14
 399 677 399 677 460 590 c 1,15,-1
 488 610 l 1,16,17
 422 710 422 710 276 710 c 0,18,19
 179 710 179 710 119 665 c 128,-1,20
 59 620 59 620 59 530 c 0,21,22
 59 385 59 385 242 348 c 2,23,-1
 309 335 l 2,24,25
 375 324 375 324 418 291 c 0,26,27
 463 253 463 253 463 180 c 0,28,29
 463 24 463 24 280 21 c 0,30,31
 204 21 204 21 155 49 c 128,-1,32
 106 77 106 77 70 126 c 1,33,-1
 42 104 l 1,34,35
 80 52 80 52 136.5 20 c 128,-1,36
 193 -12 193 -12 279 -12 c 0,0,1
262 764 m 1,37,-1
 375 918 l 1,38,-1
 343 935 l 1,39,-1
 238 777 l 1,40,-1
 262 764 l 1,37,-1
EndSplineSet
EndChar

StartChar: sacute
Encoding: 347 347 282
Width: 468
Flags: W
LayerCount: 2
Fore
SplineSet
237 -12 m 0,0,1
 318 -12 318 -12 364 25.5 c 128,-1,2
 410 63 410 63 410 131 c 0,3,4
 410 196 410 196 372 229 c 128,-1,5
 334 262 334 262 262 272 c 2,6,-1
 219 279 l 2,7,8
 158 288 158 288 128 312 c 128,-1,9
 98 336 98 336 98 387 c 0,10,11
 98 437 98 437 133.5 463 c 128,-1,12
 169 489 169 489 229 489 c 0,13,14
 288 489 288 489 321 469 c 128,-1,15
 354 449 354 449 375 422 c 1,16,-1
 400 445 l 1,17,18
 374 476 374 476 334 498 c 128,-1,19
 294 520 294 520 230 520 c 0,20,21
 160 520 160 520 112 486 c 128,-1,22
 64 452 64 452 64 386 c 0,23,24
 64 319 64 319 105 288 c 0,25,26
 145 256 145 256 213 246 c 2,27,-1
 256 239 l 2,28,29
 317 230 317 230 346.5 204.5 c 128,-1,30
 376 179 376 179 376 128 c 0,31,32
 376 22 376 22 238 19 c 0,33,34
 130 19 130 19 73 103 c 1,35,-1
 46 83 l 1,36,37
 111 -12 111 -12 237 -12 c 0,0,1
216 587 m 1,38,-1
 329 740 l 1,39,-1
 297 758 l 1,40,-1
 192 600 l 1,41,-1
 216 587 l 1,38,-1
EndSplineSet
EndChar

StartChar: Scircumflex
Encoding: 348 348 283
Width: 555
GlyphClass: 2
Flags: W
LayerCount: 2
Fore
SplineSet
279 -12 m 0,0,1
 381 -12 381 -12 440.5 38 c 128,-1,2
 500 88 500 88 500 183 c 0,3,4
 500 254 500 254 462 298 c 0,5,6
 422 346 422 346 317 369 c 2,7,-1
 250 382 l 1,8,9
 96 407 96 407 96 531 c 0,10,11
 96 605 96 605 143 641 c 128,-1,12
 190 677 190 677 274 677 c 0,13,14
 399 677 399 677 460 590 c 1,15,-1
 488 610 l 1,16,17
 422 710 422 710 276 710 c 0,18,19
 179 710 179 710 119 665 c 128,-1,20
 59 620 59 620 59 530 c 0,21,22
 59 385 59 385 242 348 c 2,23,-1
 309 335 l 2,24,25
 375 324 375 324 418 291 c 0,26,27
 463 253 463 253 463 180 c 0,28,29
 463 24 463 24 280 21 c 0,30,31
 204 21 204 21 155 49 c 128,-1,32
 106 77 106 77 70 126 c 1,33,-1
 42 104 l 1,34,35
 80 52 80 52 136.5 20 c 128,-1,36
 193 -12 193 -12 279 -12 c 0,0,1
398 775 m 1,37,-1
 419 790 l 1,38,-1
 295 926 l 1,39,-1
 253 926 l 1,40,-1
 129 790 l 1,41,-1
 150 775 l 1,42,-1
 274 899 l 1,43,-1
 398 775 l 1,37,-1
EndSplineSet
EndChar

StartChar: scircumflex
Encoding: 349 349 284
Width: 468
Flags: W
LayerCount: 2
Fore
SplineSet
237 -12 m 0,0,1
 318 -12 318 -12 364 25.5 c 128,-1,2
 410 63 410 63 410 131 c 0,3,4
 410 196 410 196 372 229 c 128,-1,5
 334 262 334 262 262 272 c 2,6,-1
 219 279 l 2,7,8
 158 288 158 288 128 312 c 128,-1,9
 98 336 98 336 98 387 c 0,10,11
 98 437 98 437 133.5 463 c 128,-1,12
 169 489 169 489 229 489 c 0,13,14
 288 489 288 489 321 469 c 128,-1,15
 354 449 354 449 375 422 c 1,16,-1
 400 445 l 1,17,18
 374 476 374 476 334 498 c 128,-1,19
 294 520 294 520 230 520 c 0,20,21
 160 520 160 520 112 486 c 128,-1,22
 64 452 64 452 64 386 c 0,23,24
 64 319 64 319 105 288 c 0,25,26
 145 256 145 256 213 246 c 2,27,-1
 256 239 l 2,28,29
 317 230 317 230 346.5 204.5 c 128,-1,30
 376 179 376 179 376 128 c 0,31,32
 376 22 376 22 238 19 c 0,33,34
 130 19 130 19 73 103 c 1,35,-1
 46 83 l 1,36,37
 111 -12 111 -12 237 -12 c 0,0,1
352 597 m 1,38,-1
 373 613 l 1,39,-1
 249 748 l 1,40,-1
 207 748 l 1,41,-1
 83 613 l 1,42,-1
 104 597 l 1,43,-1
 228 722 l 1,44,-1
 352 597 l 1,38,-1
EndSplineSet
EndChar

StartChar: Scedilla
Encoding: 350 350 285
Width: 555
Flags: W
LayerCount: 2
Fore
SplineSet
287 -203 m 0,0,1
 327 -203 327 -203 351.5 -182 c 128,-1,2
 376 -161 376 -161 376 -129 c 0,3,4
 376 -73 376 -73 308 -69 c 0,5,6
 295 -69 295 -69 276 -72 c 1,7,-1
 274 -70 l 1,8,-1
 288 -12 l 1,9,10
 387 -9 387 -9 443.5 40.5 c 128,-1,11
 500 90 500 90 500 183 c 0,12,13
 500 254 500 254 462 298 c 0,14,15
 422 346 422 346 317 369 c 2,16,-1
 250 382 l 1,17,18
 96 407 96 407 96 531 c 0,19,20
 96 605 96 605 143 641 c 128,-1,21
 190 677 190 677 274 677 c 0,22,23
 399 677 399 677 460 590 c 1,24,-1
 488 610 l 1,25,26
 422 710 422 710 276 710 c 0,27,28
 179 710 179 710 119 665 c 128,-1,29
 59 620 59 620 59 530 c 0,30,31
 59 385 59 385 242 348 c 2,32,-1
 309 335 l 2,33,34
 375 324 375 324 418 291 c 0,35,36
 463 253 463 253 463 180 c 0,37,38
 463 24 463 24 280 21 c 0,39,40
 204 21 204 21 155 49 c 128,-1,41
 106 77 106 77 70 126 c 1,42,-1
 42 104 l 1,43,44
 78 55 78 55 131 23.5 c 128,-1,45
 184 -8 184 -8 263 -12 c 1,46,-1
 246 -82 l 1,47,-1
 281 -85 l 2,48,49
 344 -89 344 -89 344 -130 c 0,50,51
 344 -153 344 -153 328 -165 c 128,-1,52
 312 -177 312 -177 287 -177 c 0,53,54
 241 -177 241 -177 220 -149 c 1,55,-1
 201 -169 l 1,56,57
 211 -184 211 -184 233 -193.5 c 128,-1,58
 255 -203 255 -203 287 -203 c 0,0,1
EndSplineSet
EndChar

StartChar: scedilla
Encoding: 351 351 286
Width: 468
Flags: W
LayerCount: 2
Fore
SplineSet
247 -203 m 0,0,1
 287 -203 287 -203 311.5 -182 c 128,-1,2
 336 -161 336 -161 336 -129 c 0,3,4
 336 -73 336 -73 269 -69 c 0,5,6
 253 -69 253 -69 237 -72 c 1,7,-1
 235 -70 l 1,8,-1
 249 -12 l 1,9,10
 325 -9 325 -9 367.5 28 c 128,-1,11
 410 65 410 65 410 131 c 0,12,13
 410 196 410 196 372 229 c 128,-1,14
 334 262 334 262 262 272 c 2,15,-1
 219 279 l 2,16,17
 158 287 158 287 128 311.5 c 128,-1,18
 98 336 98 336 98 387 c 0,19,20
 98 437 98 437 133.5 463 c 128,-1,21
 169 489 169 489 229 489 c 0,22,23
 288 489 288 489 321 469 c 128,-1,24
 354 449 354 449 375 422 c 1,25,-1
 400 445 l 1,26,27
 374 476 374 476 334 498 c 128,-1,28
 294 520 294 520 230 520 c 0,29,30
 160 520 160 520 112 486 c 128,-1,31
 64 452 64 452 64 386 c 0,32,33
 64 319 64 319 105 288 c 0,34,35
 145 256 145 256 213 246 c 2,36,-1
 256 239 l 2,37,38
 316 231 316 231 345.5 205 c 128,-1,39
 375 179 375 179 375 128 c 0,40,41
 375 22 375 22 238 19 c 0,42,43
 130 19 130 19 73 103 c 1,44,-1
 46 83 l 1,45,46
 110 -8 110 -8 223 -12 c 1,47,-1
 207 -82 l 1,48,-1
 242 -85 l 2,49,50
 304 -90 304 -90 304 -130 c 0,51,52
 304 -176 304 -176 247 -177 c 0,53,54
 204 -177 204 -177 181 -149 c 1,55,-1
 162 -169 l 1,56,57
 186 -203 186 -203 247 -203 c 0,0,1
EndSplineSet
EndChar

StartChar: Scaron
Encoding: 352 352 287
Width: 555
GlyphClass: 2
Flags: W
LayerCount: 2
Fore
SplineSet
279 -12 m 0,0,1
 381 -12 381 -12 440.5 38 c 128,-1,2
 500 88 500 88 500 183 c 0,3,4
 500 254 500 254 462 298 c 0,5,6
 422 346 422 346 317 369 c 2,7,-1
 250 382 l 1,8,9
 96 407 96 407 96 531 c 0,10,11
 96 605 96 605 143 641 c 128,-1,12
 190 677 190 677 274 677 c 0,13,14
 399 677 399 677 460 590 c 1,15,-1
 488 610 l 1,16,17
 422 710 422 710 276 710 c 0,18,19
 179 710 179 710 119 665 c 128,-1,20
 59 620 59 620 59 530 c 0,21,22
 59 385 59 385 242 348 c 2,23,-1
 309 335 l 2,24,25
 375 324 375 324 418 291 c 0,26,27
 463 253 463 253 463 180 c 0,28,29
 463 24 463 24 280 21 c 0,30,31
 204 21 204 21 155 49 c 128,-1,32
 106 77 106 77 70 126 c 1,33,-1
 42 104 l 1,34,35
 80 52 80 52 136.5 20 c 128,-1,36
 193 -12 193 -12 279 -12 c 0,0,1
295 780 m 1,37,-1
 419 915 l 1,38,-1
 398 931 l 1,39,-1
 274 806 l 1,40,-1
 150 931 l 1,41,-1
 129 915 l 1,42,-1
 253 780 l 1,43,-1
 295 780 l 1,37,-1
EndSplineSet
EndChar

StartChar: scaron
Encoding: 353 353 288
Width: 468
GlyphClass: 4
Flags: W
LayerCount: 2
Fore
SplineSet
237 -12 m 0,0,1
 318 -12 318 -12 364 25.5 c 128,-1,2
 410 63 410 63 410 131 c 0,3,4
 410 196 410 196 372 229 c 128,-1,5
 334 262 334 262 262 272 c 2,6,-1
 219 279 l 2,7,8
 158 288 158 288 128 312 c 128,-1,9
 98 336 98 336 98 387 c 0,10,11
 98 437 98 437 133.5 463 c 128,-1,12
 169 489 169 489 229 489 c 0,13,14
 288 489 288 489 321 469 c 128,-1,15
 354 449 354 449 375 422 c 1,16,-1
 400 445 l 1,17,18
 374 476 374 476 334 498 c 128,-1,19
 294 520 294 520 230 520 c 0,20,21
 160 520 160 520 112 486 c 128,-1,22
 64 452 64 452 64 386 c 0,23,24
 64 319 64 319 105 288 c 0,25,26
 145 256 145 256 213 246 c 2,27,-1
 256 239 l 2,28,29
 317 230 317 230 346.5 204.5 c 128,-1,30
 376 179 376 179 376 128 c 0,31,32
 376 22 376 22 238 19 c 0,33,34
 130 19 130 19 73 103 c 1,35,-1
 46 83 l 1,36,37
 111 -12 111 -12 237 -12 c 0,0,1
249 602 m 1,38,-1
 373 737 l 1,39,-1
 352 753 l 1,40,-1
 228 629 l 1,41,-1
 104 753 l 1,42,-1
 83 737 l 1,43,-1
 207 602 l 1,44,-1
 249 602 l 1,38,-1
EndSplineSet
EndChar

StartChar: Tcedilla
Encoding: 354 354 289
Width: 563
GlyphClass: 2
Flags: W
LayerCount: 2
Fore
SplineSet
300 0 m 1,0,-1
 300 665 l 1,1,-1
 545 665 l 1,2,-1
 545 698 l 1,3,-1
 18 698 l 1,4,-1
 18 665 l 1,5,-1
 263 665 l 1,6,-1
 263 0 l 1,7,-1
 300 0 l 1,0,-1
262 -220 m 1,8,9
 283 -197 283 -197 297 -165 c 128,-1,10
 311 -133 311 -133 311 -105 c 2,11,-1
 311 -94 l 2,12,13
 311 -66 311 -66 284 -66 c 0,14,15
 251 -66 251 -66 251 -94 c 2,16,-1
 251 -102 l 2,17,18
 251 -126 251 -126 281 -128 c 1,19,20
 276 -169 276 -169 235 -220 c 1,21,-1
 262 -220 l 1,8,9
EndSplineSet
EndChar

StartChar: tcedilla
Encoding: 355 355 290
Width: 320
GlyphClass: 3
Flags: W
LayerCount: 2
Fore
SplineSet
268 0 m 1,0,-1
 268 31 l 1,1,-1
 157 31 l 1,2,-1
 157 477 l 1,3,-1
 276 477 l 1,4,-1
 276 508 l 1,5,-1
 157 508 l 1,6,-1
 157 652 l 1,7,-1
 124 652 l 1,8,-1
 124 539 l 2,9,10
 124 522 124 522 118.5 515 c 128,-1,11
 113 508 113 508 96 508 c 2,12,-1
 30 508 l 1,13,-1
 30 477 l 1,14,-1
 122 477 l 1,15,-1
 122 42 l 2,16,17
 122 0 122 0 165 0 c 2,18,-1
 268 0 l 1,0,-1
176 -220 m 1,19,20
 197 -197 197 -197 211 -165 c 128,-1,21
 225 -133 225 -133 225 -105 c 2,22,-1
 225 -94 l 2,23,24
 225 -66 225 -66 198 -66 c 0,25,26
 165 -66 165 -66 165 -94 c 2,27,-1
 165 -102 l 2,28,29
 165 -126 165 -126 195 -128 c 1,30,31
 190 -169 190 -169 149 -220 c 1,32,-1
 176 -220 l 1,19,20
EndSplineSet
EndChar

StartChar: Tcaron
Encoding: 356 356 291
Width: 563
GlyphClass: 3
Flags: W
LayerCount: 2
Fore
SplineSet
300 0 m 1,0,-1
 300 665 l 1,1,-1
 545 665 l 1,2,-1
 545 698 l 1,3,-1
 18 698 l 1,4,-1
 18 665 l 1,5,-1
 263 665 l 1,6,-1
 263 0 l 1,7,-1
 300 0 l 1,0,-1
303 780 m 1,8,-1
 427 915 l 1,9,-1
 406 931 l 1,10,-1
 282 806 l 1,11,-1
 158 931 l 1,12,-1
 137 915 l 1,13,-1
 261 780 l 1,14,-1
 303 780 l 1,8,-1
EndSplineSet
EndChar

StartChar: tcaron
Encoding: 357 357 292
Width: 320
Flags: W
LayerCount: 2
Fore
SplineSet
268 0 m 1,0,-1
 268 31 l 1,1,-1
 157 31 l 1,2,-1
 157 477 l 1,3,-1
 276 477 l 1,4,-1
 276 508 l 1,5,-1
 157 508 l 1,6,-1
 157 652 l 1,7,-1
 124 652 l 1,8,-1
 124 539 l 2,9,10
 124 522 124 522 118.5 515 c 128,-1,11
 113 508 113 508 96 508 c 2,12,-1
 30 508 l 1,13,-1
 30 477 l 1,14,-1
 122 477 l 1,15,-1
 122 42 l 2,16,17
 122 0 122 0 165 0 c 2,18,-1
 268 0 l 1,0,-1
276 565 m 1,19,-1
 307 743 l 1,20,-1
 266 743 l 1,21,-1
 251 565 l 1,22,-1
 276 565 l 1,19,-1
EndSplineSet
EndChar

StartChar: Tbar
Encoding: 358 358 293
Width: 563
GlyphClass: 7
Flags: W
LayerCount: 2
Fore
SplineSet
300 0 m 1,0,-1
 300 359 l 1,1,-1
 482 359 l 1,2,-1
 482 389 l 1,3,-1
 300 389 l 1,4,-1
 300 665 l 1,5,-1
 545 665 l 1,6,-1
 545 698 l 1,7,-1
 18 698 l 1,8,-1
 18 665 l 1,9,-1
 263 665 l 1,10,-1
 263 389 l 1,11,-1
 81 389 l 1,12,-1
 81 359 l 1,13,-1
 263 359 l 1,14,-1
 263 0 l 1,15,-1
 300 0 l 1,0,-1
EndSplineSet
EndChar

StartChar: tbar
Encoding: 359 359 294
Width: 326
GlyphClass: 3
Flags: W
LayerCount: 2
Fore
SplineSet
271 0 m 1,0,-1
 271 31 l 1,1,-1
 160 31 l 1,2,-1
 160 272 l 1,3,-1
 259 272 l 1,4,-1
 259 301 l 1,5,-1
 160 301 l 1,6,-1
 160 477 l 1,7,-1
 279 477 l 1,8,-1
 279 508 l 1,9,-1
 160 508 l 1,10,-1
 160 652 l 1,11,-1
 127 652 l 1,12,-1
 127 539 l 2,13,14
 127 522 127 522 121.5 515 c 128,-1,15
 116 508 116 508 99 508 c 2,16,-1
 33 508 l 1,17,-1
 33 477 l 1,18,-1
 125 477 l 1,19,-1
 125 301 l 1,20,-1
 58 301 l 1,21,-1
 58 272 l 1,22,-1
 125 272 l 1,23,-1
 125 42 l 2,24,25
 125 0 125 0 168 0 c 2,26,-1
 271 0 l 1,0,-1
EndSplineSet
EndChar

StartChar: Utilde
Encoding: 360 360 295
Width: 658
GlyphClass: 2
Flags: W
LayerCount: 2
Fore
SplineSet
328 -12 m 0,0,1
 459 -12 459 -12 510 54 c 128,-1,2
 561 120 561 120 561 274 c 2,3,-1
 561 698 l 1,4,-1
 524 698 l 1,5,-1
 524 268 l 2,6,7
 524 202 524 202 514.5 155 c 128,-1,8
 505 108 505 108 482 78 c 0,9,10
 439 21 439 21 329 21 c 0,11,12
 217 21 217 21 176 78 c 0,13,14
 153 108 153 108 143.5 155 c 128,-1,15
 134 202 134 202 134 268 c 2,16,-1
 134 698 l 1,17,-1
 97 698 l 1,18,-1
 97 274 l 2,19,20
 97 120 97 120 147.5 54 c 128,-1,21
 198 -12 198 -12 328 -12 c 0,0,1
399 802 m 0,22,23
 449 802 449 802 482 845 c 1,24,-1
 465 863 l 1,25,26
 437 832 437 832 401 832 c 0,27,28
 387 832 387 832 372 837.5 c 128,-1,29
 357 843 357 843 334 857 c 128,-1,30
 311 871 311 871 293.5 878.5 c 128,-1,31
 276 886 276 886 257 886 c 0,32,33
 208 886 208 886 174 843 c 1,34,-1
 191 825 l 1,35,36
 219 856 219 856 255 856 c 0,37,38
 269 856 269 856 284 850.5 c 128,-1,39
 299 845 299 845 322 831 c 128,-1,40
 345 817 345 817 362.5 809.5 c 128,-1,41
 380 802 380 802 399 802 c 0,22,23
EndSplineSet
EndChar

StartChar: utilde
Encoding: 361 361 296
Width: 559
GlyphClass: 4
Flags: W
LayerCount: 2
Fore
SplineSet
265 -12 m 0,0,1
 333 -12 333 -12 369.5 15 c 128,-1,2
 406 42 406 42 420 78 c 1,3,-1
 424 78 l 1,4,-1
 424 0 l 1,5,-1
 459 0 l 1,6,-1
 459 508 l 1,7,-1
 424 508 l 1,8,-1
 424 148 l 2,9,10
 424 82 424 82 378 50.5 c 128,-1,11
 332 19 332 19 273 19 c 0,12,13
 126 19 126 19 126 188 c 2,14,-1
 126 508 l 1,15,-1
 91 508 l 1,16,-1
 91 182 l 2,17,18
 91 -8 91 -8 265 -12 c 0,0,1
347 624 m 0,19,20
 394 624 394 624 430 666 c 1,21,-1
 413 685 l 1,22,23
 385 653 385 653 349 653 c 0,24,25
 335 653 335 653 320 659 c 128,-1,26
 305 665 305 665 282 679 c 0,27,28
 243 708 243 708 205 708 c 0,29,30
 159 708 159 708 122 666 c 1,31,-1
 139 647 l 1,32,33
 167 679 167 679 203 679 c 0,34,35
 217 679 217 679 232 673 c 128,-1,36
 247 667 247 667 270 653 c 0,37,38
 310 624 310 624 347 624 c 0,19,20
EndSplineSet
EndChar

StartChar: Umacron
Encoding: 362 362 297
Width: 658
Flags: W
LayerCount: 2
Fore
SplineSet
328 -12 m 0,0,1
 459 -12 459 -12 510 54 c 128,-1,2
 561 120 561 120 561 274 c 2,3,-1
 561 698 l 1,4,-1
 524 698 l 1,5,-1
 524 268 l 2,6,7
 524 202 524 202 514.5 155 c 128,-1,8
 505 108 505 108 482 78 c 0,9,10
 439 21 439 21 329 21 c 0,11,12
 217 21 217 21 176 78 c 0,13,14
 153 108 153 108 143.5 155 c 128,-1,15
 134 202 134 202 134 268 c 2,16,-1
 134 698 l 1,17,-1
 97 698 l 1,18,-1
 97 274 l 2,19,20
 97 120 97 120 147.5 54 c 128,-1,21
 198 -12 198 -12 328 -12 c 0,0,1
460 831 m 1,22,-1
 460 861 l 1,23,-1
 196 861 l 1,24,-1
 196 831 l 1,25,-1
 460 831 l 1,22,-1
EndSplineSet
EndChar

StartChar: umacron
Encoding: 363 363 298
Width: 559
Flags: W
LayerCount: 2
Fore
SplineSet
265 -12 m 0,0,1
 333 -12 333 -12 369.5 15 c 128,-1,2
 406 42 406 42 420 78 c 1,3,-1
 424 78 l 1,4,-1
 424 0 l 1,5,-1
 459 0 l 1,6,-1
 459 508 l 1,7,-1
 424 508 l 1,8,-1
 424 148 l 2,9,10
 424 82 424 82 378 50.5 c 128,-1,11
 332 19 332 19 273 19 c 0,12,13
 126 19 126 19 126 188 c 2,14,-1
 126 508 l 1,15,-1
 91 508 l 1,16,-1
 91 182 l 2,17,18
 91 -8 91 -8 265 -12 c 0,0,1
408 653 m 1,19,-1
 408 683 l 1,20,-1
 144 683 l 1,21,-1
 144 653 l 1,22,-1
 408 653 l 1,19,-1
EndSplineSet
EndChar

